<?xml version="1.0" encoding="UTF-8"?>
<svg id="Layer_1" xmlns="http://www.w3.org/2000/svg" viewBox="0 0 216 144">
  <defs>
    <style>
      .cls-1 {
        fill: #231f20;
      }
    </style>
  </defs>
  <path class="cls-1" d="M24.78,34.12c-4.5,0-8.18,3.69-8.18,8.21s3.68,8.15,8.17,8.15,8.2-3.67,8.2-8.15-3.69-8.21-8.19-8.21ZM24.77,47.28c-2.74,0-4.98-2.24-4.98-4.97s2.24-5,4.98-5,5,2.25,5,5-2.25,4.97-5,4.97Z"/>
  <path class="cls-1" d="M38.18,45.07h2.36c3.05,0,5.54-2.38,5.54-5.3s-2.49-5.32-5.54-5.32h-5.53v15.74h3.16v-5.12ZM38.18,37.58h2.36c1.31,0,2.37.97,2.37,2.16s-1.06,2.22-2.37,2.21h-2.36v-4.37Z"/>
  <polygon class="cls-1" points="57.35 47.04 51.03 47.04 51.03 43.79 56.46 43.79 56.46 40.63 51.03 40.63 51.03 37.56 57.35 37.56 57.35 34.44 47.86 34.44 47.86 50.18 57.35 50.18 57.35 47.04"/>
  <polygon class="cls-1" points="62.84 41.39 72.19 50.48 72.33 50.48 72.33 34.4 69.16 34.4 69.16 43.22 59.83 34.15 59.68 34.15 59.68 50.2 62.84 50.2 62.84 41.39"/>
  <path class="cls-1" d="M78.73,44.94l3.63,5.27.17.22h.53l3.77-5.48v5.75h4.16v-17.13h-.93l-7.27,10.05-7.28-10.05h-.93v17.13h4.16v-5.75ZM77.73,49.68h-2.16v-14.33l7.22,9.95,7.2-9.95v14.33h-2.16v-7.97l-5.04,7.33-5.05-7.33v7.96Z"/>
  <path class="cls-1" d="M99.16,51.03c3.69,0,6.57-2.93,6.57-6.66v-10.42h-4.18v10.41c0,1.36-1.08,2.47-2.4,2.47s-2.38-1.11-2.38-2.47v-10.41h-4.18v10.42c0,3.74,2.89,6.66,6.57,6.66ZM93.59,34.94h2.18v9.41c0,1.91,1.52,3.47,3.38,3.47s3.4-1.56,3.4-3.47v-9.41h2.18v9.42c0,3.23-2.4,5.66-5.57,5.66s-5.57-2.43-5.57-5.66v-9.42Z"/>
  <path class="cls-1" d="M112.6,46.81c-1.21,0-2.04-.44-2.63-1.39l-.28-.45-3.33,2.34.21.39c1.16,2.15,3.23,3.29,5.98,3.29,3.72,0,6.21-2.09,6.21-5.2,0-2.89-2.18-4.32-4.54-5.43-.33-.16-.64-.29-.93-.42-1.17-.52-1.78-.81-1.78-1.24,0-.48.6-.99,1.56-.99.39,0,1.34.1,1.81,1.04l.26.52,3.13-2.18-.14-.36c-.74-1.98-2.6-3.12-5.11-3.12-3.3,0-5.7,2.11-5.7,5.02s2.21,3.92,3.99,4.8l.12.06c1.33.66,3.14,1.56,3.14,2.38,0,.54-.85.95-1.98.95ZM111.88,42.6l-.12-.06c-1.77-.88-3.43-1.71-3.43-3.91,0-2.33,1.97-4.02,4.7-4.02,1.14,0,3.12.28,4.02,2.12l-1.57,1.1c-.55-.7-1.41-1.11-2.4-1.11-1.44,0-2.56.88-2.56,1.99s1,1.54,2.38,2.15c.28.12.58.26.91.41,2.85,1.35,3.96,2.61,3.96,4.53,0,2.55-2.05,4.2-5.21,4.2-2.19,0-3.86-.82-4.87-2.38l1.74-1.22c.76.96,1.81,1.42,3.18,1.42,1.75,0,2.98-.8,2.98-1.95,0-1.44-1.88-2.37-3.7-3.27Z"/>
  <path class="cls-1" d="M127.73,50.99c2.21,0,4.05-.81,5.81-2.56l.3-.3-2.4-3.38-.42.41c-1.12,1.1-2.26,1.65-3.39,1.65-2.09,0-4.43-1.91-4.43-4.47,0-2.4,2.08-4.5,4.44-4.5,1.17,0,2.33.54,3.37,1.56l.41.4,2.43-3.31-.31-.3c-1.76-1.7-3.68-2.54-5.86-2.57-4.7,0-8.67,3.99-8.67,8.7s3.92,8.66,8.73,8.66ZM127.66,34.62c1.78.03,3.38.68,4.86,2l-1.23,1.68c-1.12-.95-2.37-1.45-3.65-1.45-2.9,0-5.44,2.57-5.44,5.5,0,3.22,2.86,5.47,5.43,5.47,1.25,0,2.48-.52,3.66-1.54l1.24,1.74c-1.46,1.35-3,1.98-4.8,1.98-4.19,0-7.73-3.51-7.73-7.66s3.51-7.7,7.67-7.7Z"/>
  <path class="cls-1" d="M138.63,33.94h-4.16v16.74h10.49v-4.14h-6.33v-12.6ZM143.95,47.54v2.14h-8.49v-14.74h2.16v12.6h6.33Z"/>
  <path class="cls-1" d="M156.22,38.06v-4.12h-10.49v16.74h10.49v-4.14h-6.33v-2.25h5.43v-4.15h-5.43v-2.08h6.33ZM154.33,41.13v2.15h-5.43v4.25h6.33v2.14h-8.49v-14.74h8.49v2.12h-6.33v4.08h5.43Z"/>
  <path class="cls-1" d="M35.84,55.14h-2.69v9.45h2.69c3,0,4.87-1.81,4.87-4.71s-1.87-4.74-4.87-4.73ZM35.85,63.11h-1.22v-6.5h1.21c2.07,0,3.38,1.25,3.38,3.26s-1.29,3.24-3.36,3.24Z"/>
  <polygon class="cls-1" points="42.07 64.58 47.7 64.58 47.7 63.11 43.55 63.11 43.55 60.49 47.13 60.49 47.13 59.02 43.55 59.02 43.55 56.6 47.7 56.6 47.7 55.14 42.07 55.14 42.07 64.58"/>
  <polygon class="cls-1" points="52.91 64.78 57.26 55.14 55.68 55.14 52.85 61.53 50.04 55.14 48.46 55.14 52.81 64.78 52.91 64.78"/>
  <polygon class="cls-1" points="59.79 60.01 63.28 64.58 65.09 64.58 61.41 59.77 64.76 55.14 63.04 55.14 59.79 59.66 59.79 55.14 58.31 55.14 58.31 64.58 59.79 64.58 59.79 60.01"/>
  <rect class="cls-1" x="66.09" y="55.14" width="1.48" height="9.45"/>
  <polygon class="cls-1" points="71.29 64.58 72.78 64.58 72.78 56.61 75.31 56.61 75.31 55.14 68.76 55.14 68.76 56.61 71.29 56.61 71.29 64.58"/>
  <path class="cls-1" d="M84.25,59.26c.35,0,1.06-.68,1.06-1.7,0-1.25-1.1-2.43-2.73-2.43h-2.58v9.45h3.53c1.88,0,2.97-1.43,2.97-2.88s-1.2-2.44-2.26-2.44ZM81.48,56.58h1.19c.67,0,1.25.5,1.25,1.18s-.54,1.18-1.27,1.17h-1.17s0-2.35,0-2.35ZM83.4,63.14h-1.92v-2.89h1.9c1.07,0,1.68.65,1.68,1.37,0,.91-.81,1.53-1.66,1.53Z"/>
  <path class="cls-1" d="M93.82,58.17c0-1.68-1.44-3.04-3.2-3.04h-2.94v9.45h1.49v-3.66h1.16l2.54,3.66h1.82l-2.75-3.78c1.08-.35,1.87-1.41,1.87-2.63ZM90.66,59.7h-1.49v-3.09h1.49c.88,0,1.63.65,1.63,1.53s-.74,1.56-1.63,1.56Z"/>
  <path class="cls-1" d="M102.29,64.58h1.61l-4.44-9.64h-.09l-4.44,9.64h1.61l.64-1.44h4.47l.64,1.44ZM97.75,61.88l1.66-3.69,1.66,3.69h-3.32Z"/>
  <path class="cls-1" d="M110.91,62.12c-.65.64-1.48,1.12-2.45,1.12-1.69,0-3.35-1.47-3.35-3.38s1.63-3.39,3.35-3.39c.93,0,1.79.44,2.45,1.1l.86-1.17c-.93-.9-2.06-1.42-3.28-1.44-2.65,0-4.88,2.23-4.88,4.89s2.22,4.87,4.9,4.87c1.41,0,2.44-.62,3.26-1.42l-.86-1.2Z"/>
  <polygon class="cls-1" points="118.57 63.11 114.43 63.11 114.43 60.49 118 60.49 118 59.02 114.43 59.02 114.43 56.6 118.57 56.6 118.57 55.14 112.95 55.14 112.95 64.58 118.57 64.58 118.57 63.11"/>
  <polygon class="cls-1" points="121.59 55.14 120.11 55.14 120.11 64.58 125.81 64.58 125.81 63.11 121.59 63.11 121.59 55.14"/>
  <polygon class="cls-1" points="126.99 64.58 132.62 64.58 132.62 63.11 128.47 63.11 128.47 60.49 132.05 60.49 132.05 59.02 128.47 59.02 128.47 56.6 132.62 56.6 132.62 55.14 126.99 55.14 126.99 64.58"/>
  <polygon class="cls-1" points="133.52 56.61 136.06 56.61 136.06 64.58 137.54 64.58 137.54 56.61 140.08 56.61 140.08 55.14 133.52 55.14 133.52 56.61"/>
  <polygon class="cls-1" points="56.05 76.86 52.84 69.54 51.71 69.54 55.99 79.13 56.12 79.13 60.42 69.54 59.27 69.54 56.05 76.86"/>
  <polygon class="cls-1" points="61.56 78.98 67.11 78.98 67.11 77.92 62.63 77.92 62.63 74.64 66.51 74.64 66.51 73.58 62.63 73.58 62.63 70.59 67.11 70.59 67.11 69.54 61.56 69.54 61.56 78.98"/>
  <path class="cls-1" d="M74.78,72.55c0-1.66-1.43-3.01-3.18-3.01h-2.79v9.44h1.07v-3.69h1.76l2.64,3.69h1.32l-2.81-3.81c1.15-.35,1.99-1.4,1.99-2.62ZM71.63,74.4h-1.76v-3.81h1.76c1.11,0,2.05.84,2.05,1.93,0,1.02-.93,1.87-2.05,1.87Z"/>
  <path class="cls-1" d="M79.87,73.68c-1.22-.47-2.26-.8-2.26-1.72,0-.84.87-1.51,1.88-1.51.85,0,1.61.48,1.92,1.19l.8-.54c-.35-.93-1.31-1.7-2.71-1.7-1.66,0-2.96,1.08-2.96,2.54s1.29,2.03,2.46,2.48c1.21.46,2.56.97,2.56,2.03,0,.93-1.01,1.6-2.24,1.6-1,0-1.97-.54-2.4-1.35l-.82.6c.45,1.01,1.66,1.82,3.21,1.82,1.82,0,3.32-1.06,3.32-2.69,0-1.52-1.34-2.17-2.76-2.75Z"/>
  <rect class="cls-1" x="84.02" y="69.54" width="1.07" height="9.44"/>
  <path class="cls-1" d="M91.43,69.4c-2.67,0-4.85,2.19-4.85,4.86s2.19,4.84,4.85,4.84,4.86-2.18,4.86-4.84-2.19-4.86-4.86-4.86ZM91.43,78.03c-2.07,0-3.77-1.69-3.77-3.77s1.69-3.78,3.77-3.78,3.79,1.71,3.79,3.78-1.7,3.77-3.79,3.77Z"/>
  <polygon class="cls-1" points="104.31 76.58 97.84 69.39 97.79 69.39 97.79 79 98.85 79 98.85 71.94 105.33 79.13 105.38 79.13 105.38 69.52 104.31 69.52 104.31 76.58"/>
  <polygon class="cls-1" points="110.39 70.19 110.39 71.3 111.88 70.85 111.88 78.98 112.94 78.98 112.94 69.48 112.63 69.48 110.39 70.19"/>
  <path class="cls-1" d="M115.46,77.68c-.42,0-.77.35-.77.77s.35.77.77.77.78-.35.78-.77-.36-.77-.78-.77Z"/>
  <polygon class="cls-1" points="117.48 70.19 117.48 71.3 118.97 70.85 118.97 78.98 120.04 78.98 120.04 69.48 119.73 69.48 117.48 70.19"/>
</svg>