%TF.GenerationSoftware,KiCad,Pcbnew,7.0.7*%
%TF.CreationDate,2024-10-15T08:59:53-05:00*%
%TF.ProjectId,OM-EPSC3-Micro,4f4d2d45-5053-4433-932d-4d6963726f2e,rev?*%
%TF.SameCoordinates,Original*%
%TF.FileFunction,Copper,L1,Top*%
%TF.FilePolarity,Positive*%
%FSLAX46Y46*%
G04 Gerber Fmt 4.6, Leading zero omitted, Abs format (unit mm)*
G04 Created by KiCad (PCBNEW 7.0.7) date 2024-10-15 08:59:53*
%MOMM*%
%LPD*%
G01*
G04 APERTURE LIST*
G04 Aperture macros list*
%AMRoundRect*
0 Rectangle with rounded corners*
0 $1 Rounding radius*
0 $2 $3 $4 $5 $6 $7 $8 $9 X,Y pos of 4 corners*
0 Add a 4 corners polygon primitive as box body*
4,1,4,$2,$3,$4,$5,$6,$7,$8,$9,$2,$3,0*
0 Add four circle primitives for the rounded corners*
1,1,$1+$1,$2,$3*
1,1,$1+$1,$4,$5*
1,1,$1+$1,$6,$7*
1,1,$1+$1,$8,$9*
0 Add four rect primitives between the rounded corners*
20,1,$1+$1,$2,$3,$4,$5,0*
20,1,$1+$1,$4,$5,$6,$7,0*
20,1,$1+$1,$6,$7,$8,$9,0*
20,1,$1+$1,$8,$9,$2,$3,0*%
%AMFreePoly0*
4,1,6,1.000000,0.000000,0.500000,-0.750000,-0.500000,-0.750000,-0.500000,0.750000,0.500000,0.750000,1.000000,0.000000,1.000000,0.000000,$1*%
%AMFreePoly1*
4,1,6,0.500000,-0.750000,-0.650000,-0.750000,-0.150000,0.000000,-0.650000,0.750000,0.500000,0.750000,0.500000,-0.750000,0.500000,-0.750000,$1*%
G04 Aperture macros list end*
%TA.AperFunction,ComponentPad*%
%ADD10R,1.700000X1.700000*%
%TD*%
%TA.AperFunction,SMDPad,CuDef*%
%ADD11RoundRect,0.200000X-0.200000X-0.275000X0.200000X-0.275000X0.200000X0.275000X-0.200000X0.275000X0*%
%TD*%
%TA.AperFunction,ComponentPad*%
%ADD12RoundRect,0.381000X-0.381000X0.881000X-0.381000X-0.881000X0.381000X-0.881000X0.381000X0.881000X0*%
%TD*%
%TA.AperFunction,ComponentPad*%
%ADD13R,1.524000X2.524000*%
%TD*%
%TA.AperFunction,SMDPad,CuDef*%
%ADD14RoundRect,0.150000X-0.512500X-0.150000X0.512500X-0.150000X0.512500X0.150000X-0.512500X0.150000X0*%
%TD*%
%TA.AperFunction,SMDPad,CuDef*%
%ADD15FreePoly0,0.000000*%
%TD*%
%TA.AperFunction,SMDPad,CuDef*%
%ADD16FreePoly1,0.000000*%
%TD*%
%TA.AperFunction,ComponentPad*%
%ADD17O,1.700000X1.700000*%
%TD*%
%TA.AperFunction,SMDPad,CuDef*%
%ADD18RoundRect,0.140000X-0.140000X-0.170000X0.140000X-0.170000X0.140000X0.170000X-0.140000X0.170000X0*%
%TD*%
%TA.AperFunction,ComponentPad*%
%ADD19RoundRect,0.381000X0.381000X-0.881000X0.381000X0.881000X-0.381000X0.881000X-0.381000X-0.881000X0*%
%TD*%
%TA.AperFunction,SMDPad,CuDef*%
%ADD20RoundRect,0.140000X0.140000X0.170000X-0.140000X0.170000X-0.140000X-0.170000X0.140000X-0.170000X0*%
%TD*%
%TA.AperFunction,SMDPad,CuDef*%
%ADD21RoundRect,0.250000X0.475000X-0.250000X0.475000X0.250000X-0.475000X0.250000X-0.475000X-0.250000X0*%
%TD*%
%TA.AperFunction,SMDPad,CuDef*%
%ADD22RoundRect,0.243750X-0.243750X-0.456250X0.243750X-0.456250X0.243750X0.456250X-0.243750X0.456250X0*%
%TD*%
%TA.AperFunction,SMDPad,CuDef*%
%ADD23RoundRect,0.200000X0.275000X-0.200000X0.275000X0.200000X-0.275000X0.200000X-0.275000X-0.200000X0*%
%TD*%
%TA.AperFunction,ComponentPad*%
%ADD24O,2.000000X1.700000*%
%TD*%
%TA.AperFunction,ComponentPad*%
%ADD25RoundRect,0.250000X0.750000X-0.600000X0.750000X0.600000X-0.750000X0.600000X-0.750000X-0.600000X0*%
%TD*%
%TA.AperFunction,SMDPad,CuDef*%
%ADD26R,1.000000X1.450000*%
%TD*%
%TA.AperFunction,SMDPad,CuDef*%
%ADD27RoundRect,0.225000X-0.225000X-0.250000X0.225000X-0.250000X0.225000X0.250000X-0.225000X0.250000X0*%
%TD*%
%TA.AperFunction,ViaPad*%
%ADD28C,0.800000*%
%TD*%
%TA.AperFunction,Conductor*%
%ADD29C,0.250000*%
%TD*%
G04 APERTURE END LIST*
D10*
%TO.P,J5,1,Pin_1*%
%TO.N,+5V*%
X218694000Y-141478000D03*
%TD*%
D11*
%TO.P,R2,1*%
%TO.N,+5V*%
X222886000Y-92964000D03*
%TO.P,R2,2*%
%TO.N,Net-(D1-A)*%
X224536000Y-92964000D03*
%TD*%
D12*
%TO.P,H1,1,VCC*%
%TO.N,+3V3*%
X224790000Y-99449000D03*
D13*
%TO.P,H1,2,GND*%
%TO.N,GND*%
X222758000Y-99449000D03*
D12*
%TO.P,H1,3,VOUT*%
%TO.N,hall_1*%
X220726000Y-99449000D03*
%TD*%
D14*
%TO.P,U5,1,IN*%
%TO.N,+3V8*%
X210312000Y-108336000D03*
%TO.P,U5,2,GND*%
%TO.N,GND*%
X210312000Y-109286000D03*
%TO.P,U5,3,EN*%
%TO.N,LDO_EN*%
X210312000Y-110236000D03*
%TO.P,U5,4,NC*%
%TO.N,unconnected-(U5-NC-Pad4)*%
X212587000Y-110236000D03*
%TO.P,U5,5,OUT*%
%TO.N,+3V3*%
X212587000Y-108336000D03*
%TD*%
D15*
%TO.P,JP1,1,A*%
%TO.N,hall_1*%
X221054000Y-121920000D03*
D16*
%TO.P,JP1,2,B*%
%TO.N,ADC3*%
X222504000Y-121920000D03*
%TD*%
D14*
%TO.P,U2,1,~{CHRG}*%
%TO.N,Net-(D1-K)*%
X230632000Y-98552000D03*
%TO.P,U2,2,GND*%
%TO.N,GND*%
X230632000Y-99502000D03*
%TO.P,U2,3,BAT*%
%TO.N,+3V8*%
X230632000Y-100452000D03*
%TO.P,U2,4,V_{CC}*%
%TO.N,+5V*%
X232907000Y-100452000D03*
%TO.P,U2,5,PROG*%
%TO.N,Net-(U2-PROG)*%
X232907000Y-98552000D03*
%TD*%
D10*
%TO.P,J3,1,Pin_1*%
%TO.N,GND*%
X234696000Y-134620000D03*
D17*
%TO.P,J3,2,Pin_2*%
%TO.N,RMT-BTN*%
X234696000Y-137160000D03*
%TD*%
D18*
%TO.P,C1,1*%
%TO.N,GND*%
X223068000Y-139700000D03*
%TO.P,C1,2*%
%TO.N,hall_0*%
X224028000Y-139700000D03*
%TD*%
D19*
%TO.P,H0,1,VCC*%
%TO.N,+3V3*%
X220726000Y-135628000D03*
D13*
%TO.P,H0,2,GND*%
%TO.N,GND*%
X222758000Y-135628000D03*
D19*
%TO.P,H0,3,VOUT*%
%TO.N,hall_0*%
X224790000Y-135628000D03*
%TD*%
D20*
%TO.P,C2,1*%
%TO.N,GND*%
X221996000Y-96012000D03*
%TO.P,C2,2*%
%TO.N,hall_1*%
X221036000Y-96012000D03*
%TD*%
D15*
%TO.P,JP2,1,A*%
%TO.N,hall_0*%
X225626000Y-121920000D03*
D16*
%TO.P,JP2,2,B*%
%TO.N,ADC2*%
X227076000Y-121920000D03*
%TD*%
D21*
%TO.P,C9,1*%
%TO.N,+3V8*%
X216408000Y-106548000D03*
%TO.P,C9,2*%
%TO.N,GND*%
X216408000Y-104648000D03*
%TD*%
D10*
%TO.P,J1,1,Pin_1*%
%TO.N,+3V3*%
X214884000Y-130556000D03*
D17*
%TO.P,J1,2,Pin_2*%
%TO.N,ADC3*%
X214884000Y-133096000D03*
%TO.P,J1,3,Pin_3*%
%TO.N,ADC2*%
X214884000Y-135636000D03*
%TO.P,J1,4,Pin_4*%
%TO.N,GND*%
X214884000Y-138176000D03*
%TD*%
D22*
%TO.P,D1,1,K*%
%TO.N,Net-(D1-K)*%
X228092000Y-92964000D03*
%TO.P,D1,2,A*%
%TO.N,Net-(D1-A)*%
X229967000Y-92964000D03*
%TD*%
D23*
%TO.P,R1,1*%
%TO.N,Net-(U2-PROG)*%
X227584000Y-98361000D03*
%TO.P,R1,2*%
%TO.N,GND*%
X227584000Y-96711000D03*
%TD*%
D19*
%TO.P,U1,0,GPIO0*%
%TO.N,hall_0*%
X232664000Y-109466000D03*
%TO.P,U1,1,GPIO1*%
%TO.N,hall_1*%
X230124000Y-109466000D03*
%TO.P,U1,2,GPIO2*%
%TO.N,unconnected-(U1-GPIO2-Pad2)*%
X227584000Y-109466000D03*
%TO.P,U1,3,GPIO3*%
%TO.N,ADC2*%
X225044000Y-109466000D03*
%TO.P,U1,4,GPIO4*%
%TO.N,unconnected-(U1-GPIO4-Pad4)*%
X222504000Y-109466000D03*
%TO.P,U1,5,GPIO5*%
%TO.N,ADC3*%
X214884000Y-125738000D03*
%TO.P,U1,6,GPIO6*%
%TO.N,unconnected-(U1-GPIO6-Pad6)*%
X217424000Y-125738000D03*
%TO.P,U1,7,GPIO7*%
%TO.N,unconnected-(U1-GPIO7-Pad7)*%
X219964000Y-125738000D03*
%TO.P,U1,8,GPIO8*%
%TO.N,SDA*%
X222504000Y-125738000D03*
%TO.P,U1,9,GPIO9*%
%TO.N,SCL*%
X225044000Y-125738000D03*
%TO.P,U1,10,GPIO10*%
%TO.N,unconnected-(U1-GPIO10-Pad10)*%
X227584000Y-125738000D03*
%TO.P,U1,20,GPIO20*%
%TO.N,unconnected-(U1-GPIO20-Pad20)*%
X230124000Y-125738000D03*
%TO.P,U1,21,GPIO21*%
%TO.N,unconnected-(U1-GPIO21-Pad21)*%
X232664000Y-125738000D03*
%TO.P,U1,100,5V*%
%TO.N,+5V*%
X214884000Y-109466000D03*
%TO.P,U1,101,GND*%
%TO.N,GND*%
X217424000Y-109466000D03*
%TO.P,U1,102,3V3*%
%TO.N,+3V3*%
X219964000Y-109466000D03*
%TD*%
D23*
%TO.P,R8,1*%
%TO.N,Net-(MAX1-CLEAR)*%
X234696000Y-130556000D03*
%TO.P,R8,2*%
%TO.N,GND*%
X234696000Y-128906000D03*
%TD*%
D24*
%TO.P,J4,1*%
%TO.N,+3V8*%
X211328000Y-99842000D03*
D25*
%TO.P,J4,2*%
%TO.N,GND*%
X211328000Y-102342000D03*
%TD*%
D26*
%TO.P,SW2,1,1*%
%TO.N,GND*%
X228424000Y-136144000D03*
%TO.P,SW2,2,2*%
%TO.N,RMT-BTN*%
X230124000Y-136144000D03*
%TO.P,SW2,3*%
%TO.N,N/C*%
X228424000Y-141294000D03*
%TO.P,SW2,4*%
X230124000Y-141294000D03*
%TD*%
D10*
%TO.P,J2,1,Pin_1*%
%TO.N,GND*%
X210820000Y-134620000D03*
D17*
%TO.P,J2,2,Pin_2*%
%TO.N,RMT-BTN*%
X210820000Y-137160000D03*
%TD*%
D27*
%TO.P,C5,1*%
%TO.N,GND*%
X232130000Y-105156000D03*
%TO.P,C5,2*%
%TO.N,+5V*%
X233680000Y-105156000D03*
%TD*%
D14*
%TO.P,MAX1,1,In*%
%TO.N,RMT-BTN*%
X230124000Y-129606000D03*
%TO.P,MAX1,2,GND*%
%TO.N,GND*%
X230124000Y-130556000D03*
%TO.P,MAX1,3,CLEAR*%
%TO.N,Net-(MAX1-CLEAR)*%
X230124000Y-131506000D03*
%TO.P,MAX1,4,OU*%
%TO.N,unconnected-(MAX1-OU-Pad4)*%
X232399000Y-131506000D03*
%TO.P,MAX1,5,OUT*%
%TO.N,LDO_EN*%
X232399000Y-130556000D03*
%TO.P,MAX1,6,Vcc*%
%TO.N,+3V8*%
X232399000Y-129606000D03*
%TD*%
D21*
%TO.P,C10,1*%
%TO.N,+3V3*%
X216408000Y-102484000D03*
%TO.P,C10,2*%
%TO.N,GND*%
X216408000Y-100584000D03*
%TD*%
D28*
%TO.N,+3V3*%
X217884200Y-101792100D03*
X211455000Y-129540000D03*
X212392200Y-109286000D03*
X232795100Y-101812000D03*
%TO.N,GND*%
X222544600Y-138141300D03*
X228262500Y-138400700D03*
X226471300Y-96398700D03*
X216408000Y-99474600D03*
X226060000Y-103505000D03*
X222516700Y-96896800D03*
X229365900Y-99572300D03*
X215437800Y-103677800D03*
X232130000Y-104076500D03*
X233908600Y-129731000D03*
X211453000Y-110835100D03*
%TO.N,+3V8*%
X228002000Y-99516800D03*
%TO.N,Net-(U2-PROG)*%
X232476700Y-99534600D03*
X229554000Y-96903600D03*
%TO.N,LDO_EN*%
X234740700Y-131816400D03*
X216292600Y-119899200D03*
%TD*%
D29*
%TO.N,+3V3*%
X212392200Y-109286000D02*
X212587000Y-109091200D01*
X212587000Y-109091200D02*
X212587000Y-108336000D01*
X217099900Y-101792100D02*
X216408000Y-102484000D01*
X217884200Y-101792100D02*
X217099900Y-101792100D01*
%TO.N,hall_1*%
X228294700Y-107875600D02*
X223594300Y-107875600D01*
X219821400Y-100853600D02*
X220726000Y-99949000D01*
X223594300Y-107875600D02*
X220497900Y-107875600D01*
X230124000Y-109704900D02*
X228294700Y-107875600D01*
X221054000Y-121920000D02*
X221054000Y-113173800D01*
X221054000Y-113173800D02*
X223594300Y-110633500D01*
X220497900Y-107875600D02*
X219821400Y-107199100D01*
X223594300Y-110633500D02*
X223594300Y-107875600D01*
X219821400Y-107199100D02*
X219821400Y-100853600D01*
X230124000Y-109966000D02*
X230124000Y-109704900D01*
X221036000Y-96012000D02*
X220726000Y-96322000D01*
X220726000Y-96322000D02*
X220726000Y-99949000D01*
%TO.N,hall_0*%
X225626000Y-121920000D02*
X225626000Y-123674500D01*
X226193800Y-133724200D02*
X224790000Y-135128000D01*
X224790000Y-135128000D02*
X224790000Y-138938000D01*
X226496500Y-124242300D02*
X226193800Y-124242300D01*
X224790000Y-138938000D02*
X224028000Y-139700000D01*
X232664000Y-109966000D02*
X232664000Y-118074800D01*
X225626000Y-123674500D02*
X226193800Y-124242300D01*
X226193800Y-124242300D02*
X226193800Y-133724200D01*
X232664000Y-118074800D02*
X226496500Y-124242300D01*
%TO.N,GND*%
X224745001Y-101936001D02*
X225253001Y-101936001D01*
X211453000Y-110018500D02*
X210720500Y-109286000D01*
X216408000Y-104648000D02*
X215437800Y-103677800D01*
X222758000Y-99949000D02*
X224745001Y-101936001D01*
X227584000Y-96711000D02*
X227271700Y-96398700D01*
X223068000Y-139700000D02*
X223068000Y-138664700D01*
X226060000Y-103505000D02*
X226060000Y-103378000D01*
X233763300Y-121699500D02*
X231297900Y-124164900D01*
X225253001Y-101936001D02*
X226060000Y-102743000D01*
X233908600Y-129731000D02*
X234696000Y-128943600D01*
X232130000Y-104076500D02*
X232130000Y-105156000D01*
X228262500Y-138400700D02*
X228424000Y-138239200D01*
X233763300Y-106789300D02*
X233763300Y-121699500D01*
X210720500Y-109286000D02*
X210312000Y-109286000D01*
X230561700Y-99572300D02*
X229365900Y-99572300D01*
X231297900Y-129833300D02*
X230575200Y-130556000D01*
X230632000Y-99502000D02*
X230561700Y-99572300D01*
X234696000Y-128943600D02*
X234696000Y-128906000D01*
X230575200Y-130556000D02*
X230124000Y-130556000D01*
X228424000Y-138239200D02*
X228424000Y-136144000D01*
X211453000Y-110835100D02*
X211453000Y-110018500D01*
X227271700Y-96398700D02*
X226471300Y-96398700D01*
X216408000Y-99474600D02*
X216408000Y-100584000D01*
X232130000Y-105156000D02*
X233763300Y-106789300D01*
X221996000Y-96012000D02*
X221996000Y-96376100D01*
X226060000Y-102743000D02*
X226060000Y-103505000D01*
X231297900Y-124164900D02*
X231297900Y-129833300D01*
X221996000Y-96376100D02*
X222516700Y-96896800D01*
X223068000Y-138664700D02*
X222544600Y-138141300D01*
%TO.N,+5V*%
X215357000Y-134366000D02*
X218694000Y-137703000D01*
X222886000Y-92964000D02*
X222886000Y-94977000D01*
X215988900Y-111070900D02*
X214884000Y-109966000D01*
X218759400Y-110408600D02*
X218097100Y-111070900D01*
X233680000Y-101225000D02*
X232907000Y-100452000D01*
X227275100Y-99366100D02*
X227275100Y-99817800D01*
X218694000Y-137703000D02*
X218694000Y-141478000D01*
X222886000Y-94977000D02*
X221060900Y-94977000D01*
X217044100Y-111070900D02*
X217044100Y-120662500D01*
X217044100Y-111070900D02*
X215988900Y-111070900D01*
X227275100Y-99817800D02*
X228595100Y-101137800D01*
X228595100Y-101137800D02*
X232221200Y-101137800D01*
X213687200Y-124019400D02*
X213687200Y-133595500D01*
X218759400Y-97278500D02*
X218759400Y-110408600D01*
X214457700Y-134366000D02*
X215357000Y-134366000D01*
X232221200Y-101137800D02*
X232907000Y-100452000D01*
X221060900Y-94977000D02*
X218759400Y-97278500D01*
X218097100Y-111070900D02*
X217044100Y-111070900D01*
X222886000Y-94977000D02*
X227275100Y-99366100D01*
X213687200Y-133595500D02*
X214457700Y-134366000D01*
X233680000Y-105156000D02*
X233680000Y-101225000D01*
X217044100Y-120662500D02*
X213687200Y-124019400D01*
%TO.N,ADC3*%
X214884000Y-125238000D02*
X216094200Y-126448200D01*
X218784400Y-126702400D02*
X218784400Y-124599500D01*
X216094200Y-131518000D02*
X215693100Y-131919100D01*
X215693100Y-131919100D02*
X214884000Y-131919100D01*
X222504000Y-121920000D02*
X222504000Y-122996900D01*
X218145500Y-127341300D02*
X218784400Y-126702400D01*
X216094200Y-127341300D02*
X216094200Y-131518000D01*
X218784400Y-124599500D02*
X220387000Y-122996900D01*
X220387000Y-122996900D02*
X222504000Y-122996900D01*
X216094200Y-127341300D02*
X218145500Y-127341300D01*
X214884000Y-133096000D02*
X214884000Y-131919100D01*
X216094200Y-126448200D02*
X216094200Y-127341300D01*
%TO.N,ADC2*%
X227076000Y-111998000D02*
X225044000Y-109966000D01*
X227076000Y-121920000D02*
X227076000Y-111998000D01*
%TO.N,Net-(D1-K)*%
X230632000Y-98552000D02*
X230632000Y-95504000D01*
X230632000Y-95504000D02*
X228092000Y-92964000D01*
%TO.N,+3V8*%
X228002000Y-99516800D02*
X228937200Y-100452000D01*
X228937200Y-100452000D02*
X230632000Y-100452000D01*
X213602700Y-102411300D02*
X212210300Y-101018900D01*
X212210300Y-101018900D02*
X211328000Y-101018900D01*
X214905300Y-105045300D02*
X216408000Y-106548000D01*
X213602700Y-105045300D02*
X210312000Y-108336000D01*
X213602700Y-105045300D02*
X213602700Y-102411300D01*
X211328000Y-99842000D02*
X211328000Y-101018900D01*
X232399000Y-129606000D02*
X234510100Y-127494900D01*
X213602700Y-105045300D02*
X214905300Y-105045300D01*
X234510100Y-98817300D02*
X233617300Y-97924500D01*
X234510100Y-127494900D02*
X234510100Y-98817300D01*
X231749800Y-98371400D02*
X231749800Y-99786400D01*
X232196700Y-97924500D02*
X231749800Y-98371400D01*
X233617300Y-97924500D02*
X232196700Y-97924500D01*
X231084200Y-100452000D02*
X230632000Y-100452000D01*
X231749800Y-99786400D02*
X231084200Y-100452000D01*
%TO.N,Net-(D1-A)*%
X228920000Y-91917000D02*
X229967000Y-92964000D01*
X225583000Y-91917000D02*
X228920000Y-91917000D01*
X224536000Y-92964000D02*
X225583000Y-91917000D01*
%TO.N,Net-(U2-PROG)*%
X232907000Y-98552000D02*
X232476700Y-98982300D01*
X229554000Y-96903600D02*
X228096600Y-98361000D01*
X228096600Y-98361000D02*
X227584000Y-98361000D01*
X232476700Y-98982300D02*
X232476700Y-99534600D01*
%TO.N,RMT-BTN*%
X230124000Y-136144000D02*
X229297100Y-136144000D01*
X229132800Y-135152800D02*
X229297100Y-135317100D01*
X232503100Y-136144000D02*
X233519100Y-137160000D01*
X230124000Y-136144000D02*
X232503100Y-136144000D01*
X230124000Y-129606000D02*
X229736100Y-129606000D01*
X229297100Y-135317100D02*
X229297100Y-136144000D01*
X229736100Y-129606000D02*
X229132800Y-130209300D01*
X229132800Y-130209300D02*
X229132800Y-135152800D01*
X234696000Y-137160000D02*
X233519100Y-137160000D01*
%TO.N,Net-(MAX1-CLEAR)*%
X235485400Y-132131400D02*
X235485400Y-131345400D01*
X230124000Y-131506000D02*
X231161300Y-132543300D01*
X235485400Y-131345400D02*
X234696000Y-130556000D01*
X235073500Y-132543300D02*
X235485400Y-132131400D01*
X231161300Y-132543300D02*
X235073500Y-132543300D01*
%TO.N,LDO_EN*%
X232399000Y-130556000D02*
X233449500Y-130556000D01*
X210312000Y-113918600D02*
X210312000Y-110236000D01*
X233449500Y-130556000D02*
X234709900Y-131816400D01*
X216292600Y-119899200D02*
X210312000Y-113918600D01*
X234709900Y-131816400D02*
X234740700Y-131816400D01*
%TD*%
%TA.AperFunction,Conductor*%
%TO.N,+3V3*%
G36*
X213630683Y-122962354D02*
G01*
X213681311Y-123010505D01*
X213697870Y-123078384D01*
X213675102Y-123144440D01*
X213661684Y-123160323D01*
X213303407Y-123518600D01*
X213291151Y-123528420D01*
X213291334Y-123528641D01*
X213285323Y-123533613D01*
X213237972Y-123584036D01*
X213217089Y-123604918D01*
X213217077Y-123604932D01*
X213212821Y-123610417D01*
X213209037Y-123614847D01*
X213177137Y-123648818D01*
X213177136Y-123648820D01*
X213167484Y-123666376D01*
X213156810Y-123682626D01*
X213144529Y-123698461D01*
X213144524Y-123698468D01*
X213126015Y-123741238D01*
X213123445Y-123746484D01*
X213101003Y-123787306D01*
X213096022Y-123806707D01*
X213089721Y-123825110D01*
X213081762Y-123843502D01*
X213081761Y-123843505D01*
X213074471Y-123889527D01*
X213073287Y-123895246D01*
X213061701Y-123940372D01*
X213061699Y-123940384D01*
X213061699Y-123960420D01*
X213060173Y-123979811D01*
X213057040Y-123999594D01*
X213057040Y-123999595D01*
X213061425Y-124045983D01*
X213061700Y-124051821D01*
X213061700Y-133512755D01*
X213059975Y-133528372D01*
X213060261Y-133528399D01*
X213059526Y-133536165D01*
X213061700Y-133605314D01*
X213061700Y-133634843D01*
X213061701Y-133634860D01*
X213062568Y-133641731D01*
X213063026Y-133647550D01*
X213064490Y-133694124D01*
X213065305Y-133696931D01*
X213070080Y-133713367D01*
X213074024Y-133732411D01*
X213076536Y-133752292D01*
X213088766Y-133783183D01*
X213093690Y-133795619D01*
X213095582Y-133801147D01*
X213108581Y-133845888D01*
X213118780Y-133863134D01*
X213127338Y-133880603D01*
X213134714Y-133899232D01*
X213162098Y-133936923D01*
X213165306Y-133941807D01*
X213189027Y-133981916D01*
X213189033Y-133981924D01*
X213203190Y-133996080D01*
X213215828Y-134010876D01*
X213227605Y-134027086D01*
X213227606Y-134027087D01*
X213263509Y-134056788D01*
X213267820Y-134060710D01*
X213648508Y-134441397D01*
X213823907Y-134616796D01*
X213857392Y-134678119D01*
X213852408Y-134747810D01*
X213837801Y-134775600D01*
X213709965Y-134958169D01*
X213709964Y-134958171D01*
X213610098Y-135172335D01*
X213610094Y-135172344D01*
X213548938Y-135400586D01*
X213548936Y-135400596D01*
X213528341Y-135635999D01*
X213528341Y-135636000D01*
X213548936Y-135871403D01*
X213548938Y-135871413D01*
X213610094Y-136099655D01*
X213610096Y-136099659D01*
X213610097Y-136099663D01*
X213686507Y-136263525D01*
X213709965Y-136313830D01*
X213709967Y-136313834D01*
X213845501Y-136507395D01*
X213845506Y-136507402D01*
X214012597Y-136674493D01*
X214012603Y-136674498D01*
X214198158Y-136804425D01*
X214241783Y-136859002D01*
X214248977Y-136928500D01*
X214217454Y-136990855D01*
X214198158Y-137007575D01*
X214012597Y-137137505D01*
X213845505Y-137304597D01*
X213709965Y-137498169D01*
X213709964Y-137498171D01*
X213610098Y-137712335D01*
X213610094Y-137712344D01*
X213548938Y-137940586D01*
X213548936Y-137940596D01*
X213528341Y-138175999D01*
X213528341Y-138176000D01*
X213548936Y-138411403D01*
X213548938Y-138411413D01*
X213610094Y-138639655D01*
X213610096Y-138639659D01*
X213610097Y-138639663D01*
X213670397Y-138768977D01*
X213709965Y-138853830D01*
X213709967Y-138853834D01*
X213814024Y-139002442D01*
X213845505Y-139047401D01*
X214012599Y-139214495D01*
X214098668Y-139274761D01*
X214206165Y-139350032D01*
X214206167Y-139350033D01*
X214206170Y-139350035D01*
X214420337Y-139449903D01*
X214648592Y-139511063D01*
X214836918Y-139527539D01*
X214883999Y-139531659D01*
X214884000Y-139531659D01*
X214884001Y-139531659D01*
X214923234Y-139528226D01*
X215119408Y-139511063D01*
X215347663Y-139449903D01*
X215561830Y-139350035D01*
X215755401Y-139214495D01*
X215922495Y-139047401D01*
X216058035Y-138853830D01*
X216157903Y-138639663D01*
X216219063Y-138411408D01*
X216239659Y-138176000D01*
X216219063Y-137940592D01*
X216166975Y-137746194D01*
X216157905Y-137712344D01*
X216157904Y-137712343D01*
X216157903Y-137712337D01*
X216058035Y-137498171D01*
X216033371Y-137462946D01*
X215922494Y-137304597D01*
X215755402Y-137137506D01*
X215755396Y-137137501D01*
X215569842Y-137007575D01*
X215526217Y-136952998D01*
X215519023Y-136883500D01*
X215550546Y-136821145D01*
X215569842Y-136804425D01*
X215724210Y-136696335D01*
X215755401Y-136674495D01*
X215922495Y-136507401D01*
X216058035Y-136313830D01*
X216098381Y-136227307D01*
X216144552Y-136174870D01*
X216211746Y-136155718D01*
X216278627Y-136175934D01*
X216298443Y-136192033D01*
X218032181Y-137925771D01*
X218065666Y-137987094D01*
X218068500Y-138013452D01*
X218068500Y-140003500D01*
X218048815Y-140070539D01*
X217996011Y-140116294D01*
X217944501Y-140127500D01*
X217796130Y-140127500D01*
X217796123Y-140127501D01*
X217736516Y-140133908D01*
X217601671Y-140184202D01*
X217601664Y-140184206D01*
X217486455Y-140270452D01*
X217486452Y-140270455D01*
X217400206Y-140385664D01*
X217400202Y-140385671D01*
X217349908Y-140520517D01*
X217345117Y-140565084D01*
X217343501Y-140580123D01*
X217343500Y-140580135D01*
X217343500Y-142375870D01*
X217343501Y-142375876D01*
X217349908Y-142435483D01*
X217400202Y-142570328D01*
X217400206Y-142570335D01*
X217486452Y-142685544D01*
X217486455Y-142685547D01*
X217601664Y-142771793D01*
X217601671Y-142771797D01*
X217736517Y-142822091D01*
X217736516Y-142822091D01*
X217743444Y-142822835D01*
X217796127Y-142828500D01*
X219591872Y-142828499D01*
X219651483Y-142822091D01*
X219786331Y-142771796D01*
X219901546Y-142685546D01*
X219987796Y-142570331D01*
X220038091Y-142435483D01*
X220044500Y-142375873D01*
X220044500Y-142066870D01*
X227423500Y-142066870D01*
X227423501Y-142066876D01*
X227429908Y-142126483D01*
X227480202Y-142261328D01*
X227480206Y-142261335D01*
X227566452Y-142376544D01*
X227566455Y-142376547D01*
X227681664Y-142462793D01*
X227681671Y-142462797D01*
X227816517Y-142513091D01*
X227816516Y-142513091D01*
X227823444Y-142513835D01*
X227876127Y-142519500D01*
X228971872Y-142519499D01*
X229031483Y-142513091D01*
X229166329Y-142462797D01*
X229166329Y-142462796D01*
X229166331Y-142462796D01*
X229199689Y-142437823D01*
X229265151Y-142413406D01*
X229333425Y-142428257D01*
X229348305Y-142437820D01*
X229381669Y-142462796D01*
X229381670Y-142462796D01*
X229381670Y-142462797D01*
X229516517Y-142513091D01*
X229516516Y-142513091D01*
X229523444Y-142513835D01*
X229576127Y-142519500D01*
X230671872Y-142519499D01*
X230731483Y-142513091D01*
X230866331Y-142462796D01*
X230981546Y-142376546D01*
X231067796Y-142261331D01*
X231118091Y-142126483D01*
X231124500Y-142066873D01*
X231124499Y-140561004D01*
X232314490Y-140561004D01*
X232314649Y-140563187D01*
X232315018Y-140565084D01*
X232349000Y-140831113D01*
X232349128Y-140833139D01*
X232349221Y-140833625D01*
X232349463Y-140835119D01*
X232349973Y-140836516D01*
X232350281Y-140837436D01*
X232351118Y-140839192D01*
X232406615Y-140979859D01*
X232406620Y-140979870D01*
X232447284Y-141082942D01*
X232448427Y-141086576D01*
X232450552Y-141091248D01*
X232451848Y-141093238D01*
X232453080Y-141094714D01*
X232610061Y-141310800D01*
X232611161Y-141312557D01*
X232611521Y-141312995D01*
X232612580Y-141314369D01*
X232613880Y-141315502D01*
X232616268Y-141317711D01*
X232619510Y-141320023D01*
X232822270Y-141487566D01*
X232823852Y-141489073D01*
X232824006Y-141489185D01*
X232825715Y-141490518D01*
X232827659Y-141491478D01*
X232830170Y-141492837D01*
X232833974Y-141494298D01*
X233070839Y-141605595D01*
X233072626Y-141606592D01*
X233073234Y-141606836D01*
X233074802Y-141607520D01*
X233076422Y-141607872D01*
X233079970Y-141608749D01*
X233083861Y-141609204D01*
X233341700Y-141658682D01*
X233344161Y-141659332D01*
X233345943Y-141659625D01*
X233348627Y-141659500D01*
X233351203Y-141659494D01*
X233355379Y-141658918D01*
X233616710Y-141642765D01*
X233618813Y-141642780D01*
X233619179Y-141642736D01*
X233621103Y-141642562D01*
X233622937Y-141642017D01*
X233623348Y-141641908D01*
X233625292Y-141641116D01*
X233873556Y-141559625D01*
X233877083Y-141558777D01*
X233881976Y-141556931D01*
X233883266Y-141556479D01*
X233884548Y-141555711D01*
X233888182Y-141553661D01*
X233891235Y-141551395D01*
X234108558Y-141414283D01*
X234112181Y-141412351D01*
X234114786Y-141410491D01*
X234116353Y-141409446D01*
X234117679Y-141408103D01*
X234120170Y-141405733D01*
X234122725Y-141402573D01*
X234298916Y-141215196D01*
X234302162Y-141212229D01*
X234303590Y-141210502D01*
X234305510Y-141208391D01*
X234306940Y-141205908D01*
X234308067Y-141204145D01*
X234309925Y-141200073D01*
X234407208Y-141023057D01*
X234407217Y-141023049D01*
X234434014Y-140974286D01*
X234436275Y-140970805D01*
X234437600Y-140968019D01*
X234438551Y-140966183D01*
X234439113Y-140964181D01*
X234439959Y-140961529D01*
X234440690Y-140957451D01*
X234504191Y-140708123D01*
X234505407Y-140704502D01*
X234506210Y-140700528D01*
X234506552Y-140699033D01*
X234506597Y-140697459D01*
X234506642Y-140696650D01*
X234506500Y-140694617D01*
X234506500Y-140431844D01*
X234506770Y-140428037D01*
X234506582Y-140424387D01*
X234506545Y-140422954D01*
X234506236Y-140421575D01*
X234505512Y-140417932D01*
X234504285Y-140414239D01*
X234497009Y-140385671D01*
X234440667Y-140164453D01*
X234439974Y-140160602D01*
X234438976Y-140157413D01*
X234438524Y-140155808D01*
X234437767Y-140154320D01*
X234437488Y-140153731D01*
X234436358Y-140151974D01*
X234309752Y-139921608D01*
X234308025Y-139917850D01*
X234306577Y-139915550D01*
X234305473Y-139913645D01*
X234304011Y-139912004D01*
X234303966Y-139911949D01*
X234302376Y-139910478D01*
X234119207Y-139715679D01*
X234117866Y-139714048D01*
X234116430Y-139712598D01*
X234114760Y-139711477D01*
X234114405Y-139711221D01*
X234112517Y-139710209D01*
X233886929Y-139567882D01*
X233885531Y-139566858D01*
X233883211Y-139565529D01*
X233877697Y-139563469D01*
X233874443Y-139562660D01*
X233715295Y-139510421D01*
X233624904Y-139480751D01*
X233623149Y-139480049D01*
X233621094Y-139479493D01*
X233619080Y-139479258D01*
X233617175Y-139479258D01*
X233350280Y-139462761D01*
X233348324Y-139462506D01*
X233347469Y-139462500D01*
X233345933Y-139462447D01*
X233344337Y-139462695D01*
X233344120Y-139462722D01*
X233342140Y-139463229D01*
X233336814Y-139464250D01*
X233336803Y-139464254D01*
X233078762Y-139513769D01*
X233076841Y-139514014D01*
X233076156Y-139514186D01*
X233075016Y-139514442D01*
X233074976Y-139514461D01*
X233072897Y-139515296D01*
X233071164Y-139516250D01*
X232829517Y-139629790D01*
X232827694Y-139630504D01*
X232825731Y-139631559D01*
X232823963Y-139632863D01*
X232822532Y-139634212D01*
X232615803Y-139805035D01*
X232614234Y-139806170D01*
X232612632Y-139807646D01*
X232611205Y-139809410D01*
X232610191Y-139811017D01*
X232452889Y-140027543D01*
X232451701Y-140028980D01*
X232450550Y-140030750D01*
X232449482Y-140033138D01*
X232448940Y-140034851D01*
X232351029Y-140283024D01*
X232350207Y-140284767D01*
X232349506Y-140286868D01*
X232349123Y-140288946D01*
X232349000Y-140290881D01*
X232315002Y-140557033D01*
X232314627Y-140558984D01*
X232314490Y-140561004D01*
X231124499Y-140561004D01*
X231124499Y-140521128D01*
X231118091Y-140461517D01*
X231113937Y-140450380D01*
X231067797Y-140326671D01*
X231067793Y-140326664D01*
X230981547Y-140211455D01*
X230981544Y-140211452D01*
X230866335Y-140125206D01*
X230866328Y-140125202D01*
X230731482Y-140074908D01*
X230731483Y-140074908D01*
X230671883Y-140068501D01*
X230671881Y-140068500D01*
X230671873Y-140068500D01*
X230671864Y-140068500D01*
X229576129Y-140068500D01*
X229576123Y-140068501D01*
X229516516Y-140074908D01*
X229381671Y-140125202D01*
X229381669Y-140125203D01*
X229348310Y-140150176D01*
X229282845Y-140174592D01*
X229214572Y-140159740D01*
X229199690Y-140150176D01*
X229166330Y-140125203D01*
X229166328Y-140125202D01*
X229031482Y-140074908D01*
X229031483Y-140074908D01*
X228971883Y-140068501D01*
X228971881Y-140068500D01*
X228971873Y-140068500D01*
X228971864Y-140068500D01*
X227876129Y-140068500D01*
X227876123Y-140068501D01*
X227816516Y-140074908D01*
X227681671Y-140125202D01*
X227681664Y-140125206D01*
X227566455Y-140211452D01*
X227566452Y-140211455D01*
X227480206Y-140326664D01*
X227480202Y-140326671D01*
X227429908Y-140461517D01*
X227423501Y-140521116D01*
X227423501Y-140521123D01*
X227423500Y-140521135D01*
X227423500Y-142066870D01*
X220044500Y-142066870D01*
X220044499Y-140580128D01*
X220039299Y-140531757D01*
X220038091Y-140520516D01*
X219987797Y-140385671D01*
X219987793Y-140385664D01*
X219901547Y-140270455D01*
X219901544Y-140270452D01*
X219786335Y-140184206D01*
X219786328Y-140184202D01*
X219651482Y-140133908D01*
X219651483Y-140133908D01*
X219591883Y-140127501D01*
X219591881Y-140127500D01*
X219591873Y-140127500D01*
X219591865Y-140127500D01*
X219443500Y-140127500D01*
X219376461Y-140107815D01*
X219330706Y-140055011D01*
X219319500Y-140003500D01*
X219319500Y-137785742D01*
X219321224Y-137770122D01*
X219320939Y-137770095D01*
X219321673Y-137762333D01*
X219319799Y-137702673D01*
X219319500Y-137693171D01*
X219319500Y-137663650D01*
X219318631Y-137656779D01*
X219318173Y-137650952D01*
X219317771Y-137638161D01*
X219316710Y-137604373D01*
X219311119Y-137585130D01*
X219307173Y-137566078D01*
X219304664Y-137546208D01*
X219287504Y-137502867D01*
X219285624Y-137497379D01*
X219272618Y-137452610D01*
X219270252Y-137448610D01*
X219262423Y-137435371D01*
X219253861Y-137417894D01*
X219246487Y-137399270D01*
X219243685Y-137395413D01*
X219219079Y-137361545D01*
X219215888Y-137356686D01*
X219215252Y-137355611D01*
X219192170Y-137316580D01*
X219192168Y-137316578D01*
X219192165Y-137316574D01*
X219178006Y-137302415D01*
X219165368Y-137287619D01*
X219153594Y-137271413D01*
X219137409Y-137258024D01*
X219117688Y-137241709D01*
X219113376Y-137237786D01*
X217753590Y-135878000D01*
X219464001Y-135878000D01*
X219464001Y-136585607D01*
X219466917Y-136628632D01*
X219466917Y-136628634D01*
X219513165Y-136814602D01*
X219598307Y-136986275D01*
X219718365Y-137135633D01*
X219718366Y-137135634D01*
X219867725Y-137255692D01*
X219867724Y-137255692D01*
X220039397Y-137340834D01*
X220225361Y-137387081D01*
X220225358Y-137387081D01*
X220268391Y-137389999D01*
X220475999Y-137389999D01*
X220476000Y-137389998D01*
X220476000Y-135878000D01*
X219464001Y-135878000D01*
X217753590Y-135878000D01*
X215963326Y-134087735D01*
X215929841Y-134026412D01*
X215934825Y-133956720D01*
X215949429Y-133928934D01*
X216058035Y-133773830D01*
X216157903Y-133559663D01*
X216219063Y-133331408D01*
X216239659Y-133096000D01*
X216236642Y-133061522D01*
X216234487Y-133036887D01*
X220164416Y-133036887D01*
X220164459Y-133060999D01*
X220164500Y-133061097D01*
X220164616Y-133061380D01*
X220164618Y-133061382D01*
X220164808Y-133061460D01*
X220165000Y-133061539D01*
X220165002Y-133061537D01*
X220189616Y-133061522D01*
X220189616Y-133061526D01*
X220189760Y-133061498D01*
X225140240Y-133061498D01*
X225140383Y-133061526D01*
X225140384Y-133061522D01*
X225164997Y-133061537D01*
X225165000Y-133061539D01*
X225165383Y-133061381D01*
X225165500Y-133061097D01*
X225165541Y-133060998D01*
X225165540Y-133060995D01*
X225165583Y-133036888D01*
X225165500Y-133036470D01*
X225165500Y-130752901D01*
X225165500Y-130752900D01*
X225165500Y-128085756D01*
X225165528Y-128085614D01*
X225165524Y-128085614D01*
X225165539Y-128061000D01*
X225165541Y-128060998D01*
X225165462Y-128060806D01*
X225165384Y-128060616D01*
X225165382Y-128060614D01*
X225165099Y-128060498D01*
X225165000Y-128060457D01*
X225140446Y-128060457D01*
X225140240Y-128060498D01*
X220189760Y-128060498D01*
X220189554Y-128060457D01*
X220165000Y-128060457D01*
X220164901Y-128060498D01*
X220164617Y-128060614D01*
X220164615Y-128060616D01*
X220164459Y-128060997D01*
X220164476Y-128085614D01*
X220164471Y-128085614D01*
X220164500Y-128085757D01*
X220164500Y-133036465D01*
X220164416Y-133036887D01*
X216234487Y-133036887D01*
X216225937Y-132939166D01*
X216219063Y-132860592D01*
X216157903Y-132632337D01*
X216117582Y-132545870D01*
X216103418Y-132515495D01*
X216092926Y-132446418D01*
X216120254Y-132384052D01*
X216124685Y-132378695D01*
X216124687Y-132378694D01*
X216154399Y-132342776D01*
X216158312Y-132338476D01*
X216477985Y-132018803D01*
X216490241Y-132008987D01*
X216490058Y-132008765D01*
X216496075Y-132003787D01*
X216496074Y-132003787D01*
X216496077Y-132003786D01*
X216520451Y-131977829D01*
X216543427Y-131953364D01*
X216553871Y-131942918D01*
X216564320Y-131932471D01*
X216568579Y-131926978D01*
X216572352Y-131922561D01*
X216604262Y-131888582D01*
X216613915Y-131871020D01*
X216624589Y-131854770D01*
X216636873Y-131838936D01*
X216655380Y-131796167D01*
X216657949Y-131790924D01*
X216660153Y-131786913D01*
X216680397Y-131750092D01*
X216685377Y-131730691D01*
X216691678Y-131712288D01*
X216699638Y-131693896D01*
X216706930Y-131647849D01*
X216708111Y-131642152D01*
X216719700Y-131597019D01*
X216719700Y-131576982D01*
X216721227Y-131557582D01*
X216724360Y-131537804D01*
X216719975Y-131491415D01*
X216719700Y-131485577D01*
X216719700Y-130845998D01*
X216739385Y-130778959D01*
X216792189Y-130733204D01*
X216861347Y-130723260D01*
X216924903Y-130752285D01*
X216958478Y-130799072D01*
X217013077Y-130932617D01*
X217013761Y-130934636D01*
X217013887Y-130934892D01*
X217014551Y-130936335D01*
X217015447Y-130937591D01*
X217016820Y-130939167D01*
X217132035Y-131087985D01*
X217133305Y-131089875D01*
X217134575Y-131091421D01*
X217136362Y-131092872D01*
X217136370Y-131092879D01*
X217138143Y-131094063D01*
X217286558Y-131208966D01*
X217288188Y-131210402D01*
X217288254Y-131210446D01*
X217289738Y-131211504D01*
X217291419Y-131212263D01*
X217293433Y-131212943D01*
X217376183Y-131246773D01*
X217466905Y-131283863D01*
X217469065Y-131284920D01*
X217470890Y-131285607D01*
X217472633Y-131285884D01*
X217475071Y-131286046D01*
X217660812Y-131310940D01*
X217663640Y-131311513D01*
X217665068Y-131311659D01*
X217666300Y-131311524D01*
X217669170Y-131310943D01*
X217849901Y-131286719D01*
X217854314Y-131286458D01*
X217856628Y-131285993D01*
X217859219Y-131285584D01*
X217861686Y-131284635D01*
X217863618Y-131283987D01*
X217867525Y-131282051D01*
X218023789Y-131218166D01*
X218036237Y-131213076D01*
X218038726Y-131212252D01*
X218040389Y-131211512D01*
X218041304Y-131210848D01*
X218043433Y-131208974D01*
X218043443Y-131208966D01*
X218188050Y-131097009D01*
X218191821Y-131094510D01*
X218193069Y-131093399D01*
X218195471Y-131091466D01*
X218197404Y-131089064D01*
X218198517Y-131087814D01*
X218201017Y-131084042D01*
X218212378Y-131069367D01*
X218312789Y-130939667D01*
X218314389Y-130937869D01*
X218315545Y-130936280D01*
X218316179Y-130934868D01*
X218316993Y-130932442D01*
X218352335Y-130845998D01*
X218386001Y-130763652D01*
X218387879Y-130759878D01*
X218388791Y-130757197D01*
X218389568Y-130755160D01*
X218389907Y-130753017D01*
X218390478Y-130750092D01*
X218390729Y-130745881D01*
X218392251Y-130734555D01*
X218392251Y-130734497D01*
X218414295Y-130570014D01*
X218415230Y-130565533D01*
X218415327Y-130563975D01*
X218415663Y-130560948D01*
X218415538Y-130559750D01*
X218414942Y-130556807D01*
X218390725Y-130376111D01*
X218390477Y-130371900D01*
X218389928Y-130369087D01*
X218389576Y-130366837D01*
X218388767Y-130364707D01*
X218387966Y-130362328D01*
X218386059Y-130358483D01*
X218316952Y-130189453D01*
X218316270Y-130187430D01*
X218315504Y-130185736D01*
X218314446Y-130184252D01*
X218314402Y-130184186D01*
X218312966Y-130182556D01*
X218296649Y-130161480D01*
X218272496Y-130130281D01*
X218200949Y-130037865D01*
X218198848Y-130034701D01*
X218196249Y-130031671D01*
X218195364Y-130030588D01*
X218194240Y-130029657D01*
X218193734Y-130029214D01*
X218192035Y-130028070D01*
X218043174Y-129912821D01*
X218041594Y-129911444D01*
X218040337Y-129910548D01*
X218038894Y-129909884D01*
X218038645Y-129909761D01*
X218036621Y-129909076D01*
X217862976Y-129838084D01*
X217861179Y-129837207D01*
X217860643Y-129837024D01*
X217859177Y-129836475D01*
X217857702Y-129836226D01*
X217856987Y-129836086D01*
X217854929Y-129835949D01*
X217668760Y-129810996D01*
X217666699Y-129810594D01*
X217665032Y-129810432D01*
X217663329Y-129810588D01*
X217661236Y-129810997D01*
X217540532Y-129827175D01*
X217475069Y-129835949D01*
X217473109Y-129836079D01*
X217470858Y-129836507D01*
X217468791Y-129837221D01*
X217467012Y-129838089D01*
X217431966Y-129852417D01*
X217293280Y-129909115D01*
X217291382Y-129909761D01*
X217289749Y-129910550D01*
X217288552Y-129911353D01*
X217287079Y-129912624D01*
X217137830Y-130028174D01*
X217136158Y-130029306D01*
X217135765Y-130029651D01*
X217134609Y-130030608D01*
X217133652Y-130031764D01*
X217133304Y-130032161D01*
X217132178Y-130033823D01*
X217016623Y-130183081D01*
X217015359Y-130184546D01*
X217014553Y-130185747D01*
X217013764Y-130187380D01*
X217013120Y-130189272D01*
X216958478Y-130322923D01*
X216914887Y-130377527D01*
X216848695Y-130399896D01*
X216780917Y-130382928D01*
X216733072Y-130332010D01*
X216719700Y-130275997D01*
X216719700Y-128090800D01*
X216739385Y-128023761D01*
X216792189Y-127978006D01*
X216843700Y-127966800D01*
X218062757Y-127966800D01*
X218078377Y-127968524D01*
X218078404Y-127968239D01*
X218086160Y-127968971D01*
X218086167Y-127968973D01*
X218155314Y-127966800D01*
X218184850Y-127966800D01*
X218191728Y-127965930D01*
X218197541Y-127965472D01*
X218244127Y-127964009D01*
X218263369Y-127958417D01*
X218282412Y-127954474D01*
X218302292Y-127951964D01*
X218345622Y-127934807D01*
X218351146Y-127932917D01*
X218354896Y-127931827D01*
X218395890Y-127919918D01*
X218413129Y-127909722D01*
X218430603Y-127901162D01*
X218449227Y-127893788D01*
X218449227Y-127893787D01*
X218449232Y-127893786D01*
X218486949Y-127866382D01*
X218491805Y-127863192D01*
X218531920Y-127839470D01*
X218546089Y-127825299D01*
X218560879Y-127812668D01*
X218577087Y-127800894D01*
X218606799Y-127764976D01*
X218610712Y-127760676D01*
X218975505Y-127395883D01*
X219036827Y-127362400D01*
X219106519Y-127367384D01*
X219118279Y-127372478D01*
X219199298Y-127412659D01*
X219277225Y-127451307D01*
X219415598Y-127485719D01*
X219463291Y-127497580D01*
X219463292Y-127497580D01*
X219463296Y-127497581D01*
X219502336Y-127500228D01*
X219506342Y-127500500D01*
X219506342Y-127500499D01*
X219506343Y-127500500D01*
X220421656Y-127500499D01*
X220421657Y-127500499D01*
X220432417Y-127499769D01*
X220464704Y-127497581D01*
X220650775Y-127451307D01*
X220822547Y-127366116D01*
X220971990Y-127245990D01*
X221092116Y-127096547D01*
X221122911Y-127034453D01*
X221170333Y-126983140D01*
X221237968Y-126965610D01*
X221304343Y-126987430D01*
X221345088Y-127034453D01*
X221375881Y-127096543D01*
X221375883Y-127096546D01*
X221496009Y-127245989D01*
X221496010Y-127245990D01*
X221645453Y-127366116D01*
X221645456Y-127366118D01*
X221739298Y-127412659D01*
X221817225Y-127451307D01*
X221955598Y-127485719D01*
X222003291Y-127497580D01*
X222003292Y-127497580D01*
X222003296Y-127497581D01*
X222042336Y-127500228D01*
X222046342Y-127500500D01*
X222046342Y-127500499D01*
X222046343Y-127500500D01*
X222961656Y-127500499D01*
X222961657Y-127500499D01*
X222972417Y-127499769D01*
X223004704Y-127497581D01*
X223190775Y-127451307D01*
X223362547Y-127366116D01*
X223511990Y-127245990D01*
X223632116Y-127096547D01*
X223662911Y-127034453D01*
X223710333Y-126983140D01*
X223777968Y-126965610D01*
X223844343Y-126987430D01*
X223885088Y-127034453D01*
X223915881Y-127096543D01*
X223915883Y-127096546D01*
X224036009Y-127245989D01*
X224036010Y-127245990D01*
X224185453Y-127366116D01*
X224185456Y-127366118D01*
X224279298Y-127412659D01*
X224357225Y-127451307D01*
X224495598Y-127485719D01*
X224543291Y-127497580D01*
X224543292Y-127497580D01*
X224543296Y-127497581D01*
X224582336Y-127500228D01*
X224586342Y-127500500D01*
X224586342Y-127500499D01*
X224586343Y-127500500D01*
X225444300Y-127500499D01*
X225511339Y-127520183D01*
X225557094Y-127572987D01*
X225568300Y-127624499D01*
X225568300Y-133413747D01*
X225548615Y-133480786D01*
X225531981Y-133501428D01*
X225204227Y-133829181D01*
X225142904Y-133862666D01*
X225116546Y-133865500D01*
X224332344Y-133865501D01*
X224332343Y-133865501D01*
X224289298Y-133868418D01*
X224289297Y-133868418D01*
X224103221Y-133914694D01*
X224103220Y-133914694D01*
X223960480Y-133985487D01*
X223891675Y-133997639D01*
X223831075Y-133973666D01*
X223762330Y-133922203D01*
X223762328Y-133922202D01*
X223627482Y-133871908D01*
X223627483Y-133871908D01*
X223567883Y-133865501D01*
X223567881Y-133865500D01*
X223567873Y-133865500D01*
X223567864Y-133865500D01*
X221948129Y-133865500D01*
X221948123Y-133865501D01*
X221888516Y-133871908D01*
X221753671Y-133922202D01*
X221753669Y-133922203D01*
X221684476Y-133974002D01*
X221619012Y-133998419D01*
X221555070Y-133985823D01*
X221412602Y-133915165D01*
X221226638Y-133868918D01*
X221226641Y-133868918D01*
X221183608Y-133866000D01*
X220976000Y-133866000D01*
X220976000Y-134637325D01*
X220956315Y-134704364D01*
X220903511Y-134750119D01*
X220834353Y-134760063D01*
X220811739Y-134754607D01*
X220789580Y-134747000D01*
X220789578Y-134747000D01*
X220694431Y-134747000D01*
X220694430Y-134747000D01*
X220620408Y-134759351D01*
X220551043Y-134750968D01*
X220497222Y-134706415D01*
X220476031Y-134639836D01*
X220476000Y-134637042D01*
X220475999Y-133866000D01*
X220268394Y-133866001D01*
X220225366Y-133868917D01*
X220225365Y-133868917D01*
X220039397Y-133915165D01*
X219867724Y-134000307D01*
X219718366Y-134120365D01*
X219718365Y-134120366D01*
X219598307Y-134269724D01*
X219513165Y-134441397D01*
X219466918Y-134627359D01*
X219464000Y-134670392D01*
X219464000Y-135378000D01*
X220384324Y-135378000D01*
X220451363Y-135397685D01*
X220460486Y-135404146D01*
X220542157Y-135467713D01*
X220542158Y-135467713D01*
X220542159Y-135467714D01*
X220662420Y-135509000D01*
X220662422Y-135509000D01*
X220757568Y-135509000D01*
X220757569Y-135509000D01*
X220831590Y-135496648D01*
X220900956Y-135505030D01*
X220954778Y-135549583D01*
X220975968Y-135616162D01*
X220976000Y-135618957D01*
X220976000Y-137389999D01*
X221183607Y-137389999D01*
X221226632Y-137387082D01*
X221226634Y-137387082D01*
X221412602Y-137340834D01*
X221555070Y-137270176D01*
X221623875Y-137258024D01*
X221684474Y-137281997D01*
X221753669Y-137333796D01*
X221753670Y-137333796D01*
X221753673Y-137333798D01*
X221812157Y-137355611D01*
X221868091Y-137397482D01*
X221892509Y-137462946D01*
X221877658Y-137531219D01*
X221860976Y-137554764D01*
X221812066Y-137609085D01*
X221717421Y-137773015D01*
X221717418Y-137773022D01*
X221658927Y-137953040D01*
X221658926Y-137953044D01*
X221639140Y-138141300D01*
X221658926Y-138329556D01*
X221658927Y-138329559D01*
X221717418Y-138509577D01*
X221717421Y-138509584D01*
X221812067Y-138673516D01*
X221878626Y-138747437D01*
X221938729Y-138814188D01*
X222091865Y-138925448D01*
X222091870Y-138925451D01*
X222264791Y-139002442D01*
X222264794Y-139002442D01*
X222264797Y-139002444D01*
X222289920Y-139007784D01*
X222301272Y-139010197D01*
X222362754Y-139043389D01*
X222396531Y-139104552D01*
X222391879Y-139174266D01*
X222382225Y-139194607D01*
X222335504Y-139273608D01*
X222335504Y-139273609D01*
X222290357Y-139429002D01*
X222290356Y-139429008D01*
X222287500Y-139465308D01*
X222287500Y-139934692D01*
X222290356Y-139970991D01*
X222290357Y-139970997D01*
X222335504Y-140126390D01*
X222335505Y-140126393D01*
X222335506Y-140126395D01*
X222351675Y-140153735D01*
X222417881Y-140265684D01*
X222417887Y-140265692D01*
X222532307Y-140380112D01*
X222532311Y-140380115D01*
X222532313Y-140380117D01*
X222671605Y-140462494D01*
X222712587Y-140474400D01*
X222827002Y-140507642D01*
X222827005Y-140507642D01*
X222827007Y-140507643D01*
X222839107Y-140508595D01*
X222863308Y-140510500D01*
X222863310Y-140510500D01*
X223272692Y-140510500D01*
X223290841Y-140509071D01*
X223308993Y-140507643D01*
X223308995Y-140507642D01*
X223308997Y-140507642D01*
X223349975Y-140495736D01*
X223464395Y-140462494D01*
X223484879Y-140450379D01*
X223552601Y-140433196D01*
X223611119Y-140450379D01*
X223631605Y-140462494D01*
X223631607Y-140462494D01*
X223631608Y-140462495D01*
X223787002Y-140507642D01*
X223787005Y-140507642D01*
X223787007Y-140507643D01*
X223799107Y-140508595D01*
X223823308Y-140510500D01*
X223823310Y-140510500D01*
X224232692Y-140510500D01*
X224250841Y-140509071D01*
X224268993Y-140507643D01*
X224268995Y-140507642D01*
X224268997Y-140507642D01*
X224309975Y-140495736D01*
X224424395Y-140462494D01*
X224563687Y-140380117D01*
X224678117Y-140265687D01*
X224760494Y-140126395D01*
X224799904Y-139990747D01*
X224805642Y-139970997D01*
X224805643Y-139970991D01*
X224808500Y-139934692D01*
X224808500Y-139855451D01*
X224828185Y-139788412D01*
X224844815Y-139767774D01*
X225173786Y-139438802D01*
X225186048Y-139428980D01*
X225185865Y-139428759D01*
X225191867Y-139423792D01*
X225191877Y-139423786D01*
X225239241Y-139373348D01*
X225260120Y-139352470D01*
X225264373Y-139346986D01*
X225268150Y-139342563D01*
X225300062Y-139308582D01*
X225309714Y-139291023D01*
X225320389Y-139274772D01*
X225332674Y-139258936D01*
X225351186Y-139216152D01*
X225353742Y-139210935D01*
X225376197Y-139170092D01*
X225381180Y-139150680D01*
X225387477Y-139132291D01*
X225395438Y-139113895D01*
X225402729Y-139067853D01*
X225403906Y-139062166D01*
X225415500Y-139017019D01*
X225415499Y-138996986D01*
X225417027Y-138977583D01*
X225420159Y-138957808D01*
X225420160Y-138957806D01*
X225415775Y-138911415D01*
X225415500Y-138905577D01*
X225415500Y-137448610D01*
X225435185Y-137381571D01*
X225484405Y-137337522D01*
X225648547Y-137256116D01*
X225797990Y-137135990D01*
X225918116Y-136986547D01*
X226003307Y-136814775D01*
X226049581Y-136628704D01*
X226052500Y-136585657D01*
X226052499Y-134801451D01*
X226072184Y-134734413D01*
X226088813Y-134713776D01*
X226577588Y-134225001D01*
X226589842Y-134215186D01*
X226589659Y-134214964D01*
X226595666Y-134209992D01*
X226595677Y-134209986D01*
X226626575Y-134177082D01*
X226643027Y-134159564D01*
X226653471Y-134149118D01*
X226663920Y-134138671D01*
X226668179Y-134133178D01*
X226671952Y-134128761D01*
X226703862Y-134094782D01*
X226713515Y-134077220D01*
X226724189Y-134060970D01*
X226736473Y-134045136D01*
X226754980Y-134002367D01*
X226757549Y-133997124D01*
X226763762Y-133985823D01*
X226779997Y-133956292D01*
X226784977Y-133936891D01*
X226791278Y-133918488D01*
X226799238Y-133900096D01*
X226806530Y-133854049D01*
X226807711Y-133848352D01*
X226819300Y-133803219D01*
X226819300Y-133783183D01*
X226820827Y-133763782D01*
X226822647Y-133752291D01*
X226823960Y-133744004D01*
X226819575Y-133697615D01*
X226819300Y-133691777D01*
X226819300Y-131046762D01*
X226838985Y-130979723D01*
X226891789Y-130933968D01*
X226960947Y-130924024D01*
X227024503Y-130953049D01*
X227041348Y-130970851D01*
X227132077Y-131088038D01*
X227133222Y-131089737D01*
X227133662Y-131090241D01*
X227134605Y-131091379D01*
X227135773Y-131092337D01*
X227136455Y-131092927D01*
X227138095Y-131094025D01*
X227170390Y-131119028D01*
X227181752Y-131127825D01*
X227182618Y-131128495D01*
X227286836Y-131209183D01*
X227288659Y-131210772D01*
X227289646Y-131211475D01*
X227291561Y-131212333D01*
X227291573Y-131212339D01*
X227293642Y-131213028D01*
X227466916Y-131283867D01*
X227469075Y-131284924D01*
X227470890Y-131285607D01*
X227472634Y-131285884D01*
X227475072Y-131286046D01*
X227660824Y-131310942D01*
X227663663Y-131311517D01*
X227664999Y-131311658D01*
X227666333Y-131311517D01*
X227669167Y-131310943D01*
X227849901Y-131286719D01*
X227854314Y-131286458D01*
X227856628Y-131285993D01*
X227859219Y-131285584D01*
X227861686Y-131284635D01*
X227863618Y-131283987D01*
X227867525Y-131282051D01*
X228023789Y-131218166D01*
X228036237Y-131213076D01*
X228038726Y-131212252D01*
X228040389Y-131211512D01*
X228041304Y-131210848D01*
X228043433Y-131208974D01*
X228188131Y-131096946D01*
X228191662Y-131094601D01*
X228193635Y-131092871D01*
X228195421Y-131091419D01*
X228196873Y-131089633D01*
X228198601Y-131087663D01*
X228200942Y-131084136D01*
X228285252Y-130975239D01*
X228341857Y-130934282D01*
X228411621Y-130930429D01*
X228472393Y-130964905D01*
X228504878Y-131026764D01*
X228507300Y-131051152D01*
X228507300Y-134794500D01*
X228487615Y-134861539D01*
X228434811Y-134907294D01*
X228383300Y-134918500D01*
X227876129Y-134918500D01*
X227876123Y-134918501D01*
X227816516Y-134924908D01*
X227681671Y-134975202D01*
X227681664Y-134975206D01*
X227566455Y-135061452D01*
X227566452Y-135061455D01*
X227480206Y-135176664D01*
X227480202Y-135176671D01*
X227429908Y-135311517D01*
X227426925Y-135339269D01*
X227423501Y-135371123D01*
X227423500Y-135371135D01*
X227423500Y-136916870D01*
X227423501Y-136916876D01*
X227429908Y-136976483D01*
X227480202Y-137111328D01*
X227480206Y-137111335D01*
X227566452Y-137226544D01*
X227566455Y-137226547D01*
X227681664Y-137312793D01*
X227681669Y-137312796D01*
X227717832Y-137326284D01*
X227773766Y-137368154D01*
X227798184Y-137433618D01*
X227798500Y-137442466D01*
X227798500Y-137561556D01*
X227778815Y-137628595D01*
X227747385Y-137661874D01*
X227656629Y-137727811D01*
X227529966Y-137868485D01*
X227435321Y-138032415D01*
X227435318Y-138032422D01*
X227381359Y-138198493D01*
X227376826Y-138212444D01*
X227357040Y-138400700D01*
X227376826Y-138588956D01*
X227376827Y-138588959D01*
X227435318Y-138768977D01*
X227435321Y-138768984D01*
X227529967Y-138932916D01*
X227648880Y-139064982D01*
X227656629Y-139073588D01*
X227809765Y-139184848D01*
X227809770Y-139184851D01*
X227982692Y-139261842D01*
X227982697Y-139261844D01*
X228167854Y-139301200D01*
X228167855Y-139301200D01*
X228357144Y-139301200D01*
X228357146Y-139301200D01*
X228542303Y-139261844D01*
X228715230Y-139184851D01*
X228868371Y-139073588D01*
X228995033Y-138932916D01*
X229089679Y-138768984D01*
X229148174Y-138588956D01*
X229167960Y-138400700D01*
X229148174Y-138212444D01*
X229089679Y-138032416D01*
X229089093Y-138031401D01*
X229066113Y-137991597D01*
X229049500Y-137929597D01*
X229049500Y-137442466D01*
X229069185Y-137375427D01*
X229121989Y-137329672D01*
X229130156Y-137326288D01*
X229166331Y-137312796D01*
X229199689Y-137287823D01*
X229265151Y-137263406D01*
X229333425Y-137278257D01*
X229348305Y-137287820D01*
X229381669Y-137312796D01*
X229381670Y-137312796D01*
X229381670Y-137312797D01*
X229516517Y-137363091D01*
X229516516Y-137363091D01*
X229523444Y-137363835D01*
X229576127Y-137369500D01*
X230671872Y-137369499D01*
X230731483Y-137363091D01*
X230866331Y-137312796D01*
X230981546Y-137226546D01*
X231067796Y-137111331D01*
X231118091Y-136976483D01*
X231124500Y-136916873D01*
X231124500Y-136893500D01*
X231144185Y-136826461D01*
X231196989Y-136780706D01*
X231248500Y-136769500D01*
X232192648Y-136769500D01*
X232259687Y-136789185D01*
X232280329Y-136805819D01*
X233018297Y-137543788D01*
X233028122Y-137556051D01*
X233028343Y-137555869D01*
X233033314Y-137561878D01*
X233058080Y-137585134D01*
X233083735Y-137609226D01*
X233104629Y-137630120D01*
X233110111Y-137634373D01*
X233114543Y-137638157D01*
X233148518Y-137670062D01*
X233166076Y-137679714D01*
X233182333Y-137690393D01*
X233198164Y-137702673D01*
X233217837Y-137711186D01*
X233240933Y-137721182D01*
X233246177Y-137723750D01*
X233287008Y-137746197D01*
X233299623Y-137749435D01*
X233306405Y-137751177D01*
X233324819Y-137757481D01*
X233343204Y-137765438D01*
X233389257Y-137772732D01*
X233394926Y-137773906D01*
X233440081Y-137785500D01*
X233440084Y-137785500D01*
X233447639Y-137787440D01*
X233446975Y-137790025D01*
X233499214Y-137812792D01*
X233521230Y-137836780D01*
X233521964Y-137837829D01*
X233521965Y-137837830D01*
X233657505Y-138031401D01*
X233824599Y-138198495D01*
X233874039Y-138233113D01*
X234018165Y-138334032D01*
X234018167Y-138334033D01*
X234018170Y-138334035D01*
X234232337Y-138433903D01*
X234460592Y-138495063D01*
X234626484Y-138509577D01*
X234695999Y-138515659D01*
X234696000Y-138515659D01*
X234696001Y-138515659D01*
X234735234Y-138512226D01*
X234931408Y-138495063D01*
X235159663Y-138433903D01*
X235373830Y-138334035D01*
X235567401Y-138198495D01*
X235734495Y-138031401D01*
X235870035Y-137837830D01*
X235969903Y-137623663D01*
X236031063Y-137395408D01*
X236051659Y-137160000D01*
X236031063Y-136924592D01*
X235969903Y-136696337D01*
X235870035Y-136482171D01*
X235740384Y-136297010D01*
X235734496Y-136288600D01*
X235709421Y-136263525D01*
X235612567Y-136166671D01*
X235579084Y-136105351D01*
X235584068Y-136035659D01*
X235625939Y-135979725D01*
X235656915Y-135962810D01*
X235788331Y-135913796D01*
X235903546Y-135827546D01*
X235935293Y-135785136D01*
X235995112Y-135705231D01*
X235997135Y-135706745D01*
X236037076Y-135666791D01*
X236105346Y-135651926D01*
X236170815Y-135676331D01*
X236172064Y-135677279D01*
X236366105Y-135826541D01*
X236407239Y-135883017D01*
X236414500Y-135924825D01*
X236414500Y-140558530D01*
X236414308Y-140563408D01*
X236378271Y-141020199D01*
X236375226Y-141039405D01*
X236269796Y-141478381D01*
X236263803Y-141496835D01*
X236091304Y-141913702D01*
X236082422Y-141931131D01*
X235846691Y-142315390D01*
X235835254Y-142331117D01*
X235541953Y-142674262D01*
X235528263Y-142687952D01*
X235374748Y-142819168D01*
X235374749Y-142819168D01*
X235309067Y-142875309D01*
X235185114Y-142981258D01*
X235169385Y-142992696D01*
X235063865Y-143057426D01*
X235063860Y-143057431D01*
X234785136Y-143228420D01*
X234767706Y-143237302D01*
X234350831Y-143409801D01*
X234332377Y-143415794D01*
X233893406Y-143521221D01*
X233874202Y-143524266D01*
X233417410Y-143560306D01*
X233412531Y-143560498D01*
X211917469Y-143560498D01*
X211912591Y-143560306D01*
X211455796Y-143524266D01*
X211436592Y-143521221D01*
X210997618Y-143415794D01*
X210979164Y-143409801D01*
X210785784Y-143329783D01*
X210785780Y-143329781D01*
X210562287Y-143237300D01*
X210544858Y-143228418D01*
X210160607Y-142992693D01*
X210144880Y-142981256D01*
X209801735Y-142687954D01*
X209788044Y-142674263D01*
X209655760Y-142519499D01*
X209494741Y-142331116D01*
X209483305Y-142315390D01*
X209367417Y-142126483D01*
X209247575Y-141931131D01*
X209238698Y-141913712D01*
X209066192Y-141496826D01*
X209060203Y-141478381D01*
X208954772Y-141039404D01*
X208951728Y-141020199D01*
X208948546Y-140979870D01*
X208915691Y-140563407D01*
X208915597Y-140561002D01*
X210814488Y-140561002D01*
X210814643Y-140563166D01*
X210815016Y-140565087D01*
X210848998Y-140831113D01*
X210849126Y-140833139D01*
X210849219Y-140833625D01*
X210849461Y-140835119D01*
X210849971Y-140836516D01*
X210850279Y-140837436D01*
X210851116Y-140839192D01*
X210915575Y-141002575D01*
X210915584Y-141002594D01*
X210948986Y-141087260D01*
X210949607Y-141089208D01*
X210949981Y-141090015D01*
X210950537Y-141091294D01*
X210951369Y-141092509D01*
X210951799Y-141093174D01*
X210953057Y-141094682D01*
X211110058Y-141310798D01*
X211111160Y-141312557D01*
X211111519Y-141312995D01*
X211112578Y-141314369D01*
X211113878Y-141315502D01*
X211116265Y-141317709D01*
X211119508Y-141320023D01*
X211322557Y-141487804D01*
X211324062Y-141489221D01*
X211324223Y-141489338D01*
X211325623Y-141490424D01*
X211327065Y-141491145D01*
X211330666Y-141493066D01*
X211334290Y-141494446D01*
X211570837Y-141605592D01*
X211572633Y-141606594D01*
X211573234Y-141606836D01*
X211574802Y-141607520D01*
X211576422Y-141607872D01*
X211579970Y-141608749D01*
X211583861Y-141609204D01*
X211841700Y-141658682D01*
X211844161Y-141659332D01*
X211845943Y-141659625D01*
X211848627Y-141659500D01*
X211851203Y-141659494D01*
X211855379Y-141658918D01*
X212116708Y-141642765D01*
X212118811Y-141642780D01*
X212119177Y-141642736D01*
X212121101Y-141642562D01*
X212122935Y-141642017D01*
X212123352Y-141641907D01*
X212125302Y-141641112D01*
X212373549Y-141559628D01*
X212377082Y-141558778D01*
X212381977Y-141556931D01*
X212383267Y-141556479D01*
X212384549Y-141555711D01*
X212388180Y-141553663D01*
X212391228Y-141551400D01*
X212608063Y-141414595D01*
X212612001Y-141412521D01*
X212614095Y-141411005D01*
X212616455Y-141409453D01*
X212618438Y-141407418D01*
X212619981Y-141405977D01*
X212622766Y-141402530D01*
X212798916Y-141215196D01*
X212802162Y-141212229D01*
X212803590Y-141210502D01*
X212805510Y-141208391D01*
X212806940Y-141205908D01*
X212808068Y-141204144D01*
X212809925Y-141200073D01*
X212867829Y-141094714D01*
X212907210Y-141023057D01*
X212907219Y-141023049D01*
X212934016Y-140974286D01*
X212936277Y-140970805D01*
X212937602Y-140968019D01*
X212938553Y-140966183D01*
X212939115Y-140964181D01*
X212939963Y-140961525D01*
X212940697Y-140957434D01*
X212971258Y-140837436D01*
X213004154Y-140708268D01*
X213005368Y-140704666D01*
X213006219Y-140700480D01*
X213006553Y-140699027D01*
X213006597Y-140697458D01*
X213006642Y-140696649D01*
X213006500Y-140694616D01*
X213006500Y-140431845D01*
X213006770Y-140428038D01*
X213006582Y-140424388D01*
X213006545Y-140422961D01*
X213006244Y-140421621D01*
X213005471Y-140417761D01*
X213004245Y-140414084D01*
X212997009Y-140385671D01*
X212940670Y-140164454D01*
X212939976Y-140160602D01*
X212938978Y-140157413D01*
X212938526Y-140155808D01*
X212937769Y-140154320D01*
X212937491Y-140153735D01*
X212936357Y-140151970D01*
X212871995Y-140034863D01*
X212847389Y-139990091D01*
X212809749Y-139921603D01*
X212808024Y-139917848D01*
X212806577Y-139915550D01*
X212805473Y-139913645D01*
X212804011Y-139912004D01*
X212803968Y-139911952D01*
X212802373Y-139910476D01*
X212708852Y-139811017D01*
X212619365Y-139715848D01*
X212618181Y-139714398D01*
X212616352Y-139712631D01*
X212616350Y-139712629D01*
X212616346Y-139712627D01*
X212616319Y-139712600D01*
X212614481Y-139711294D01*
X212612748Y-139710355D01*
X212386930Y-139567882D01*
X212385532Y-139566858D01*
X212383212Y-139565529D01*
X212377699Y-139563470D01*
X212374450Y-139562662D01*
X212124904Y-139480751D01*
X212123152Y-139480051D01*
X212121092Y-139479493D01*
X212119078Y-139479258D01*
X212117173Y-139479258D01*
X211850280Y-139462761D01*
X211848324Y-139462506D01*
X211847469Y-139462500D01*
X211845933Y-139462447D01*
X211844337Y-139462695D01*
X211844118Y-139462722D01*
X211842140Y-139463229D01*
X211578763Y-139513769D01*
X211576840Y-139514014D01*
X211576156Y-139514186D01*
X211575016Y-139514442D01*
X211574976Y-139514461D01*
X211572897Y-139515296D01*
X211571164Y-139516250D01*
X211329263Y-139629909D01*
X211327549Y-139630589D01*
X211325718Y-139631569D01*
X211323948Y-139632889D01*
X211322603Y-139634153D01*
X211115797Y-139805038D01*
X211114233Y-139806169D01*
X211112630Y-139807646D01*
X211111203Y-139809410D01*
X211110194Y-139811009D01*
X210952886Y-140027546D01*
X210951703Y-140028978D01*
X210950550Y-140030750D01*
X210949481Y-140033139D01*
X210948936Y-140034863D01*
X210851031Y-140283016D01*
X210850204Y-140284769D01*
X210849504Y-140286868D01*
X210849119Y-140288956D01*
X210848996Y-140290889D01*
X210815000Y-140557033D01*
X210814630Y-140558956D01*
X210814488Y-140561002D01*
X208915597Y-140561002D01*
X208915500Y-140558530D01*
X208915500Y-137160000D01*
X209464341Y-137160000D01*
X209484936Y-137395403D01*
X209484938Y-137395413D01*
X209546094Y-137623655D01*
X209546096Y-137623659D01*
X209546097Y-137623663D01*
X209623736Y-137790160D01*
X209645965Y-137837830D01*
X209645967Y-137837834D01*
X209726636Y-137953040D01*
X209781505Y-138031401D01*
X209948599Y-138198495D01*
X209998039Y-138233113D01*
X210142165Y-138334032D01*
X210142167Y-138334033D01*
X210142170Y-138334035D01*
X210356337Y-138433903D01*
X210584592Y-138495063D01*
X210750484Y-138509577D01*
X210819999Y-138515659D01*
X210820000Y-138515659D01*
X210820001Y-138515659D01*
X210859234Y-138512226D01*
X211055408Y-138495063D01*
X211283663Y-138433903D01*
X211497830Y-138334035D01*
X211691401Y-138198495D01*
X211858495Y-138031401D01*
X211994035Y-137837830D01*
X212093903Y-137623663D01*
X212155063Y-137395408D01*
X212175659Y-137160000D01*
X212155063Y-136924592D01*
X212093903Y-136696337D01*
X211994035Y-136482171D01*
X211864384Y-136297010D01*
X211858496Y-136288600D01*
X211833421Y-136263525D01*
X211736567Y-136166671D01*
X211703084Y-136105351D01*
X211708068Y-136035659D01*
X211749939Y-135979725D01*
X211780915Y-135962810D01*
X211912331Y-135913796D01*
X212027546Y-135827546D01*
X212113796Y-135712331D01*
X212164091Y-135577483D01*
X212170500Y-135517873D01*
X212170499Y-133722128D01*
X212164091Y-133662517D01*
X212156338Y-133641731D01*
X212113797Y-133527671D01*
X212113793Y-133527664D01*
X212027547Y-133412455D01*
X212027544Y-133412452D01*
X211912335Y-133326206D01*
X211912328Y-133326202D01*
X211777482Y-133275908D01*
X211777483Y-133275908D01*
X211717883Y-133269501D01*
X211717881Y-133269500D01*
X211717873Y-133269500D01*
X211717864Y-133269500D01*
X209922129Y-133269500D01*
X209922123Y-133269501D01*
X209862516Y-133275908D01*
X209727671Y-133326202D01*
X209727664Y-133326206D01*
X209612455Y-133412452D01*
X209612452Y-133412455D01*
X209526206Y-133527664D01*
X209526202Y-133527671D01*
X209475908Y-133662517D01*
X209472510Y-133694127D01*
X209469501Y-133722123D01*
X209469500Y-133722135D01*
X209469500Y-135517870D01*
X209469501Y-135517876D01*
X209475908Y-135577483D01*
X209526202Y-135712328D01*
X209526206Y-135712335D01*
X209612452Y-135827544D01*
X209612455Y-135827547D01*
X209727664Y-135913793D01*
X209727671Y-135913797D01*
X209859081Y-135962810D01*
X209915015Y-136004681D01*
X209939432Y-136070145D01*
X209924580Y-136138418D01*
X209903430Y-136166673D01*
X209781503Y-136288600D01*
X209645965Y-136482169D01*
X209645964Y-136482171D01*
X209546098Y-136696335D01*
X209546094Y-136696344D01*
X209484938Y-136924586D01*
X209484936Y-136924596D01*
X209464341Y-137159999D01*
X209464341Y-137160000D01*
X208915500Y-137160000D01*
X208915500Y-123511464D01*
X208935185Y-123444425D01*
X208987989Y-123398670D01*
X209027547Y-123388043D01*
X213562061Y-122949219D01*
X213630683Y-122962354D01*
G37*
%TD.AperFunction*%
%TA.AperFunction,Conductor*%
G36*
X215340377Y-127500541D02*
G01*
X215408062Y-127517877D01*
X215455630Y-127569054D01*
X215468700Y-127624466D01*
X215468700Y-129082000D01*
X215449015Y-129149039D01*
X215396211Y-129194794D01*
X215344700Y-129206000D01*
X215134000Y-129206000D01*
X215134000Y-129943698D01*
X215114315Y-130010737D01*
X215061511Y-130056492D01*
X214992355Y-130066436D01*
X214919766Y-130056000D01*
X214919763Y-130056000D01*
X214848237Y-130056000D01*
X214848233Y-130056000D01*
X214775645Y-130066436D01*
X214706487Y-130056492D01*
X214653684Y-130010736D01*
X214634000Y-129943698D01*
X214634000Y-129206000D01*
X214436700Y-129206000D01*
X214369661Y-129186315D01*
X214323906Y-129133511D01*
X214312700Y-129082000D01*
X214312700Y-127624499D01*
X214332385Y-127557460D01*
X214385189Y-127511705D01*
X214436695Y-127500499D01*
X215341591Y-127500499D01*
X215340377Y-127500541D01*
G37*
%TD.AperFunction*%
%TD*%
%TA.AperFunction,Conductor*%
%TO.N,+3V3*%
G36*
X232950332Y-101395770D02*
G01*
X232994677Y-101424269D01*
X233018179Y-101447770D01*
X233051666Y-101509092D01*
X233054500Y-101535453D01*
X233054500Y-102532590D01*
X233034815Y-102599629D01*
X232982011Y-102645384D01*
X232923983Y-102656419D01*
X232260653Y-102621508D01*
X232194741Y-102598327D01*
X232151824Y-102543191D01*
X232143988Y-102511895D01*
X232073690Y-101902646D01*
X232085561Y-101833793D01*
X232132772Y-101782287D01*
X232192977Y-101764495D01*
X232231014Y-101763300D01*
X232260550Y-101763300D01*
X232267428Y-101762430D01*
X232273241Y-101761972D01*
X232319827Y-101760509D01*
X232339069Y-101754917D01*
X232358112Y-101750974D01*
X232377992Y-101748464D01*
X232421322Y-101731307D01*
X232426846Y-101729417D01*
X232430596Y-101728327D01*
X232471590Y-101716418D01*
X232488829Y-101706222D01*
X232506303Y-101697662D01*
X232524927Y-101690288D01*
X232524927Y-101690287D01*
X232524932Y-101690286D01*
X232562649Y-101662882D01*
X232567505Y-101659692D01*
X232607620Y-101635970D01*
X232621789Y-101621799D01*
X232636579Y-101609168D01*
X232652787Y-101597394D01*
X232682499Y-101561476D01*
X232686412Y-101557176D01*
X232819319Y-101424269D01*
X232880640Y-101390786D01*
X232950332Y-101395770D01*
G37*
%TD.AperFunction*%
%TD*%
M02*
