%TF.GenerationSoftware,KiCad,Pcbnew,7.0.7*%
%TF.CreationDate,2024-10-15T08:59:53-05:00*%
%TF.ProjectId,OM-EPSC3-Micro,4f4d2d45-5053-4433-932d-4d6963726f2e,rev?*%
%TF.SameCoordinates,Original*%
%TF.FileFunction,Legend,Top*%
%TF.FilePolarity,Positive*%
%FSLAX46Y46*%
G04 Gerber Fmt 4.6, Leading zero omitted, Abs format (unit mm)*
G04 Created by KiCad (PCBNEW 7.0.7) date 2024-10-15 08:59:53*
%MOMM*%
%LPD*%
G01*
G04 APERTURE LIST*
%ADD10C,0.000000*%
%ADD11C,0.150000*%
%ADD12C,0.100000*%
%ADD13C,0.120000*%
%ADD14C,0.200000*%
G04 APERTURE END LIST*
D10*
G36*
X229970618Y-118582172D02*
G01*
X229829066Y-118582172D01*
X229829066Y-117506640D01*
X229631952Y-117566172D01*
X229631952Y-117419328D01*
X229929608Y-117325401D01*
X229970618Y-117325401D01*
X229970618Y-118582172D01*
G37*
G36*
X229369906Y-118410326D02*
G01*
X229375037Y-118410725D01*
X229380107Y-118411382D01*
X229385108Y-118412290D01*
X229390034Y-118413442D01*
X229394877Y-118414831D01*
X229399630Y-118416451D01*
X229404285Y-118418295D01*
X229408836Y-118420355D01*
X229413275Y-118422626D01*
X229417595Y-118425101D01*
X229421788Y-118427772D01*
X229425848Y-118430633D01*
X229429766Y-118433677D01*
X229433537Y-118436898D01*
X229437152Y-118440288D01*
X229440604Y-118443841D01*
X229443886Y-118447550D01*
X229446990Y-118451408D01*
X229449911Y-118455409D01*
X229452639Y-118459545D01*
X229455168Y-118463810D01*
X229457491Y-118468197D01*
X229459600Y-118472700D01*
X229461488Y-118477311D01*
X229463148Y-118482023D01*
X229464573Y-118486831D01*
X229465755Y-118491727D01*
X229466687Y-118496704D01*
X229467361Y-118501756D01*
X229467771Y-118506876D01*
X229467910Y-118512057D01*
X229467771Y-118517237D01*
X229467361Y-118522357D01*
X229466687Y-118527409D01*
X229465755Y-118532386D01*
X229464573Y-118537282D01*
X229463148Y-118542089D01*
X229461488Y-118546802D01*
X229459600Y-118551413D01*
X229457491Y-118555916D01*
X229455168Y-118560303D01*
X229452639Y-118564568D01*
X229449911Y-118568704D01*
X229446990Y-118572704D01*
X229443886Y-118576563D01*
X229440604Y-118580271D01*
X229437152Y-118583824D01*
X229433537Y-118587214D01*
X229429766Y-118590435D01*
X229425848Y-118593479D01*
X229421788Y-118596340D01*
X229417595Y-118599011D01*
X229413275Y-118601486D01*
X229408836Y-118603757D01*
X229404285Y-118605818D01*
X229399630Y-118607661D01*
X229394877Y-118609281D01*
X229390034Y-118610671D01*
X229385108Y-118611822D01*
X229380107Y-118612730D01*
X229375037Y-118613387D01*
X229369906Y-118613786D01*
X229364722Y-118613921D01*
X229359541Y-118613786D01*
X229354422Y-118613387D01*
X229349370Y-118612730D01*
X229344393Y-118611822D01*
X229339497Y-118610671D01*
X229334689Y-118609281D01*
X229329976Y-118607661D01*
X229325366Y-118605818D01*
X229320863Y-118603757D01*
X229316476Y-118601486D01*
X229312211Y-118599011D01*
X229308075Y-118596340D01*
X229304074Y-118593479D01*
X229300216Y-118590435D01*
X229296507Y-118587214D01*
X229292954Y-118583824D01*
X229289564Y-118580271D01*
X229286344Y-118576563D01*
X229283299Y-118572704D01*
X229280438Y-118568704D01*
X229277767Y-118564568D01*
X229275293Y-118560303D01*
X229273022Y-118555916D01*
X229270961Y-118551413D01*
X229269117Y-118546802D01*
X229267497Y-118542089D01*
X229266108Y-118537282D01*
X229264956Y-118532386D01*
X229264048Y-118527409D01*
X229263392Y-118522357D01*
X229262993Y-118517237D01*
X229262858Y-118512057D01*
X229262993Y-118506876D01*
X229263392Y-118501756D01*
X229264048Y-118496704D01*
X229264956Y-118491727D01*
X229266108Y-118486831D01*
X229267497Y-118482023D01*
X229269117Y-118477311D01*
X229270961Y-118472700D01*
X229273022Y-118468197D01*
X229275293Y-118463810D01*
X229277767Y-118459545D01*
X229280438Y-118455409D01*
X229283299Y-118451408D01*
X229286344Y-118447550D01*
X229289564Y-118443841D01*
X229292954Y-118440288D01*
X229296507Y-118436898D01*
X229300216Y-118433677D01*
X229304074Y-118430633D01*
X229308075Y-118427772D01*
X229312211Y-118425101D01*
X229316476Y-118422626D01*
X229320863Y-118420355D01*
X229325366Y-118418295D01*
X229329976Y-118416451D01*
X229334689Y-118414831D01*
X229339497Y-118413442D01*
X229344393Y-118412290D01*
X229349370Y-118411382D01*
X229354422Y-118410725D01*
X229359541Y-118410326D01*
X229364722Y-118410192D01*
X229369906Y-118410326D01*
G37*
G36*
X229031347Y-118582172D02*
G01*
X228891118Y-118582172D01*
X228891118Y-117506640D01*
X228694003Y-117566172D01*
X228694003Y-117419328D01*
X228990336Y-117325401D01*
X229031347Y-117325401D01*
X229031347Y-118582172D01*
G37*
G36*
X227889670Y-118264672D02*
G01*
X227889670Y-117330692D01*
X228031222Y-117330692D01*
X228031222Y-118602015D01*
X228024607Y-118602015D01*
X227167357Y-117650838D01*
X227167357Y-118584817D01*
X227027129Y-118584817D01*
X227027129Y-117313494D01*
X227033743Y-117313494D01*
X227889670Y-118264672D01*
G37*
G36*
X226185754Y-117314819D02*
G01*
X226218675Y-117315664D01*
X226251183Y-117318173D01*
X226283235Y-117322303D01*
X226314792Y-117328012D01*
X226345811Y-117335257D01*
X226376250Y-117343997D01*
X226406069Y-117354190D01*
X226435226Y-117365792D01*
X226463680Y-117378763D01*
X226491389Y-117393060D01*
X226518311Y-117408641D01*
X226544406Y-117425463D01*
X226569631Y-117443485D01*
X226593946Y-117462665D01*
X226617310Y-117482959D01*
X226639679Y-117504327D01*
X226661014Y-117526725D01*
X226681273Y-117550113D01*
X226700414Y-117574447D01*
X226718395Y-117599685D01*
X226735177Y-117625786D01*
X226750716Y-117652707D01*
X226764972Y-117680406D01*
X226777904Y-117708841D01*
X226789469Y-117737970D01*
X226799626Y-117767751D01*
X226808334Y-117798141D01*
X226815552Y-117829098D01*
X226821239Y-117860580D01*
X226825351Y-117892545D01*
X226827849Y-117924951D01*
X226828691Y-117957756D01*
X226827846Y-117990554D01*
X226825337Y-118022938D01*
X226821207Y-118054867D01*
X226815498Y-118086301D01*
X226808253Y-118117199D01*
X226799513Y-118147518D01*
X226789320Y-118177218D01*
X226777717Y-118206258D01*
X226764747Y-118234596D01*
X226750450Y-118262192D01*
X226734869Y-118289003D01*
X226718047Y-118314990D01*
X226700025Y-118340110D01*
X226680845Y-118364324D01*
X226660551Y-118387588D01*
X226639183Y-118409863D01*
X226616785Y-118431106D01*
X226593397Y-118451278D01*
X226569063Y-118470336D01*
X226543825Y-118488240D01*
X226517724Y-118504949D01*
X226490803Y-118520420D01*
X226463103Y-118534613D01*
X226434668Y-118547487D01*
X226405540Y-118559001D01*
X226375759Y-118569113D01*
X226345369Y-118577783D01*
X226314412Y-118584968D01*
X226282930Y-118590629D01*
X226250965Y-118594723D01*
X226218558Y-118597209D01*
X226185754Y-118598048D01*
X226152952Y-118597213D01*
X226120557Y-118594737D01*
X226088610Y-118590660D01*
X226057152Y-118585022D01*
X226026225Y-118577864D01*
X225995870Y-118569227D01*
X225966130Y-118559149D01*
X225937046Y-118547673D01*
X225908659Y-118534839D01*
X225881012Y-118520686D01*
X225854145Y-118505256D01*
X225828101Y-118488589D01*
X225802922Y-118470725D01*
X225778648Y-118451705D01*
X225755322Y-118431569D01*
X225732986Y-118410358D01*
X225711680Y-118388112D01*
X225691447Y-118364872D01*
X225672328Y-118340678D01*
X225654365Y-118315571D01*
X225637600Y-118289590D01*
X225622074Y-118262777D01*
X225607829Y-118235172D01*
X225594906Y-118206815D01*
X225583348Y-118177747D01*
X225573196Y-118148008D01*
X225564491Y-118117639D01*
X225557276Y-118086680D01*
X225551591Y-118055172D01*
X225547479Y-118023155D01*
X225544981Y-117990669D01*
X225544140Y-117957755D01*
X225687014Y-117957755D01*
X225687668Y-117983396D01*
X225689607Y-118008702D01*
X225692799Y-118033644D01*
X225697213Y-118058188D01*
X225702815Y-118082304D01*
X225709574Y-118105961D01*
X225717457Y-118129126D01*
X225726433Y-118151769D01*
X225736469Y-118173857D01*
X225747532Y-118195360D01*
X225759591Y-118216245D01*
X225772614Y-118236482D01*
X225786567Y-118256038D01*
X225801420Y-118274883D01*
X225817139Y-118292985D01*
X225833693Y-118310312D01*
X225851048Y-118326832D01*
X225869175Y-118342516D01*
X225888038Y-118357330D01*
X225907608Y-118371243D01*
X225927851Y-118384225D01*
X225948735Y-118396242D01*
X225970228Y-118407265D01*
X225992298Y-118417261D01*
X226014912Y-118426199D01*
X226038039Y-118434047D01*
X226061646Y-118440775D01*
X226085700Y-118446350D01*
X226110171Y-118450740D01*
X226135024Y-118453916D01*
X226160229Y-118455844D01*
X226185754Y-118456494D01*
X226211518Y-118455840D01*
X226236949Y-118453901D01*
X226262013Y-118450709D01*
X226286680Y-118446295D01*
X226310918Y-118440693D01*
X226334695Y-118433934D01*
X226357980Y-118426051D01*
X226380739Y-118417075D01*
X226402943Y-118407039D01*
X226424559Y-118395976D01*
X226445555Y-118383917D01*
X226465900Y-118370894D01*
X226485561Y-118356941D01*
X226504508Y-118342088D01*
X226522708Y-118326369D01*
X226540130Y-118309816D01*
X226556742Y-118292460D01*
X226572512Y-118274334D01*
X226587409Y-118255470D01*
X226601400Y-118235900D01*
X226614455Y-118215658D01*
X226626541Y-118194773D01*
X226637626Y-118173280D01*
X226647679Y-118151211D01*
X226656668Y-118128596D01*
X226664562Y-118105470D01*
X226671329Y-118081863D01*
X226676936Y-118057808D01*
X226681352Y-118033338D01*
X226684546Y-118008484D01*
X226686486Y-117983279D01*
X226687139Y-117957755D01*
X226686482Y-117932227D01*
X226684532Y-117907011D01*
X226681321Y-117882140D01*
X226676881Y-117857645D01*
X226671247Y-117833561D01*
X226664449Y-117809918D01*
X226656520Y-117786752D01*
X226647493Y-117764093D01*
X226637400Y-117741974D01*
X226626274Y-117720430D01*
X226614147Y-117699491D01*
X226601051Y-117679191D01*
X226587020Y-117659562D01*
X226572084Y-117640638D01*
X226556278Y-117622450D01*
X226539633Y-117605032D01*
X226522183Y-117588417D01*
X226503958Y-117572636D01*
X226484992Y-117557723D01*
X226465317Y-117543711D01*
X226444967Y-117530631D01*
X226423972Y-117518517D01*
X226402366Y-117507402D01*
X226380181Y-117497318D01*
X226357449Y-117488298D01*
X226334203Y-117480374D01*
X226310476Y-117473580D01*
X226286300Y-117467948D01*
X226261707Y-117463510D01*
X226236730Y-117460300D01*
X226211402Y-117458350D01*
X226185754Y-117457692D01*
X226160113Y-117458346D01*
X226134807Y-117460285D01*
X226109865Y-117463478D01*
X226085321Y-117467893D01*
X226061204Y-117473498D01*
X226037548Y-117480261D01*
X226014383Y-117488149D01*
X225991740Y-117497132D01*
X225969652Y-117507176D01*
X225948149Y-117518251D01*
X225927264Y-117530323D01*
X225907027Y-117543362D01*
X225887470Y-117557334D01*
X225868626Y-117572209D01*
X225850524Y-117587954D01*
X225833197Y-117604536D01*
X225816676Y-117621925D01*
X225800993Y-117640089D01*
X225786179Y-117658994D01*
X225772265Y-117678610D01*
X225759284Y-117698903D01*
X225747266Y-117719844D01*
X225736243Y-117741398D01*
X225726247Y-117763535D01*
X225717309Y-117786222D01*
X225709461Y-117809427D01*
X225702733Y-117833119D01*
X225697158Y-117857265D01*
X225692768Y-117881834D01*
X225689592Y-117906793D01*
X225687664Y-117932111D01*
X225687014Y-117957755D01*
X225544140Y-117957755D01*
X225544978Y-117924834D01*
X225547465Y-117892326D01*
X225551560Y-117860273D01*
X225557221Y-117828717D01*
X225564409Y-117797698D01*
X225573083Y-117767258D01*
X225583200Y-117737439D01*
X225594720Y-117708282D01*
X225607603Y-117679829D01*
X225621807Y-117652120D01*
X225637292Y-117625197D01*
X225654016Y-117599103D01*
X225671939Y-117573877D01*
X225691020Y-117549562D01*
X225711217Y-117526199D01*
X225732489Y-117503829D01*
X225754797Y-117482495D01*
X225778099Y-117462236D01*
X225802353Y-117443095D01*
X225827520Y-117425113D01*
X225853557Y-117408332D01*
X225880425Y-117392793D01*
X225908082Y-117378537D01*
X225936487Y-117365605D01*
X225965600Y-117354040D01*
X225995379Y-117343883D01*
X226025783Y-117335174D01*
X226056772Y-117327956D01*
X226088304Y-117322270D01*
X226120339Y-117318158D01*
X226152836Y-117315660D01*
X226185754Y-117314818D01*
X226185754Y-117314819D01*
G37*
G36*
X225347024Y-118582172D02*
G01*
X225205472Y-118582172D01*
X225205472Y-117333338D01*
X225347024Y-117333338D01*
X225347024Y-118582172D01*
G37*
G36*
X224624706Y-117315114D02*
G01*
X224641553Y-117315992D01*
X224658051Y-117317437D01*
X224674195Y-117319435D01*
X224689981Y-117321971D01*
X224705406Y-117325029D01*
X224720466Y-117328596D01*
X224735155Y-117332656D01*
X224749470Y-117337195D01*
X224763407Y-117342198D01*
X224776962Y-117347650D01*
X224790131Y-117353536D01*
X224802909Y-117359842D01*
X224815292Y-117366552D01*
X224827277Y-117373653D01*
X224838859Y-117381129D01*
X224850034Y-117388965D01*
X224860798Y-117397147D01*
X224871147Y-117405659D01*
X224881076Y-117414488D01*
X224890582Y-117423618D01*
X224899660Y-117433035D01*
X224908307Y-117442724D01*
X224916518Y-117452669D01*
X224924289Y-117462857D01*
X224931616Y-117473272D01*
X224938495Y-117483900D01*
X224944922Y-117494726D01*
X224950892Y-117505735D01*
X224956402Y-117516913D01*
X224961448Y-117528243D01*
X224966024Y-117539713D01*
X224860190Y-117611150D01*
X224851815Y-117593904D01*
X224842114Y-117577418D01*
X224831157Y-117561743D01*
X224819015Y-117546927D01*
X224805756Y-117533017D01*
X224791450Y-117520063D01*
X224776168Y-117508112D01*
X224759979Y-117497214D01*
X224742953Y-117487417D01*
X224725160Y-117478768D01*
X224706669Y-117471318D01*
X224687550Y-117465113D01*
X224667873Y-117460203D01*
X224647707Y-117456635D01*
X224627123Y-117454459D01*
X224606190Y-117453723D01*
X224593721Y-117453981D01*
X224581378Y-117454746D01*
X224569179Y-117456006D01*
X224557142Y-117457749D01*
X224545284Y-117459963D01*
X224533623Y-117462636D01*
X224522176Y-117465755D01*
X224510962Y-117469309D01*
X224499997Y-117473285D01*
X224489301Y-117477672D01*
X224478889Y-117482457D01*
X224468781Y-117487628D01*
X224458993Y-117493174D01*
X224449544Y-117499081D01*
X224440451Y-117505337D01*
X224431731Y-117511932D01*
X224423404Y-117518852D01*
X224415485Y-117526086D01*
X224407993Y-117533620D01*
X224400945Y-117541444D01*
X224394360Y-117549546D01*
X224388254Y-117557912D01*
X224382647Y-117566531D01*
X224377554Y-117575391D01*
X224372994Y-117584479D01*
X224368985Y-117593784D01*
X224365544Y-117603294D01*
X224362689Y-117612995D01*
X224360438Y-117622877D01*
X224358808Y-117632928D01*
X224357817Y-117643134D01*
X224357483Y-117653484D01*
X224357882Y-117664668D01*
X224359067Y-117675413D01*
X224361017Y-117685736D01*
X224363710Y-117695654D01*
X224367126Y-117705186D01*
X224371243Y-117714349D01*
X224376043Y-117723161D01*
X224381502Y-117731639D01*
X224387601Y-117739801D01*
X224394318Y-117747665D01*
X224409526Y-117762570D01*
X224426959Y-117776494D01*
X224446449Y-117789578D01*
X224467831Y-117801966D01*
X224490937Y-117813797D01*
X224515602Y-117825213D01*
X224541658Y-117836356D01*
X224597277Y-117858389D01*
X224656462Y-117881026D01*
X224656461Y-117881026D01*
X224726085Y-117910440D01*
X224759915Y-117925860D01*
X224792763Y-117941963D01*
X224824387Y-117958902D01*
X224854543Y-117976834D01*
X224882985Y-117995913D01*
X224896487Y-118005931D01*
X224909469Y-118016294D01*
X224921901Y-118027021D01*
X224933753Y-118038132D01*
X224944993Y-118049647D01*
X224955590Y-118061583D01*
X224965516Y-118073962D01*
X224974738Y-118086801D01*
X224983227Y-118100121D01*
X224990952Y-118113942D01*
X224997883Y-118128281D01*
X225003988Y-118143159D01*
X225009238Y-118158596D01*
X225013602Y-118174610D01*
X225017049Y-118191220D01*
X225019549Y-118208447D01*
X225021072Y-118226310D01*
X225021586Y-118244828D01*
X225021010Y-118264821D01*
X225019299Y-118284360D01*
X225016483Y-118303434D01*
X225012589Y-118322030D01*
X225007648Y-118340137D01*
X225001686Y-118357742D01*
X224994734Y-118374835D01*
X224986818Y-118391403D01*
X224977969Y-118407434D01*
X224968214Y-118422916D01*
X224957583Y-118437838D01*
X224946103Y-118452187D01*
X224933803Y-118465952D01*
X224920712Y-118479121D01*
X224906859Y-118491682D01*
X224892271Y-118503623D01*
X224876979Y-118514933D01*
X224861009Y-118525598D01*
X224844391Y-118535609D01*
X224827154Y-118544952D01*
X224790935Y-118561588D01*
X224752580Y-118575412D01*
X224712318Y-118586330D01*
X224670378Y-118594245D01*
X224626989Y-118599065D01*
X224582378Y-118600692D01*
X224563288Y-118600381D01*
X224544472Y-118599456D01*
X224525939Y-118597933D01*
X224507701Y-118595827D01*
X224489767Y-118593152D01*
X224472147Y-118589922D01*
X224454852Y-118586154D01*
X224437891Y-118581861D01*
X224421276Y-118577059D01*
X224405015Y-118571761D01*
X224389120Y-118565984D01*
X224373601Y-118559741D01*
X224358467Y-118553048D01*
X224343728Y-118545919D01*
X224329396Y-118538369D01*
X224315480Y-118530412D01*
X224301990Y-118522065D01*
X224288937Y-118513340D01*
X224276331Y-118504254D01*
X224264181Y-118494820D01*
X224252498Y-118485054D01*
X224241293Y-118474971D01*
X224230575Y-118464585D01*
X224220354Y-118453911D01*
X224210641Y-118442963D01*
X224201446Y-118431757D01*
X224192779Y-118420308D01*
X224184651Y-118408629D01*
X224177071Y-118396737D01*
X224170049Y-118384645D01*
X224163596Y-118372368D01*
X224157722Y-118359922D01*
X224266201Y-118280546D01*
X224277688Y-118300211D01*
X224290750Y-118318986D01*
X224305289Y-118336819D01*
X224321205Y-118353658D01*
X224338401Y-118369451D01*
X224356777Y-118384145D01*
X224376234Y-118397688D01*
X224396674Y-118410027D01*
X224417997Y-118421111D01*
X224440106Y-118430886D01*
X224462900Y-118439301D01*
X224486281Y-118446304D01*
X224510151Y-118451841D01*
X224534410Y-118455861D01*
X224558960Y-118458312D01*
X224583702Y-118459140D01*
X224598868Y-118458882D01*
X224613845Y-118458115D01*
X224628613Y-118456848D01*
X224643153Y-118455091D01*
X224657446Y-118452855D01*
X224671472Y-118450149D01*
X224685214Y-118446984D01*
X224698650Y-118443369D01*
X224711764Y-118439313D01*
X224724534Y-118434828D01*
X224736943Y-118429923D01*
X224748970Y-118424608D01*
X224760597Y-118418892D01*
X224771806Y-118412786D01*
X224782575Y-118406300D01*
X224792887Y-118399444D01*
X224802723Y-118392227D01*
X224812062Y-118384660D01*
X224820887Y-118376752D01*
X224829177Y-118368513D01*
X224836914Y-118359954D01*
X224844079Y-118351084D01*
X224850652Y-118341913D01*
X224856614Y-118332451D01*
X224861947Y-118322708D01*
X224866631Y-118312694D01*
X224870647Y-118302419D01*
X224873975Y-118291893D01*
X224876597Y-118281125D01*
X224878494Y-118270126D01*
X224879646Y-118258906D01*
X224880034Y-118247474D01*
X224879517Y-118234539D01*
X224877989Y-118222018D01*
X224875488Y-118209899D01*
X224872048Y-118198170D01*
X224867706Y-118186818D01*
X224862497Y-118175833D01*
X224856460Y-118165201D01*
X224849628Y-118154911D01*
X224842038Y-118144950D01*
X224833727Y-118135307D01*
X224815085Y-118116924D01*
X224793989Y-118099665D01*
X224770728Y-118083432D01*
X224745592Y-118068130D01*
X224718869Y-118053662D01*
X224690847Y-118039929D01*
X224661815Y-118026836D01*
X224601879Y-118002182D01*
X224541368Y-117978922D01*
X224482945Y-117955655D01*
X224453859Y-117943090D01*
X224425220Y-117929705D01*
X224397302Y-117915352D01*
X224370379Y-117899880D01*
X224344722Y-117883141D01*
X224332455Y-117874249D01*
X224320606Y-117864985D01*
X224309212Y-117855330D01*
X224298305Y-117845264D01*
X224287919Y-117834769D01*
X224278090Y-117823828D01*
X224268850Y-117812420D01*
X224260235Y-117800527D01*
X224252278Y-117788131D01*
X224245014Y-117775213D01*
X224238477Y-117761754D01*
X224232700Y-117747736D01*
X224227718Y-117733140D01*
X224223566Y-117717948D01*
X224220277Y-117702140D01*
X224217885Y-117685698D01*
X224216425Y-117668604D01*
X224215931Y-117650838D01*
X224216431Y-117632881D01*
X224217916Y-117615235D01*
X224220363Y-117597918D01*
X224223749Y-117580946D01*
X224228052Y-117564336D01*
X224233249Y-117548106D01*
X224239317Y-117532272D01*
X224246234Y-117516852D01*
X224253976Y-117501861D01*
X224262520Y-117487318D01*
X224271845Y-117473239D01*
X224281927Y-117459641D01*
X224292743Y-117446541D01*
X224304271Y-117433956D01*
X224316488Y-117421903D01*
X224329371Y-117410398D01*
X224342897Y-117399460D01*
X224357044Y-117389104D01*
X224371789Y-117379349D01*
X224387109Y-117370210D01*
X224402981Y-117361704D01*
X224419383Y-117353850D01*
X224436291Y-117346662D01*
X224453684Y-117340160D01*
X224471537Y-117334359D01*
X224489829Y-117329276D01*
X224508537Y-117324929D01*
X224527638Y-117321334D01*
X224547109Y-117318509D01*
X224566927Y-117316469D01*
X224587070Y-117315233D01*
X224607514Y-117314818D01*
X224624706Y-117315114D01*
G37*
G36*
X223583986Y-117333857D02*
G01*
X223605286Y-117335397D01*
X223626285Y-117337934D01*
X223646955Y-117341441D01*
X223667270Y-117345894D01*
X223687202Y-117351267D01*
X223706724Y-117357536D01*
X223725811Y-117364675D01*
X223744434Y-117372658D01*
X223762567Y-117381462D01*
X223780183Y-117391060D01*
X223797256Y-117401427D01*
X223813758Y-117412538D01*
X223829662Y-117424369D01*
X223844941Y-117436893D01*
X223859570Y-117450085D01*
X223873520Y-117463921D01*
X223886765Y-117478376D01*
X223899278Y-117493423D01*
X223911032Y-117509038D01*
X223922000Y-117525196D01*
X223932155Y-117541871D01*
X223941471Y-117559038D01*
X223949921Y-117576672D01*
X223957477Y-117594748D01*
X223964113Y-117613241D01*
X223969801Y-117632125D01*
X223974516Y-117651376D01*
X223978230Y-117670967D01*
X223980916Y-117690875D01*
X223982547Y-117711073D01*
X223983097Y-117731536D01*
X223982773Y-117746599D01*
X223981812Y-117761517D01*
X223980225Y-117776278D01*
X223978025Y-117790869D01*
X223975225Y-117805276D01*
X223971839Y-117819487D01*
X223967878Y-117833490D01*
X223963357Y-117847271D01*
X223958286Y-117860817D01*
X223952681Y-117874116D01*
X223946552Y-117887155D01*
X223939914Y-117899921D01*
X223932778Y-117912402D01*
X223925159Y-117924583D01*
X223917067Y-117936453D01*
X223908518Y-117947999D01*
X223899522Y-117959207D01*
X223890094Y-117970066D01*
X223880246Y-117980561D01*
X223869991Y-117990681D01*
X223859341Y-118000412D01*
X223848309Y-118009742D01*
X223836909Y-118018658D01*
X223825154Y-118027146D01*
X223813055Y-118035195D01*
X223800626Y-118042791D01*
X223787879Y-118049921D01*
X223774829Y-118056573D01*
X223761486Y-118062734D01*
X223747865Y-118068391D01*
X223733977Y-118073531D01*
X223719837Y-118078141D01*
X224091576Y-118582172D01*
X223916951Y-118582172D01*
X223567701Y-118094015D01*
X223334868Y-118094015D01*
X223334868Y-118582172D01*
X223193316Y-118582172D01*
X223193316Y-117472245D01*
X223333544Y-117472245D01*
X223333544Y-117976276D01*
X223566378Y-117976276D01*
X223566378Y-117974954D01*
X223580192Y-117974627D01*
X223593841Y-117973658D01*
X223607307Y-117972063D01*
X223620571Y-117969859D01*
X223633617Y-117967061D01*
X223646426Y-117963687D01*
X223658980Y-117959753D01*
X223671261Y-117955275D01*
X223683251Y-117950271D01*
X223694933Y-117944755D01*
X223706289Y-117938746D01*
X223717299Y-117932259D01*
X223727948Y-117925310D01*
X223738216Y-117917917D01*
X223748086Y-117910096D01*
X223757540Y-117901862D01*
X223766560Y-117893234D01*
X223775127Y-117884226D01*
X223783225Y-117874857D01*
X223790835Y-117865141D01*
X223797939Y-117855096D01*
X223804520Y-117844738D01*
X223810559Y-117834083D01*
X223816038Y-117823149D01*
X223820940Y-117811951D01*
X223825246Y-117800505D01*
X223828939Y-117788830D01*
X223832001Y-117776940D01*
X223834413Y-117764852D01*
X223836159Y-117752583D01*
X223837219Y-117740150D01*
X223837577Y-117727568D01*
X223837215Y-117714149D01*
X223836144Y-117700937D01*
X223834382Y-117687949D01*
X223831946Y-117675196D01*
X223828857Y-117662695D01*
X223825133Y-117650459D01*
X223820791Y-117638503D01*
X223815852Y-117626840D01*
X223810333Y-117615485D01*
X223804253Y-117604453D01*
X223797632Y-117593758D01*
X223790486Y-117583414D01*
X223782836Y-117573434D01*
X223774700Y-117563835D01*
X223766096Y-117554629D01*
X223757044Y-117545832D01*
X223747561Y-117537457D01*
X223737667Y-117529519D01*
X223727380Y-117522031D01*
X223716718Y-117515009D01*
X223705701Y-117508467D01*
X223694347Y-117502419D01*
X223682675Y-117496879D01*
X223670703Y-117491861D01*
X223658450Y-117487380D01*
X223645935Y-117483450D01*
X223633176Y-117480086D01*
X223620192Y-117477301D01*
X223607001Y-117475110D01*
X223593623Y-117473528D01*
X223580076Y-117472568D01*
X223566378Y-117472245D01*
X223333544Y-117472245D01*
X223193316Y-117472245D01*
X223193316Y-117333338D01*
X223562410Y-117333338D01*
X223583986Y-117333857D01*
G37*
G36*
X222968421Y-117472244D02*
G01*
X222375754Y-117472244D01*
X222375754Y-117867796D01*
X222889045Y-117867796D01*
X222889045Y-118008025D01*
X222375754Y-118008025D01*
X222375754Y-118441942D01*
X222968421Y-118441942D01*
X222968421Y-118582172D01*
X222234202Y-118582172D01*
X222234202Y-117333338D01*
X222968421Y-117333338D01*
X222968421Y-117472244D01*
G37*
G36*
X221505275Y-118301713D02*
G01*
X221931254Y-117333338D01*
X222083389Y-117333338D01*
X221514535Y-118602015D01*
X221497337Y-118602015D01*
X220931129Y-117333338D01*
X221080618Y-117333338D01*
X221505275Y-118301713D01*
G37*
G36*
X232621743Y-115622807D02*
G01*
X232285722Y-115622807D01*
X232285722Y-116677172D01*
X232089930Y-116677172D01*
X232089930Y-115622807D01*
X231753911Y-115622807D01*
X231753911Y-115428338D01*
X232621743Y-115428338D01*
X232621743Y-115622807D01*
G37*
G36*
X231634846Y-115621484D02*
G01*
X231085837Y-115621484D01*
X231085837Y-115941630D01*
X231559441Y-115941630D01*
X231559441Y-116136099D01*
X231085837Y-116136099D01*
X231085837Y-116482703D01*
X231634846Y-116482703D01*
X231634846Y-116677172D01*
X230890044Y-116677172D01*
X230890044Y-115428338D01*
X231634846Y-115428338D01*
X231634846Y-115621484D01*
G37*
G36*
X230175669Y-116482703D02*
G01*
X230733941Y-116482703D01*
X230733941Y-116677172D01*
X229979878Y-116677172D01*
X229979878Y-115428338D01*
X230175669Y-115428338D01*
X230175669Y-116482703D01*
G37*
G36*
X229776149Y-115621484D02*
G01*
X229228462Y-115621484D01*
X229228462Y-115941630D01*
X229700742Y-115941630D01*
X229700742Y-116136099D01*
X229228462Y-116136099D01*
X229228462Y-116482703D01*
X229776149Y-116482703D01*
X229776149Y-116677172D01*
X229032670Y-116677172D01*
X229032670Y-115428338D01*
X229776149Y-115428338D01*
X229776149Y-115621484D01*
G37*
G36*
X228472768Y-115405793D02*
G01*
X228502587Y-115408587D01*
X228532083Y-115412886D01*
X228561237Y-115418664D01*
X228590026Y-115425900D01*
X228618430Y-115434570D01*
X228646426Y-115444651D01*
X228673995Y-115456119D01*
X228701114Y-115468952D01*
X228727762Y-115483125D01*
X228753917Y-115498616D01*
X228779559Y-115515402D01*
X228804667Y-115533459D01*
X228829218Y-115552764D01*
X228853192Y-115573294D01*
X228876567Y-115595025D01*
X228762795Y-115749806D01*
X228746118Y-115733783D01*
X228728847Y-115718485D01*
X228711005Y-115703954D01*
X228692619Y-115690234D01*
X228673714Y-115677366D01*
X228654314Y-115665393D01*
X228634446Y-115654358D01*
X228614133Y-115644304D01*
X228593402Y-115635273D01*
X228572278Y-115627307D01*
X228550785Y-115620451D01*
X228528950Y-115614745D01*
X228506797Y-115610233D01*
X228484350Y-115606957D01*
X228461637Y-115604961D01*
X228438681Y-115604286D01*
X228417390Y-115604855D01*
X228396206Y-115606546D01*
X228375167Y-115609334D01*
X228354309Y-115613192D01*
X228333670Y-115618096D01*
X228313288Y-115624020D01*
X228293199Y-115630938D01*
X228273441Y-115638826D01*
X228254051Y-115647658D01*
X228235066Y-115657407D01*
X228216525Y-115668050D01*
X228198463Y-115679560D01*
X228180919Y-115691912D01*
X228163930Y-115705081D01*
X228147533Y-115719041D01*
X228131765Y-115733766D01*
X228116663Y-115749232D01*
X228102266Y-115765412D01*
X228088609Y-115782282D01*
X228075732Y-115799816D01*
X228063670Y-115817989D01*
X228052461Y-115836774D01*
X228042143Y-115856147D01*
X228032752Y-115876083D01*
X228024327Y-115896555D01*
X228016904Y-115917539D01*
X228010521Y-115939008D01*
X228005214Y-115960938D01*
X228001022Y-115983303D01*
X227997981Y-116006078D01*
X227996130Y-116029237D01*
X227995504Y-116052754D01*
X227996141Y-116076268D01*
X227998025Y-116099416D01*
X228001117Y-116122173D01*
X228005377Y-116144514D01*
X228010766Y-116166414D01*
X228017244Y-116187848D01*
X228024772Y-116208791D01*
X228033311Y-116229219D01*
X228042820Y-116249106D01*
X228053260Y-116268428D01*
X228064593Y-116287158D01*
X228076778Y-116305274D01*
X228089776Y-116322749D01*
X228103547Y-116339558D01*
X228118053Y-116355677D01*
X228133253Y-116371081D01*
X228149107Y-116385745D01*
X228165578Y-116399643D01*
X228182624Y-116412751D01*
X228200207Y-116425044D01*
X228218287Y-116436497D01*
X228236825Y-116447085D01*
X228255780Y-116456783D01*
X228275115Y-116465566D01*
X228294788Y-116473410D01*
X228314761Y-116480288D01*
X228334995Y-116486177D01*
X228355448Y-116491051D01*
X228376084Y-116494885D01*
X228396860Y-116497654D01*
X228417740Y-116499335D01*
X228438681Y-116499900D01*
X228462523Y-116499166D01*
X228485924Y-116497006D01*
X228508874Y-116493482D01*
X228531367Y-116488655D01*
X228553396Y-116482589D01*
X228574951Y-116475344D01*
X228596026Y-116466982D01*
X228616613Y-116457567D01*
X228636703Y-116447159D01*
X228656290Y-116435822D01*
X228675365Y-116423616D01*
X228693921Y-116410604D01*
X228711949Y-116396847D01*
X228729443Y-116382409D01*
X228746394Y-116367350D01*
X228762795Y-116351733D01*
X228762796Y-116349088D01*
X228876568Y-116507839D01*
X228855897Y-116527389D01*
X228834542Y-116546296D01*
X228812470Y-116564474D01*
X228789648Y-116581839D01*
X228766043Y-116598304D01*
X228741622Y-116613785D01*
X228716353Y-116628197D01*
X228690201Y-116641453D01*
X228663136Y-116653469D01*
X228635122Y-116664159D01*
X228606128Y-116673439D01*
X228576120Y-116681223D01*
X228545066Y-116687425D01*
X228512933Y-116691961D01*
X228479687Y-116694745D01*
X228445296Y-116695692D01*
X228412243Y-116694843D01*
X228379589Y-116692323D01*
X228347378Y-116688175D01*
X228315650Y-116682442D01*
X228284450Y-116675167D01*
X228253819Y-116666392D01*
X228223801Y-116656159D01*
X228194438Y-116644512D01*
X228165772Y-116631493D01*
X228137847Y-116617144D01*
X228110705Y-116601509D01*
X228084388Y-116584629D01*
X228058939Y-116566548D01*
X228034401Y-116547308D01*
X228010817Y-116526952D01*
X227988229Y-116505523D01*
X227966679Y-116483062D01*
X227946210Y-116459613D01*
X227926866Y-116435219D01*
X227908688Y-116409921D01*
X227891720Y-116383763D01*
X227876003Y-116356788D01*
X227861581Y-116329037D01*
X227848496Y-116300553D01*
X227836790Y-116271380D01*
X227826507Y-116241559D01*
X227817689Y-116211134D01*
X227810379Y-116180147D01*
X227804619Y-116148641D01*
X227800452Y-116116657D01*
X227797921Y-116084240D01*
X227797067Y-116051431D01*
X227797924Y-116018615D01*
X227800466Y-115986176D01*
X227804649Y-115954157D01*
X227810428Y-115922602D01*
X227817761Y-115891555D01*
X227826603Y-115861059D01*
X227836911Y-115831159D01*
X227848640Y-115801896D01*
X227861747Y-115773316D01*
X227876189Y-115745462D01*
X227891920Y-115718377D01*
X227908897Y-115692105D01*
X227927078Y-115666689D01*
X227946416Y-115642174D01*
X227966869Y-115618602D01*
X227988394Y-115596018D01*
X228010945Y-115574464D01*
X228034480Y-115553985D01*
X228058954Y-115534625D01*
X228084323Y-115516426D01*
X228110544Y-115499432D01*
X228137573Y-115483687D01*
X228165366Y-115469235D01*
X228193880Y-115456119D01*
X228223069Y-115444383D01*
X228252891Y-115434070D01*
X228283302Y-115425224D01*
X228314257Y-115417889D01*
X228345713Y-115412108D01*
X228377627Y-115407925D01*
X228409953Y-115405383D01*
X228442650Y-115404526D01*
X228472768Y-115405793D01*
G37*
G36*
X227835431Y-116677172D02*
G01*
X227622441Y-116677172D01*
X227537775Y-116486672D01*
X226946431Y-116486672D01*
X226861764Y-116677172D01*
X226648774Y-116677172D01*
X226813288Y-116319984D01*
X227021837Y-116319984D01*
X227461046Y-116319984D01*
X227241441Y-115831828D01*
X227021837Y-116319984D01*
X226813288Y-116319984D01*
X227236150Y-115401880D01*
X227248055Y-115401880D01*
X227835431Y-116677172D01*
G37*
G36*
X226100297Y-115427538D02*
G01*
X226121722Y-115429089D01*
X226142844Y-115431645D01*
X226163636Y-115435180D01*
X226184072Y-115439667D01*
X226204124Y-115445083D01*
X226223766Y-115451402D01*
X226242970Y-115458599D01*
X226261708Y-115466649D01*
X226279954Y-115475526D01*
X226297681Y-115485205D01*
X226314862Y-115495662D01*
X226331469Y-115506870D01*
X226347475Y-115518805D01*
X226362853Y-115531441D01*
X226377576Y-115544754D01*
X226391617Y-115558718D01*
X226404949Y-115573308D01*
X226417545Y-115588499D01*
X226429377Y-115604265D01*
X226440418Y-115620581D01*
X226450642Y-115637423D01*
X226460020Y-115654765D01*
X226468527Y-115672581D01*
X226476135Y-115690847D01*
X226482816Y-115709538D01*
X226488543Y-115728627D01*
X226493291Y-115748091D01*
X226497030Y-115767903D01*
X226499735Y-115788039D01*
X226501377Y-115808474D01*
X226501931Y-115829181D01*
X226500608Y-115829181D01*
X226500304Y-115844248D01*
X226499400Y-115859177D01*
X226497907Y-115873956D01*
X226495838Y-115888570D01*
X226493206Y-115903008D01*
X226490022Y-115917254D01*
X226486298Y-115931297D01*
X226482046Y-115945122D01*
X226477279Y-115958717D01*
X226472009Y-115972068D01*
X226466247Y-115985162D01*
X226460006Y-115997985D01*
X226453298Y-116010524D01*
X226446135Y-116022766D01*
X226438530Y-116034697D01*
X226430494Y-116046305D01*
X226422039Y-116057575D01*
X226413177Y-116068495D01*
X226403922Y-116079051D01*
X226394284Y-116089230D01*
X226384276Y-116099018D01*
X226373910Y-116108403D01*
X226363198Y-116117370D01*
X226352152Y-116125907D01*
X226340784Y-116134000D01*
X226329107Y-116141637D01*
X226317133Y-116148802D01*
X226304873Y-116155484D01*
X226292340Y-116161669D01*
X226279546Y-116167344D01*
X226266502Y-116172494D01*
X226253222Y-116177108D01*
X226617024Y-116677171D01*
X226376254Y-116677171D01*
X226040232Y-116192983D01*
X225886774Y-116192983D01*
X225886774Y-116677171D01*
X225689660Y-116677171D01*
X225689660Y-115622807D01*
X225886775Y-115622807D01*
X225886775Y-116031588D01*
X226083890Y-116031588D01*
X226094867Y-116031327D01*
X226105714Y-116030550D01*
X226116416Y-116029269D01*
X226126959Y-116027496D01*
X226137329Y-116025242D01*
X226147510Y-116022519D01*
X226157490Y-116019339D01*
X226167254Y-116015713D01*
X226176786Y-116011653D01*
X226186074Y-116007171D01*
X226195103Y-116002278D01*
X226203858Y-115996986D01*
X226212326Y-115991306D01*
X226220491Y-115985250D01*
X226228340Y-115978830D01*
X226235859Y-115972057D01*
X226243032Y-115964943D01*
X226249847Y-115957500D01*
X226256287Y-115949738D01*
X226262340Y-115941671D01*
X226267991Y-115933309D01*
X226273226Y-115924664D01*
X226278029Y-115915748D01*
X226282388Y-115906572D01*
X226286288Y-115897149D01*
X226289714Y-115887488D01*
X226292652Y-115877603D01*
X226295088Y-115867505D01*
X226297007Y-115857205D01*
X226298396Y-115846716D01*
X226299240Y-115836048D01*
X226299524Y-115825213D01*
X226299236Y-115814390D01*
X226298381Y-115803755D01*
X226296976Y-115793319D01*
X226295033Y-115783092D01*
X226292570Y-115773083D01*
X226289600Y-115763304D01*
X226286139Y-115753764D01*
X226282202Y-115744474D01*
X226277804Y-115735443D01*
X226272959Y-115726682D01*
X226267684Y-115718202D01*
X226261992Y-115710011D01*
X226255899Y-115702121D01*
X226249419Y-115694541D01*
X226242569Y-115687282D01*
X226235363Y-115680354D01*
X226227815Y-115673767D01*
X226219942Y-115667531D01*
X226211758Y-115661657D01*
X226203277Y-115656154D01*
X226194516Y-115651033D01*
X226185488Y-115646304D01*
X226176210Y-115641977D01*
X226166696Y-115638062D01*
X226156960Y-115634569D01*
X226147019Y-115631510D01*
X226136887Y-115628893D01*
X226126579Y-115626729D01*
X226116111Y-115625028D01*
X226105496Y-115623801D01*
X226094751Y-115623057D01*
X226083890Y-115622807D01*
X225886775Y-115622807D01*
X225689660Y-115622807D01*
X225689660Y-115427015D01*
X226078598Y-115427015D01*
X226100297Y-115427538D01*
G37*
G36*
X225034980Y-115427467D02*
G01*
X225054563Y-115428808D01*
X225073708Y-115431010D01*
X225092401Y-115434045D01*
X225110628Y-115437888D01*
X225128375Y-115442511D01*
X225145628Y-115447887D01*
X225162374Y-115453990D01*
X225178598Y-115460792D01*
X225194287Y-115468267D01*
X225209428Y-115476388D01*
X225224006Y-115485127D01*
X225238007Y-115494459D01*
X225251418Y-115504356D01*
X225264224Y-115514791D01*
X225276413Y-115525737D01*
X225287970Y-115537168D01*
X225298882Y-115549057D01*
X225309134Y-115561376D01*
X225318713Y-115574099D01*
X225327605Y-115587199D01*
X225335796Y-115600649D01*
X225343273Y-115614422D01*
X225350021Y-115628491D01*
X225356027Y-115642830D01*
X225361277Y-115657411D01*
X225365757Y-115672207D01*
X225369454Y-115687193D01*
X225372353Y-115702340D01*
X225374441Y-115717622D01*
X225375704Y-115733012D01*
X225376128Y-115748483D01*
X225375857Y-115761001D01*
X225375062Y-115773246D01*
X225373768Y-115785212D01*
X225372002Y-115796889D01*
X225369789Y-115808270D01*
X225367155Y-115819346D01*
X225364126Y-115830109D01*
X225360728Y-115840550D01*
X225356988Y-115850663D01*
X225352930Y-115860437D01*
X225348581Y-115869866D01*
X225343967Y-115878941D01*
X225339114Y-115887653D01*
X225334047Y-115895995D01*
X225328793Y-115903957D01*
X225323377Y-115911533D01*
X225317825Y-115918713D01*
X225312164Y-115925490D01*
X225306419Y-115931855D01*
X225300616Y-115937800D01*
X225294781Y-115943317D01*
X225288940Y-115948397D01*
X225283119Y-115953033D01*
X225277344Y-115957215D01*
X225271640Y-115960936D01*
X225266034Y-115964188D01*
X225260552Y-115966962D01*
X225255219Y-115969250D01*
X225250061Y-115971045D01*
X225245105Y-115972336D01*
X225240376Y-115973117D01*
X225235900Y-115973379D01*
X225234575Y-115973379D01*
X225247770Y-115973761D01*
X225261042Y-115974897D01*
X225274357Y-115976774D01*
X225287683Y-115979381D01*
X225300988Y-115982704D01*
X225314239Y-115986730D01*
X225327404Y-115991446D01*
X225340450Y-115996840D01*
X225353345Y-116002899D01*
X225366057Y-116009609D01*
X225378552Y-116016958D01*
X225390799Y-116024934D01*
X225402764Y-116033523D01*
X225414417Y-116042712D01*
X225425723Y-116052489D01*
X225436651Y-116062841D01*
X225447168Y-116073755D01*
X225457242Y-116085218D01*
X225466840Y-116097217D01*
X225475930Y-116109740D01*
X225484480Y-116122773D01*
X225492456Y-116136305D01*
X225499827Y-116150321D01*
X225506559Y-116164809D01*
X225512621Y-116179757D01*
X225517980Y-116195151D01*
X225522604Y-116210978D01*
X225526460Y-116227226D01*
X225529515Y-116243883D01*
X225531738Y-116260934D01*
X225533095Y-116278368D01*
X225533555Y-116296171D01*
X225533134Y-116314140D01*
X225531875Y-116332061D01*
X225529785Y-116349897D01*
X225526873Y-116367616D01*
X225523145Y-116385182D01*
X225518608Y-116402562D01*
X225513270Y-116419722D01*
X225507138Y-116436627D01*
X225500219Y-116453244D01*
X225492520Y-116469537D01*
X225484050Y-116485473D01*
X225474814Y-116501019D01*
X225464821Y-116516139D01*
X225454077Y-116530799D01*
X225442590Y-116544966D01*
X225430367Y-116558604D01*
X225417416Y-116571681D01*
X225403743Y-116584162D01*
X225389356Y-116596012D01*
X225374262Y-116607198D01*
X225358469Y-116617686D01*
X225341983Y-116627440D01*
X225324812Y-116636428D01*
X225306964Y-116644615D01*
X225288445Y-116651966D01*
X225269263Y-116658448D01*
X225249424Y-116664027D01*
X225228938Y-116668668D01*
X225207809Y-116672337D01*
X225186047Y-116675000D01*
X225163658Y-116676623D01*
X225140649Y-116677171D01*
X224673659Y-116677171D01*
X224673659Y-116104348D01*
X224869452Y-116104348D01*
X224869452Y-116486672D01*
X225123452Y-116486672D01*
X225123452Y-116487994D01*
X225133975Y-116487756D01*
X225144449Y-116487044D01*
X225154855Y-116485868D01*
X225165173Y-116484235D01*
X225175386Y-116482154D01*
X225185475Y-116479632D01*
X225195420Y-116476677D01*
X225205204Y-116473298D01*
X225214808Y-116469502D01*
X225224213Y-116465297D01*
X225233401Y-116460692D01*
X225242352Y-116455694D01*
X225251049Y-116450312D01*
X225259472Y-116444552D01*
X225267602Y-116438424D01*
X225275422Y-116431936D01*
X225282913Y-116425095D01*
X225290056Y-116417909D01*
X225296831Y-116410386D01*
X225303222Y-116402534D01*
X225309208Y-116394362D01*
X225314772Y-116385877D01*
X225319894Y-116377088D01*
X225324556Y-116368002D01*
X225328740Y-116358627D01*
X225332426Y-116348971D01*
X225335597Y-116339042D01*
X225338232Y-116328849D01*
X225340315Y-116318399D01*
X225341826Y-116307700D01*
X225342746Y-116296760D01*
X225343056Y-116285588D01*
X225342821Y-116276687D01*
X225342116Y-116267856D01*
X225340945Y-116259106D01*
X225339312Y-116250453D01*
X225337222Y-116241910D01*
X225334676Y-116233492D01*
X225331680Y-116225213D01*
X225328236Y-116217086D01*
X225324348Y-116209125D01*
X225320020Y-116201346D01*
X225315256Y-116193761D01*
X225310058Y-116186385D01*
X225304432Y-116179232D01*
X225298380Y-116172315D01*
X225291906Y-116165650D01*
X225285013Y-116159250D01*
X225277706Y-116153128D01*
X225269988Y-116147300D01*
X225261863Y-116141779D01*
X225253333Y-116136579D01*
X225244404Y-116131715D01*
X225235078Y-116127199D01*
X225225359Y-116123047D01*
X225215250Y-116119273D01*
X225204756Y-116115890D01*
X225193880Y-116112912D01*
X225182626Y-116110354D01*
X225170997Y-116108229D01*
X225158997Y-116106553D01*
X225146629Y-116105337D01*
X225133898Y-116104598D01*
X225120806Y-116104348D01*
X224869452Y-116104348D01*
X224673659Y-116104348D01*
X224673659Y-115618838D01*
X224869453Y-115618838D01*
X224869453Y-115929724D01*
X225024234Y-115929724D01*
X225033212Y-115929651D01*
X225042035Y-115929192D01*
X225050694Y-115928353D01*
X225059180Y-115927142D01*
X225067485Y-115925569D01*
X225075600Y-115923640D01*
X225083517Y-115921363D01*
X225091227Y-115918748D01*
X225098722Y-115915801D01*
X225105994Y-115912530D01*
X225113033Y-115908944D01*
X225119832Y-115905051D01*
X225126382Y-115900858D01*
X225132675Y-115896374D01*
X225138702Y-115891607D01*
X225144454Y-115886564D01*
X225149923Y-115881253D01*
X225155101Y-115875684D01*
X225159979Y-115869862D01*
X225164548Y-115863798D01*
X225168801Y-115857498D01*
X225172728Y-115850970D01*
X225176322Y-115844223D01*
X225179573Y-115837264D01*
X225182474Y-115830102D01*
X225185015Y-115822745D01*
X225187189Y-115815200D01*
X225188986Y-115807476D01*
X225190399Y-115799580D01*
X225191418Y-115791520D01*
X225192036Y-115783305D01*
X225192244Y-115774943D01*
X225192021Y-115766580D01*
X225191361Y-115758365D01*
X225190275Y-115750305D01*
X225188774Y-115742407D01*
X225186872Y-115734680D01*
X225184579Y-115727131D01*
X225181908Y-115719769D01*
X225178870Y-115712600D01*
X225175478Y-115705633D01*
X225171743Y-115698875D01*
X225167677Y-115692334D01*
X225163292Y-115686018D01*
X225158600Y-115679934D01*
X225153613Y-115674091D01*
X225148342Y-115668495D01*
X225142800Y-115663156D01*
X225136998Y-115658080D01*
X225130948Y-115653275D01*
X225124663Y-115648750D01*
X225118153Y-115644511D01*
X225111431Y-115640567D01*
X225104509Y-115636925D01*
X225097398Y-115633593D01*
X225090110Y-115630579D01*
X225082658Y-115627891D01*
X225075054Y-115625535D01*
X225067308Y-115623521D01*
X225059433Y-115621856D01*
X225051440Y-115620547D01*
X225043343Y-115619603D01*
X225035152Y-115619031D01*
X225026879Y-115618838D01*
X224869453Y-115618838D01*
X224673659Y-115618838D01*
X224673659Y-115427015D01*
X225014971Y-115427015D01*
X225034980Y-115427467D01*
G37*
G36*
X224053212Y-115622807D02*
G01*
X223718514Y-115622807D01*
X223718514Y-116677172D01*
X223521399Y-116677172D01*
X223521399Y-115622807D01*
X223186702Y-115622807D01*
X223186702Y-115428338D01*
X224053212Y-115428338D01*
X224053212Y-115622807D01*
G37*
G36*
X223029275Y-116678494D02*
G01*
X222833482Y-116678494D01*
X222833482Y-115428338D01*
X223029275Y-115428338D01*
X223029275Y-116678494D01*
G37*
G36*
X222000046Y-116026296D02*
G01*
X222429993Y-115428338D01*
X222657535Y-115428338D01*
X222214358Y-116040849D01*
X222701191Y-116677172D01*
X222461743Y-116677172D01*
X222000046Y-116072598D01*
X222000046Y-116677172D01*
X221804254Y-116677172D01*
X221804254Y-115428338D01*
X222000046Y-115428338D01*
X222000046Y-116026296D01*
G37*
G36*
X221081941Y-116273682D02*
G01*
X221456327Y-115428338D01*
X221665347Y-115428338D01*
X221089879Y-116703630D01*
X221076650Y-116703630D01*
X220501181Y-115428338D01*
X220710202Y-115428338D01*
X221081941Y-116273682D01*
G37*
G36*
X220400639Y-115621484D02*
G01*
X219851629Y-115621484D01*
X219851629Y-115941630D01*
X220325233Y-115941630D01*
X220325233Y-116136099D01*
X219851629Y-116136099D01*
X219851629Y-116482703D01*
X220400639Y-116482703D01*
X220400639Y-116677172D01*
X219655837Y-116677172D01*
X219655837Y-115428338D01*
X220400639Y-115428338D01*
X220400639Y-115621484D01*
G37*
G36*
X218831660Y-115429661D02*
G01*
X218868426Y-115430250D01*
X218904298Y-115432255D01*
X218939259Y-115435656D01*
X218973290Y-115440433D01*
X219006373Y-115446567D01*
X219038490Y-115454040D01*
X219069625Y-115462832D01*
X219099757Y-115472924D01*
X219128871Y-115484297D01*
X219156947Y-115496932D01*
X219183968Y-115510810D01*
X219209916Y-115525911D01*
X219234773Y-115542216D01*
X219258521Y-115559707D01*
X219281142Y-115578364D01*
X219302618Y-115598167D01*
X219322932Y-115619099D01*
X219342065Y-115641139D01*
X219359999Y-115664269D01*
X219376717Y-115688469D01*
X219392201Y-115713721D01*
X219406432Y-115740005D01*
X219419393Y-115767301D01*
X219431065Y-115795592D01*
X219441432Y-115824857D01*
X219450474Y-115855078D01*
X219458175Y-115886236D01*
X219464515Y-115918310D01*
X219469478Y-115951283D01*
X219473045Y-115985135D01*
X219475199Y-116019847D01*
X219475920Y-116055400D01*
X219475199Y-116090942D01*
X219473045Y-116125621D01*
X219469478Y-116159420D01*
X219464515Y-116192322D01*
X219458175Y-116224309D01*
X219450474Y-116255365D01*
X219441432Y-116285470D01*
X219431065Y-116314609D01*
X219419393Y-116342764D01*
X219406432Y-116369916D01*
X219392201Y-116396049D01*
X219376717Y-116421145D01*
X219359999Y-116445187D01*
X219342065Y-116468158D01*
X219322932Y-116490039D01*
X219302618Y-116510814D01*
X219281142Y-116530465D01*
X219258521Y-116548975D01*
X219234773Y-116566325D01*
X219209916Y-116582500D01*
X219183968Y-116597480D01*
X219156947Y-116611250D01*
X219128871Y-116623791D01*
X219099757Y-116635086D01*
X219069625Y-116645117D01*
X219038490Y-116653867D01*
X219006373Y-116661319D01*
X218973290Y-116667456D01*
X218939259Y-116672259D01*
X218904298Y-116675711D01*
X218868426Y-116677795D01*
X218831660Y-116678494D01*
X218475795Y-116678494D01*
X218475795Y-115622807D01*
X218671587Y-115622807D01*
X218671587Y-116482703D01*
X218834306Y-116482703D01*
X218859674Y-116482228D01*
X218884426Y-116480810D01*
X218908548Y-116478461D01*
X218932028Y-116475191D01*
X218954855Y-116471012D01*
X218977015Y-116465933D01*
X218998496Y-116459967D01*
X219019286Y-116453123D01*
X219039373Y-116445413D01*
X219058744Y-116436848D01*
X219077387Y-116427438D01*
X219095290Y-116417195D01*
X219112439Y-116406129D01*
X219128823Y-116394252D01*
X219144430Y-116381573D01*
X219159247Y-116368105D01*
X219173261Y-116353858D01*
X219186461Y-116338842D01*
X219198834Y-116323069D01*
X219210368Y-116306550D01*
X219221050Y-116289296D01*
X219230868Y-116271317D01*
X219239809Y-116252625D01*
X219247862Y-116233229D01*
X219255013Y-116213142D01*
X219261251Y-116192374D01*
X219266564Y-116170936D01*
X219270938Y-116148839D01*
X219274361Y-116126094D01*
X219276822Y-116102711D01*
X219278308Y-116078702D01*
X219278805Y-116054077D01*
X219278300Y-116029445D01*
X219276792Y-116005414D01*
X219274296Y-115981996D01*
X219270824Y-115959202D01*
X219266390Y-115937045D01*
X219261007Y-115915537D01*
X219254689Y-115894688D01*
X219247448Y-115874512D01*
X219239299Y-115855020D01*
X219230254Y-115836224D01*
X219220327Y-115818136D01*
X219209531Y-115800768D01*
X219197879Y-115784131D01*
X219185385Y-115768237D01*
X219172062Y-115753099D01*
X219157924Y-115738727D01*
X219142983Y-115725135D01*
X219127254Y-115712334D01*
X219110748Y-115700336D01*
X219093481Y-115689152D01*
X219075464Y-115678794D01*
X219056712Y-115669275D01*
X219037237Y-115660607D01*
X219017054Y-115652800D01*
X218996175Y-115645867D01*
X218974613Y-115639820D01*
X218952382Y-115634671D01*
X218929496Y-115630432D01*
X218905967Y-115627114D01*
X218881809Y-115624729D01*
X218857036Y-115623289D01*
X218831660Y-115622807D01*
X218671587Y-115622807D01*
X218475795Y-115622807D01*
X218475795Y-115428338D01*
X218831660Y-115428338D01*
X218831660Y-115429661D01*
G37*
G36*
X234756930Y-113168796D02*
G01*
X233919524Y-113168796D01*
X233919524Y-113443963D01*
X234637866Y-113443963D01*
X234637866Y-113992974D01*
X233919524Y-113992974D01*
X233919524Y-114290630D01*
X234756930Y-114290630D01*
X234756930Y-114838317D01*
X233369191Y-114838317D01*
X233369191Y-112754724D01*
X233502806Y-112754724D01*
X233502806Y-114704703D01*
X234625962Y-114704703D01*
X234625962Y-114421599D01*
X233788556Y-114421599D01*
X233788556Y-113859360D01*
X234506900Y-113859360D01*
X234506900Y-113574931D01*
X233788556Y-113574931D01*
X233788556Y-113035182D01*
X234625962Y-113035182D01*
X234625962Y-112754724D01*
X233502806Y-112754724D01*
X233369191Y-112754724D01*
X233369191Y-112623755D01*
X234756930Y-112623755D01*
X234756930Y-113168796D01*
G37*
G36*
X232429921Y-114290630D02*
G01*
X233267327Y-114290630D01*
X233267327Y-114838317D01*
X231879586Y-114838317D01*
X231879586Y-112756047D01*
X232010554Y-112756047D01*
X232010554Y-114706026D01*
X233133712Y-114706026D01*
X233133712Y-114422921D01*
X232296305Y-114422921D01*
X232296305Y-112756047D01*
X232010554Y-112756047D01*
X231879586Y-112756047D01*
X231879586Y-112623755D01*
X232429921Y-112623755D01*
X232429921Y-114290630D01*
G37*
G36*
X231035004Y-112583424D02*
G01*
X231087892Y-112587946D01*
X231140012Y-112595000D01*
X231191385Y-112604594D01*
X231242028Y-112616738D01*
X231291962Y-112631442D01*
X231341207Y-112648716D01*
X231389781Y-112668569D01*
X231437703Y-112691011D01*
X231484994Y-112716052D01*
X231531673Y-112743701D01*
X231577759Y-112773968D01*
X231623270Y-112806863D01*
X231668228Y-112842395D01*
X231712651Y-112880575D01*
X231756558Y-112921411D01*
X231797568Y-112961099D01*
X231476102Y-113398984D01*
X231421860Y-113346068D01*
X231395881Y-113321513D01*
X231369551Y-113298458D01*
X231342891Y-113276915D01*
X231315923Y-113256895D01*
X231288669Y-113238409D01*
X231261149Y-113221471D01*
X231233385Y-113206090D01*
X231205398Y-113192278D01*
X231177210Y-113180049D01*
X231148841Y-113169412D01*
X231120313Y-113160379D01*
X231091648Y-113152963D01*
X231062866Y-113147175D01*
X231033990Y-113143026D01*
X231005040Y-113140528D01*
X230976037Y-113139693D01*
X230946883Y-113140499D01*
X230917990Y-113142890D01*
X230889401Y-113146822D01*
X230861160Y-113152250D01*
X230833311Y-113159132D01*
X230805896Y-113167423D01*
X230778960Y-113177081D01*
X230752547Y-113188062D01*
X230726699Y-113200321D01*
X230701461Y-113213816D01*
X230676876Y-113228502D01*
X230652987Y-113244337D01*
X230629839Y-113261277D01*
X230607475Y-113279277D01*
X230585938Y-113298295D01*
X230565272Y-113318286D01*
X230545521Y-113339208D01*
X230526728Y-113361016D01*
X230508937Y-113383667D01*
X230492191Y-113407118D01*
X230476535Y-113431324D01*
X230462011Y-113456243D01*
X230448664Y-113481830D01*
X230436536Y-113508042D01*
X230425672Y-113534835D01*
X230416115Y-113562166D01*
X230407908Y-113589992D01*
X230401096Y-113618268D01*
X230395722Y-113646950D01*
X230391829Y-113675997D01*
X230389462Y-113705363D01*
X230388663Y-113735005D01*
X230389559Y-113766498D01*
X230392207Y-113797456D01*
X230396543Y-113827850D01*
X230402505Y-113857648D01*
X230410029Y-113886821D01*
X230419054Y-113915337D01*
X230429516Y-113943166D01*
X230441352Y-113970277D01*
X230454501Y-113996641D01*
X230468899Y-114022226D01*
X230484483Y-114047002D01*
X230501191Y-114070938D01*
X230518960Y-114094004D01*
X230537727Y-114116170D01*
X230557430Y-114137404D01*
X230578006Y-114157677D01*
X230599391Y-114176957D01*
X230621524Y-114195215D01*
X230644341Y-114212420D01*
X230667780Y-114228541D01*
X230691779Y-114243547D01*
X230716273Y-114257409D01*
X230741201Y-114270096D01*
X230766500Y-114281576D01*
X230792108Y-114291820D01*
X230817960Y-114300798D01*
X230843995Y-114308478D01*
X230870150Y-114314830D01*
X230896363Y-114319824D01*
X230922569Y-114323428D01*
X230948708Y-114325613D01*
X230974715Y-114326349D01*
X231002759Y-114325496D01*
X231030828Y-114322938D01*
X231058917Y-114318675D01*
X231087019Y-114312706D01*
X231115128Y-114305032D01*
X231143240Y-114295653D01*
X231171348Y-114284568D01*
X231199446Y-114271778D01*
X231227528Y-114257283D01*
X231255589Y-114241082D01*
X231283623Y-114223177D01*
X231311624Y-114203565D01*
X231339586Y-114182249D01*
X231367504Y-114159227D01*
X231395371Y-114134500D01*
X231423182Y-114108067D01*
X231478745Y-114053828D01*
X231796244Y-114500974D01*
X231756556Y-114540661D01*
X231712767Y-114582616D01*
X231668673Y-114621682D01*
X231624218Y-114657884D01*
X231579347Y-114691246D01*
X231534003Y-114721795D01*
X231488130Y-114749555D01*
X231441672Y-114774552D01*
X231394572Y-114796811D01*
X231346775Y-114816357D01*
X231298224Y-114833214D01*
X231248863Y-114847410D01*
X231198636Y-114858967D01*
X231147486Y-114867913D01*
X231095358Y-114874272D01*
X231042195Y-114878068D01*
X230987941Y-114879328D01*
X230989266Y-114878005D01*
X230929968Y-114876487D01*
X230871433Y-114871985D01*
X230813735Y-114864575D01*
X230756947Y-114854335D01*
X230701143Y-114841342D01*
X230646395Y-114825674D01*
X230592778Y-114807408D01*
X230540364Y-114786621D01*
X230489227Y-114763390D01*
X230439441Y-114737793D01*
X230391078Y-114709906D01*
X230344213Y-114679808D01*
X230298919Y-114647575D01*
X230255268Y-114613285D01*
X230213335Y-114577015D01*
X230173193Y-114538843D01*
X230134915Y-114498844D01*
X230098574Y-114457098D01*
X230064245Y-114413681D01*
X230032000Y-114368670D01*
X230001913Y-114322142D01*
X229974057Y-114274176D01*
X229948505Y-114224847D01*
X229925332Y-114174234D01*
X229904610Y-114122414D01*
X229886413Y-114069464D01*
X229870814Y-114015461D01*
X229857887Y-113960483D01*
X229847704Y-113904606D01*
X229840340Y-113847908D01*
X229835868Y-113790467D01*
X229834429Y-113735005D01*
X229965327Y-113735005D01*
X229966687Y-113786215D01*
X229970722Y-113836859D01*
X229977360Y-113886869D01*
X229986532Y-113936173D01*
X229998169Y-113984704D01*
X230012199Y-114032391D01*
X230028554Y-114079164D01*
X230047162Y-114124955D01*
X230067954Y-114169694D01*
X230090861Y-114213311D01*
X230115811Y-114255736D01*
X230142735Y-114296901D01*
X230171563Y-114336735D01*
X230202225Y-114375170D01*
X230234651Y-114412135D01*
X230268771Y-114447561D01*
X230304515Y-114481379D01*
X230341813Y-114513518D01*
X230380595Y-114543911D01*
X230420791Y-114572486D01*
X230462330Y-114599175D01*
X230505144Y-114623908D01*
X230549161Y-114646615D01*
X230594313Y-114667227D01*
X230640528Y-114685675D01*
X230687737Y-114701888D01*
X230735870Y-114715798D01*
X230784857Y-114727334D01*
X230834627Y-114736428D01*
X230885112Y-114743010D01*
X230936240Y-114747010D01*
X230987942Y-114748359D01*
X231032194Y-114747379D01*
X231075673Y-114744429D01*
X231118417Y-114739490D01*
X231160459Y-114732546D01*
X231201834Y-114723578D01*
X231242578Y-114712570D01*
X231282724Y-114699504D01*
X231322309Y-114684363D01*
X231361367Y-114667128D01*
X231399932Y-114647784D01*
X231438040Y-114626311D01*
X231475726Y-114602693D01*
X231513024Y-114576913D01*
X231549970Y-114548952D01*
X231586598Y-114518794D01*
X231622943Y-114486421D01*
X231458899Y-114256234D01*
X231429553Y-114280759D01*
X231400058Y-114303730D01*
X231370419Y-114325142D01*
X231340643Y-114344993D01*
X231310734Y-114363278D01*
X231280701Y-114379994D01*
X231250546Y-114395136D01*
X231220278Y-114408700D01*
X231189901Y-114420683D01*
X231159422Y-114431081D01*
X231128845Y-114439890D01*
X231098178Y-114447106D01*
X231067425Y-114452725D01*
X231036593Y-114456744D01*
X231005687Y-114459158D01*
X230974713Y-114459963D01*
X230942739Y-114459096D01*
X230910617Y-114456516D01*
X230878423Y-114452254D01*
X230846232Y-114446341D01*
X230814122Y-114438808D01*
X230782169Y-114429686D01*
X230750449Y-114419006D01*
X230719038Y-114406798D01*
X230688013Y-114393095D01*
X230657450Y-114377927D01*
X230627425Y-114361324D01*
X230598015Y-114343319D01*
X230569295Y-114323942D01*
X230541343Y-114303223D01*
X230514234Y-114281195D01*
X230488045Y-114257888D01*
X230462852Y-114233332D01*
X230438731Y-114207560D01*
X230415759Y-114180602D01*
X230394012Y-114152488D01*
X230373566Y-114123251D01*
X230354498Y-114092921D01*
X230336883Y-114061529D01*
X230320799Y-114029106D01*
X230306322Y-113995683D01*
X230293527Y-113961291D01*
X230282491Y-113925961D01*
X230273291Y-113889724D01*
X230266002Y-113852611D01*
X230260701Y-113814654D01*
X230257465Y-113775882D01*
X230256369Y-113736327D01*
X230257345Y-113700137D01*
X230260237Y-113664279D01*
X230264992Y-113628808D01*
X230271557Y-113593776D01*
X230279880Y-113559237D01*
X230289908Y-113525245D01*
X230301588Y-113491853D01*
X230314867Y-113459115D01*
X230329692Y-113427084D01*
X230346011Y-113395814D01*
X230363771Y-113365358D01*
X230382919Y-113335771D01*
X230403402Y-113307105D01*
X230425168Y-113279413D01*
X230448163Y-113252751D01*
X230472335Y-113227170D01*
X230497631Y-113202725D01*
X230523998Y-113179469D01*
X230551383Y-113157456D01*
X230579734Y-113136739D01*
X230608997Y-113117372D01*
X230639121Y-113099408D01*
X230670051Y-113082900D01*
X230701736Y-113067903D01*
X230734123Y-113054470D01*
X230767158Y-113042655D01*
X230800789Y-113032510D01*
X230834963Y-113024090D01*
X230869628Y-113017447D01*
X230904730Y-113012636D01*
X230940216Y-113009711D01*
X230976035Y-113008724D01*
X231007735Y-113009497D01*
X231039323Y-113011811D01*
X231070780Y-113015656D01*
X231102085Y-113021023D01*
X231133219Y-113027900D01*
X231164164Y-113036280D01*
X231194899Y-113046152D01*
X231225406Y-113057506D01*
X231255664Y-113070333D01*
X231285655Y-113084623D01*
X231315359Y-113100367D01*
X231344757Y-113117554D01*
X231373830Y-113136175D01*
X231402557Y-113156221D01*
X231430920Y-113177681D01*
X231458899Y-113200547D01*
X231621619Y-112978297D01*
X231584720Y-112946591D01*
X231547438Y-112916954D01*
X231509760Y-112889375D01*
X231471675Y-112863844D01*
X231433171Y-112840351D01*
X231394237Y-112818888D01*
X231354862Y-112799443D01*
X231315033Y-112782009D01*
X231274739Y-112766574D01*
X231233968Y-112753129D01*
X231192708Y-112741665D01*
X231150949Y-112732172D01*
X231108678Y-112724640D01*
X231065884Y-112719059D01*
X231022556Y-112715420D01*
X230978680Y-112713713D01*
X230980004Y-112716359D01*
X230928674Y-112717723D01*
X230877917Y-112721767D01*
X230827802Y-112728420D01*
X230778399Y-112737611D01*
X230729777Y-112749267D01*
X230682005Y-112763318D01*
X230635153Y-112779692D01*
X230589289Y-112798318D01*
X230544484Y-112819123D01*
X230500805Y-112842038D01*
X230458324Y-112866989D01*
X230417108Y-112893906D01*
X230377228Y-112922718D01*
X230338752Y-112953352D01*
X230301750Y-112985738D01*
X230266291Y-113019803D01*
X230232444Y-113055477D01*
X230200279Y-113092688D01*
X230169864Y-113131364D01*
X230141270Y-113171435D01*
X230114565Y-113212828D01*
X230089819Y-113255472D01*
X230067101Y-113299296D01*
X230046480Y-113344228D01*
X230028025Y-113390196D01*
X230011807Y-113437131D01*
X229997893Y-113484958D01*
X229986354Y-113533609D01*
X229977259Y-113583010D01*
X229970676Y-113633091D01*
X229966676Y-113683779D01*
X229965327Y-113735005D01*
X229834429Y-113735005D01*
X229834361Y-113732360D01*
X229835886Y-113674237D01*
X229840411Y-113616751D01*
X229847856Y-113559983D01*
X229858142Y-113504009D01*
X229871192Y-113448911D01*
X229886927Y-113394767D01*
X229905269Y-113341656D01*
X229926138Y-113289658D01*
X229949457Y-113238852D01*
X229975147Y-113189316D01*
X230003129Y-113141131D01*
X230033325Y-113094375D01*
X230065657Y-113049128D01*
X230100046Y-113005469D01*
X230136414Y-112963477D01*
X230174681Y-112923231D01*
X230214770Y-112884810D01*
X230256603Y-112848294D01*
X230300099Y-112813763D01*
X230345182Y-112781294D01*
X230391773Y-112750967D01*
X230439793Y-112722862D01*
X230489163Y-112697058D01*
X230539806Y-112673634D01*
X230591643Y-112652668D01*
X230644594Y-112634242D01*
X230698583Y-112618432D01*
X230753530Y-112605320D01*
X230809356Y-112594983D01*
X230865984Y-112587502D01*
X230923335Y-112582955D01*
X230981330Y-112581422D01*
X231035004Y-112583424D01*
G37*
G36*
X229072806Y-112580540D02*
G01*
X229103167Y-112581857D01*
X229133001Y-112584043D01*
X229162297Y-112587091D01*
X229191044Y-112590993D01*
X229219230Y-112595743D01*
X229246844Y-112601333D01*
X229273874Y-112607756D01*
X229300310Y-112615004D01*
X229326139Y-112623071D01*
X229351350Y-112631949D01*
X229375933Y-112641630D01*
X229399875Y-112652108D01*
X229423165Y-112663375D01*
X229445792Y-112675424D01*
X229467744Y-112688247D01*
X229489010Y-112701838D01*
X229509579Y-112716189D01*
X229529439Y-112731293D01*
X229548579Y-112747143D01*
X229566987Y-112763731D01*
X229584652Y-112781050D01*
X229601563Y-112799092D01*
X229617709Y-112817852D01*
X229633077Y-112837320D01*
X229647657Y-112857491D01*
X229661437Y-112878356D01*
X229674405Y-112899909D01*
X229686551Y-112922141D01*
X229697863Y-112945047D01*
X229708330Y-112968619D01*
X229717940Y-112992849D01*
X229736461Y-113040474D01*
X229322388Y-113328870D01*
X229287992Y-113260078D01*
X229281981Y-113248742D01*
X229275624Y-113238040D01*
X229268944Y-113227953D01*
X229261968Y-113218463D01*
X229254721Y-113209552D01*
X229247227Y-113201203D01*
X229239513Y-113193398D01*
X229231603Y-113186118D01*
X229223523Y-113179346D01*
X229215297Y-113173064D01*
X229206951Y-113167254D01*
X229198510Y-113161898D01*
X229189999Y-113156977D01*
X229181443Y-113152475D01*
X229164300Y-113144653D01*
X229147280Y-113138289D01*
X229130586Y-113133238D01*
X229114419Y-113129358D01*
X229098981Y-113126505D01*
X229084473Y-113124535D01*
X229071096Y-113123306D01*
X229059053Y-113122673D01*
X229048545Y-113122495D01*
X229036779Y-113122690D01*
X229025298Y-113123268D01*
X229014108Y-113124215D01*
X229003214Y-113125518D01*
X228992623Y-113127164D01*
X228982339Y-113129139D01*
X228972370Y-113131432D01*
X228962721Y-113134029D01*
X228953397Y-113136916D01*
X228944404Y-113140081D01*
X228935749Y-113143510D01*
X228927436Y-113147191D01*
X228919472Y-113151110D01*
X228911863Y-113155254D01*
X228904615Y-113159611D01*
X228897733Y-113164167D01*
X228891222Y-113168908D01*
X228885090Y-113173823D01*
X228879341Y-113178898D01*
X228873982Y-113184119D01*
X228869018Y-113189474D01*
X228864456Y-113194950D01*
X228860300Y-113200533D01*
X228856557Y-113206211D01*
X228853233Y-113211970D01*
X228850333Y-113217797D01*
X228847863Y-113223680D01*
X228845829Y-113229605D01*
X228844237Y-113235558D01*
X228843093Y-113241528D01*
X228842402Y-113247501D01*
X228842170Y-113253464D01*
X228842407Y-113258744D01*
X228843115Y-113263924D01*
X228844293Y-113269015D01*
X228845940Y-113274023D01*
X228850638Y-113283831D01*
X228857198Y-113293420D01*
X228865611Y-113302861D01*
X228875866Y-113312227D01*
X228887955Y-113321590D01*
X228901867Y-113331020D01*
X228917593Y-113340589D01*
X228935123Y-113350370D01*
X228954448Y-113360433D01*
X228975557Y-113370852D01*
X229023092Y-113393039D01*
X229077649Y-113417505D01*
X229137181Y-113443798D01*
X229168434Y-113457875D01*
X229184433Y-113465308D01*
X229200680Y-113473068D01*
X229258876Y-113501134D01*
X229316126Y-113530413D01*
X229372042Y-113561126D01*
X229426238Y-113593494D01*
X229478325Y-113627738D01*
X229527916Y-113664079D01*
X229574624Y-113702738D01*
X229618061Y-113743935D01*
X229638431Y-113765554D01*
X229657838Y-113787891D01*
X229676234Y-113810974D01*
X229693570Y-113834829D01*
X229709798Y-113859484D01*
X229724868Y-113884967D01*
X229738733Y-113911306D01*
X229751344Y-113938528D01*
X229762653Y-113966660D01*
X229772612Y-113995731D01*
X229781171Y-114025769D01*
X229788283Y-114056799D01*
X229793898Y-114088851D01*
X229797969Y-114121952D01*
X229800448Y-114156130D01*
X229801285Y-114191411D01*
X229800325Y-114229583D01*
X229797465Y-114266938D01*
X229792736Y-114303451D01*
X229786169Y-114339095D01*
X229777794Y-114373845D01*
X229767641Y-114407674D01*
X229755742Y-114440558D01*
X229742125Y-114472469D01*
X229726823Y-114503382D01*
X229709866Y-114533272D01*
X229691283Y-114562112D01*
X229671107Y-114589875D01*
X229649366Y-114616538D01*
X229626092Y-114642072D01*
X229601315Y-114666453D01*
X229575066Y-114689655D01*
X229547375Y-114711651D01*
X229518273Y-114732416D01*
X229487790Y-114751924D01*
X229455957Y-114770149D01*
X229422804Y-114787064D01*
X229388362Y-114802645D01*
X229352662Y-114816865D01*
X229315733Y-114829698D01*
X229277607Y-114841118D01*
X229238313Y-114851100D01*
X229197883Y-114859617D01*
X229156347Y-114866644D01*
X229113736Y-114872154D01*
X229070079Y-114876123D01*
X228979753Y-114879328D01*
X228945911Y-114878887D01*
X228912602Y-114877565D01*
X228879831Y-114875366D01*
X228847604Y-114872292D01*
X228815926Y-114868348D01*
X228784803Y-114863535D01*
X228754241Y-114857858D01*
X228724244Y-114851319D01*
X228694820Y-114843922D01*
X228665972Y-114835670D01*
X228637708Y-114826565D01*
X228610032Y-114816611D01*
X228582949Y-114805811D01*
X228556467Y-114794169D01*
X228530589Y-114781687D01*
X228505322Y-114768368D01*
X228480672Y-114754217D01*
X228456643Y-114739235D01*
X228433241Y-114723426D01*
X228410473Y-114706793D01*
X228388343Y-114689340D01*
X228366857Y-114671069D01*
X228346021Y-114651984D01*
X228325840Y-114632087D01*
X228306319Y-114611383D01*
X228287466Y-114589873D01*
X228269284Y-114567562D01*
X228251780Y-114544452D01*
X228234958Y-114520546D01*
X228218826Y-114495848D01*
X228203387Y-114470361D01*
X228188649Y-114444088D01*
X228182950Y-114433504D01*
X228336814Y-114433504D01*
X228362885Y-114471050D01*
X228390976Y-114506286D01*
X228421059Y-114539196D01*
X228453107Y-114569765D01*
X228487092Y-114597978D01*
X228522989Y-114623818D01*
X228560769Y-114647272D01*
X228600405Y-114668322D01*
X228641871Y-114686954D01*
X228685139Y-114703152D01*
X228730182Y-114716901D01*
X228776973Y-114728184D01*
X228825485Y-114736987D01*
X228875691Y-114743294D01*
X228927563Y-114747090D01*
X228981075Y-114748359D01*
X229019832Y-114747722D01*
X229057707Y-114745825D01*
X229094675Y-114742685D01*
X229130714Y-114738320D01*
X229165802Y-114732750D01*
X229199916Y-114725991D01*
X229233033Y-114718062D01*
X229265130Y-114708981D01*
X229296184Y-114698767D01*
X229326173Y-114687437D01*
X229355074Y-114675010D01*
X229382864Y-114661503D01*
X229409521Y-114646936D01*
X229435021Y-114631326D01*
X229459341Y-114614691D01*
X229482460Y-114597050D01*
X229504354Y-114578420D01*
X229525001Y-114558821D01*
X229544377Y-114538269D01*
X229562461Y-114516784D01*
X229579228Y-114494382D01*
X229594657Y-114471084D01*
X229608724Y-114446906D01*
X229621408Y-114421867D01*
X229632684Y-114395985D01*
X229642531Y-114369278D01*
X229650926Y-114341765D01*
X229657845Y-114313463D01*
X229663266Y-114284390D01*
X229667167Y-114254566D01*
X229669524Y-114224008D01*
X229670315Y-114192734D01*
X229668573Y-114146108D01*
X229663268Y-114101383D01*
X229654278Y-114058413D01*
X229641479Y-114017054D01*
X229633614Y-113996933D01*
X229624750Y-113977161D01*
X229614874Y-113957718D01*
X229603970Y-113938586D01*
X229579015Y-113901187D01*
X229549764Y-113864816D01*
X229516094Y-113829328D01*
X229477884Y-113794580D01*
X229435012Y-113760424D01*
X229387355Y-113726715D01*
X229334791Y-113693310D01*
X229277199Y-113660061D01*
X229214456Y-113626823D01*
X229146439Y-113593452D01*
X229083766Y-113564844D01*
X229054351Y-113551595D01*
X229026053Y-113539213D01*
X228960109Y-113509845D01*
X228929205Y-113495582D01*
X228899839Y-113481377D01*
X228872132Y-113467063D01*
X228846204Y-113452474D01*
X228822175Y-113437443D01*
X228810911Y-113429710D01*
X228800166Y-113421804D01*
X228789956Y-113413704D01*
X228780295Y-113405389D01*
X228771200Y-113396840D01*
X228762685Y-113388033D01*
X228754764Y-113378950D01*
X228747454Y-113369569D01*
X228740768Y-113359868D01*
X228734723Y-113349829D01*
X228729332Y-113339429D01*
X228724611Y-113328647D01*
X228720576Y-113317464D01*
X228717240Y-113305857D01*
X228714620Y-113293807D01*
X228712730Y-113281292D01*
X228711585Y-113268292D01*
X228711199Y-113254785D01*
X228711630Y-113241111D01*
X228712910Y-113227630D01*
X228715019Y-113214359D01*
X228717938Y-113201313D01*
X228721648Y-113188509D01*
X228726129Y-113175962D01*
X228731362Y-113163687D01*
X228737327Y-113151701D01*
X228744006Y-113140020D01*
X228751378Y-113128658D01*
X228759425Y-113117632D01*
X228768126Y-113106957D01*
X228777464Y-113096650D01*
X228787417Y-113086726D01*
X228797967Y-113077200D01*
X228809095Y-113068089D01*
X228833006Y-113051173D01*
X228858994Y-113036104D01*
X228886905Y-113023007D01*
X228916582Y-113012010D01*
X228947873Y-113003237D01*
X228980620Y-112996814D01*
X229014670Y-112992868D01*
X229049866Y-112991525D01*
X229074216Y-112992157D01*
X229098127Y-112994036D01*
X229121565Y-112997141D01*
X229144496Y-113001447D01*
X229166884Y-113006931D01*
X229188695Y-113013570D01*
X229209893Y-113021341D01*
X229230444Y-113030220D01*
X229250313Y-113040185D01*
X229269465Y-113051211D01*
X229287865Y-113063276D01*
X229305479Y-113076357D01*
X229322270Y-113090430D01*
X229338205Y-113105472D01*
X229353249Y-113121459D01*
X229367367Y-113138369D01*
X229575064Y-112992848D01*
X229563492Y-112970627D01*
X229551128Y-112949585D01*
X229538020Y-112929689D01*
X229524215Y-112910910D01*
X229509759Y-112893216D01*
X229494698Y-112876576D01*
X229479078Y-112860960D01*
X229462948Y-112846335D01*
X229446352Y-112832672D01*
X229429337Y-112819939D01*
X229411951Y-112808105D01*
X229394239Y-112797139D01*
X229358024Y-112777688D01*
X229321065Y-112761338D01*
X229283734Y-112747840D01*
X229246403Y-112736946D01*
X229209444Y-112728409D01*
X229173229Y-112721981D01*
X229138130Y-112717413D01*
X229104520Y-112714457D01*
X229072769Y-112712865D01*
X229043252Y-112712390D01*
X229009693Y-112713041D01*
X228976752Y-112714976D01*
X228944460Y-112718170D01*
X228912844Y-112722598D01*
X228881935Y-112728235D01*
X228851761Y-112735054D01*
X228822352Y-112743031D01*
X228793738Y-112752139D01*
X228765947Y-112762354D01*
X228739009Y-112773651D01*
X228712953Y-112786002D01*
X228687809Y-112799384D01*
X228663606Y-112813771D01*
X228640372Y-112829137D01*
X228618138Y-112845458D01*
X228596933Y-112862706D01*
X228576786Y-112880858D01*
X228557727Y-112899887D01*
X228539784Y-112919768D01*
X228522987Y-112940477D01*
X228507366Y-112961986D01*
X228492949Y-112984271D01*
X228479766Y-113007307D01*
X228467846Y-113031068D01*
X228457219Y-113055528D01*
X228447913Y-113080663D01*
X228439959Y-113106446D01*
X228433385Y-113132853D01*
X228428222Y-113159857D01*
X228424497Y-113187434D01*
X228422240Y-113215557D01*
X228421482Y-113244202D01*
X228422119Y-113270962D01*
X228424005Y-113296695D01*
X228427103Y-113321434D01*
X228431375Y-113345214D01*
X228436784Y-113368070D01*
X228443292Y-113390037D01*
X228450861Y-113411147D01*
X228459454Y-113431437D01*
X228469033Y-113450939D01*
X228479561Y-113469689D01*
X228491001Y-113487722D01*
X228503314Y-113505070D01*
X228516464Y-113521770D01*
X228530412Y-113537854D01*
X228560554Y-113568317D01*
X228593439Y-113596733D01*
X228628769Y-113623378D01*
X228666242Y-113648527D01*
X228705558Y-113672455D01*
X228746416Y-113695438D01*
X228788516Y-113717750D01*
X228875242Y-113761463D01*
X228891118Y-113769400D01*
X228892440Y-113769399D01*
X228982600Y-113814358D01*
X229027019Y-113837209D01*
X229070496Y-113860433D01*
X229112656Y-113884121D01*
X229153122Y-113908368D01*
X229191518Y-113933266D01*
X229227468Y-113958908D01*
X229244409Y-113972037D01*
X229260597Y-113985387D01*
X229275986Y-113998969D01*
X229290529Y-114012796D01*
X229304178Y-114026878D01*
X229316887Y-114041228D01*
X229328609Y-114055857D01*
X229339296Y-114070777D01*
X229348902Y-114085999D01*
X229357379Y-114101534D01*
X229364682Y-114117396D01*
X229370762Y-114133594D01*
X229375572Y-114150142D01*
X229379067Y-114167050D01*
X229381198Y-114184330D01*
X229381919Y-114201993D01*
X229381445Y-114216119D01*
X229380035Y-114229962D01*
X229377706Y-114243512D01*
X229374475Y-114256758D01*
X229370359Y-114269689D01*
X229365376Y-114282294D01*
X229359543Y-114294562D01*
X229352876Y-114306483D01*
X229345394Y-114318046D01*
X229337113Y-114329239D01*
X229328051Y-114340051D01*
X229318225Y-114350473D01*
X229307651Y-114360492D01*
X229296348Y-114370099D01*
X229271620Y-114388029D01*
X229244179Y-114404176D01*
X229214163Y-114418453D01*
X229181710Y-114430773D01*
X229146956Y-114441049D01*
X229110039Y-114449193D01*
X229071097Y-114455118D01*
X229030268Y-114458736D01*
X228987689Y-114459962D01*
X228954201Y-114459248D01*
X228921700Y-114457099D01*
X228890180Y-114453509D01*
X228859634Y-114448469D01*
X228830058Y-114441972D01*
X228801444Y-114434010D01*
X228773788Y-114424576D01*
X228747083Y-114413660D01*
X228721324Y-114401257D01*
X228696505Y-114387357D01*
X228672620Y-114371954D01*
X228649663Y-114355039D01*
X228627628Y-114336604D01*
X228606510Y-114316643D01*
X228586303Y-114295147D01*
X228567001Y-114272108D01*
X228336814Y-114433504D01*
X228182950Y-114433504D01*
X228160868Y-114392494D01*
X228601399Y-114082932D01*
X228638441Y-114142463D01*
X228653452Y-114165240D01*
X228669235Y-114186448D01*
X228685816Y-114206102D01*
X228703222Y-114224216D01*
X228721481Y-114240802D01*
X228740620Y-114255875D01*
X228760666Y-114269448D01*
X228781646Y-114281535D01*
X228803587Y-114292149D01*
X228826517Y-114301304D01*
X228850462Y-114309013D01*
X228875449Y-114315290D01*
X228901507Y-114320148D01*
X228928661Y-114323602D01*
X228956939Y-114325664D01*
X228986368Y-114326349D01*
X228985044Y-114327672D01*
X228998948Y-114327514D01*
X229012621Y-114327045D01*
X229026050Y-114326272D01*
X229039219Y-114325202D01*
X229052117Y-114323841D01*
X229064729Y-114322195D01*
X229077040Y-114320273D01*
X229089038Y-114318081D01*
X229100709Y-114315625D01*
X229112038Y-114312912D01*
X229123012Y-114309949D01*
X229133617Y-114306743D01*
X229143839Y-114303300D01*
X229153665Y-114299628D01*
X229163081Y-114295733D01*
X229172072Y-114291622D01*
X229180626Y-114287302D01*
X229188727Y-114282779D01*
X229196363Y-114278061D01*
X229203520Y-114273153D01*
X229210183Y-114268064D01*
X229216340Y-114262799D01*
X229221975Y-114257365D01*
X229227077Y-114251770D01*
X229231629Y-114246019D01*
X229235620Y-114240120D01*
X229239034Y-114234080D01*
X229241859Y-114227905D01*
X229244080Y-114221603D01*
X229245683Y-114215179D01*
X229246655Y-114208640D01*
X229246982Y-114201995D01*
X229246290Y-114191795D01*
X229244250Y-114181541D01*
X229240918Y-114171241D01*
X229236350Y-114160902D01*
X229230600Y-114150531D01*
X229223725Y-114140138D01*
X229206819Y-114119312D01*
X229186077Y-114098487D01*
X229161941Y-114077723D01*
X229134856Y-114057084D01*
X229105265Y-114036630D01*
X229073612Y-114016425D01*
X229040341Y-113996529D01*
X228970720Y-113957917D01*
X228899952Y-113921288D01*
X228831587Y-113887141D01*
X228815712Y-113879203D01*
X228725423Y-113834283D01*
X228679557Y-113810361D01*
X228633893Y-113785007D01*
X228588943Y-113757878D01*
X228545217Y-113728631D01*
X228503227Y-113696923D01*
X228463485Y-113662410D01*
X228444617Y-113643995D01*
X228426503Y-113624751D01*
X228409207Y-113604633D01*
X228392792Y-113583601D01*
X228377323Y-113561610D01*
X228362864Y-113538618D01*
X228349478Y-113514582D01*
X228337229Y-113489459D01*
X228326183Y-113463207D01*
X228316401Y-113435781D01*
X228307949Y-113407141D01*
X228300891Y-113377241D01*
X228295289Y-113346041D01*
X228291209Y-113313496D01*
X228288714Y-113279564D01*
X228287868Y-113244203D01*
X228288792Y-113208427D01*
X228291540Y-113173304D01*
X228296076Y-113138864D01*
X228302363Y-113105139D01*
X228310366Y-113072161D01*
X228320046Y-113039962D01*
X228331370Y-113008574D01*
X228344299Y-112978028D01*
X228358798Y-112948356D01*
X228374830Y-112919589D01*
X228392359Y-112891760D01*
X228411349Y-112864901D01*
X228431763Y-112839042D01*
X228453565Y-112814215D01*
X228476719Y-112790453D01*
X228501188Y-112767788D01*
X228526936Y-112746250D01*
X228553927Y-112725871D01*
X228582124Y-112706684D01*
X228611491Y-112688720D01*
X228641992Y-112672011D01*
X228673590Y-112656588D01*
X228706249Y-112642484D01*
X228739933Y-112629729D01*
X228774605Y-112618356D01*
X228810229Y-112608397D01*
X228846769Y-112599882D01*
X228884188Y-112592845D01*
X228922450Y-112587316D01*
X228961518Y-112583328D01*
X229001357Y-112580911D01*
X229041930Y-112580099D01*
X229072806Y-112580540D01*
G37*
G36*
X226892192Y-114002234D02*
G01*
X226892599Y-114019001D01*
X226893809Y-114035553D01*
X226895802Y-114051870D01*
X226898558Y-114067930D01*
X226902059Y-114083713D01*
X226906284Y-114099199D01*
X226911214Y-114114365D01*
X226916831Y-114129192D01*
X226923114Y-114143659D01*
X226930044Y-114157744D01*
X226937603Y-114171427D01*
X226945769Y-114184688D01*
X226954525Y-114197504D01*
X226963851Y-114209856D01*
X226973727Y-114221722D01*
X226984134Y-114233083D01*
X226995052Y-114243916D01*
X227006463Y-114254201D01*
X227018347Y-114263917D01*
X227030684Y-114273044D01*
X227043455Y-114281560D01*
X227056641Y-114289445D01*
X227070222Y-114296678D01*
X227084179Y-114303239D01*
X227098493Y-114309105D01*
X227113144Y-114314257D01*
X227128113Y-114318673D01*
X227143380Y-114322333D01*
X227158926Y-114325216D01*
X227174732Y-114327301D01*
X227190778Y-114328567D01*
X227207045Y-114328994D01*
X227223320Y-114328567D01*
X227239388Y-114327301D01*
X227255230Y-114325216D01*
X227270824Y-114322333D01*
X227286152Y-114318673D01*
X227301191Y-114314257D01*
X227315922Y-114309105D01*
X227330325Y-114303239D01*
X227344379Y-114296678D01*
X227358063Y-114289445D01*
X227371359Y-114281560D01*
X227384244Y-114273044D01*
X227396699Y-114263917D01*
X227408704Y-114254201D01*
X227420237Y-114243916D01*
X227431280Y-114233083D01*
X227441811Y-114221722D01*
X227451810Y-114209856D01*
X227461256Y-114197504D01*
X227470130Y-114184688D01*
X227478411Y-114171427D01*
X227486079Y-114157744D01*
X227493113Y-114143659D01*
X227499493Y-114129192D01*
X227505198Y-114114365D01*
X227510209Y-114099199D01*
X227514505Y-114083713D01*
X227518065Y-114067930D01*
X227520870Y-114051870D01*
X227522898Y-114035553D01*
X227524130Y-114019001D01*
X227524545Y-114002234D01*
X227524545Y-112625078D01*
X228077525Y-112625078D01*
X228077525Y-114003557D01*
X228076417Y-114049499D01*
X228073127Y-114094769D01*
X228067705Y-114139316D01*
X228060200Y-114183089D01*
X228050664Y-114226034D01*
X228039146Y-114268102D01*
X228025697Y-114309240D01*
X228010366Y-114349396D01*
X227993204Y-114388520D01*
X227974261Y-114426559D01*
X227953587Y-114463462D01*
X227931232Y-114499178D01*
X227907246Y-114533654D01*
X227881679Y-114566839D01*
X227854583Y-114598682D01*
X227826005Y-114629131D01*
X227795998Y-114658134D01*
X227764611Y-114685640D01*
X227731894Y-114711597D01*
X227697897Y-114735954D01*
X227662671Y-114758658D01*
X227626265Y-114779659D01*
X227588729Y-114798905D01*
X227550115Y-114816344D01*
X227510472Y-114831925D01*
X227469850Y-114845595D01*
X227428299Y-114857304D01*
X227385869Y-114867000D01*
X227342611Y-114874631D01*
X227298575Y-114880145D01*
X227253810Y-114883492D01*
X227208368Y-114884619D01*
X227163042Y-114883495D01*
X227118379Y-114880160D01*
X227074431Y-114874662D01*
X227031247Y-114867054D01*
X226988880Y-114857386D01*
X226947378Y-114845708D01*
X226906795Y-114832073D01*
X226867180Y-114816530D01*
X226828584Y-114799130D01*
X226791059Y-114779925D01*
X226754654Y-114758966D01*
X226719422Y-114736302D01*
X226685412Y-114711986D01*
X226652676Y-114686067D01*
X226621264Y-114658597D01*
X226591228Y-114629627D01*
X226562618Y-114599207D01*
X226535485Y-114567388D01*
X226509880Y-114534222D01*
X226485854Y-114499759D01*
X226463458Y-114464049D01*
X226442743Y-114427145D01*
X226423759Y-114389096D01*
X226406557Y-114349954D01*
X226391188Y-114309769D01*
X226377704Y-114268592D01*
X226366155Y-114226475D01*
X226356591Y-114183468D01*
X226349064Y-114139621D01*
X226343625Y-114094987D01*
X226340324Y-114049615D01*
X226339212Y-114003556D01*
X226339212Y-112756047D01*
X226471503Y-112756047D01*
X226471503Y-114002234D01*
X226472427Y-114041977D01*
X226475171Y-114081060D01*
X226479697Y-114119445D01*
X226485965Y-114157090D01*
X226493935Y-114193958D01*
X226503568Y-114230008D01*
X226514824Y-114265201D01*
X226527665Y-114299498D01*
X226542050Y-114332858D01*
X226557940Y-114365243D01*
X226575295Y-114396613D01*
X226594077Y-114426929D01*
X226614245Y-114456151D01*
X226635760Y-114484239D01*
X226658583Y-114511155D01*
X226682674Y-114536858D01*
X226707993Y-114561309D01*
X226734501Y-114584469D01*
X226762160Y-114606298D01*
X226790928Y-114626757D01*
X226820767Y-114645806D01*
X226851637Y-114663405D01*
X226883499Y-114679516D01*
X226916313Y-114694099D01*
X226950040Y-114707114D01*
X226984640Y-114718521D01*
X227020074Y-114728282D01*
X227056302Y-114736357D01*
X227093285Y-114742706D01*
X227130983Y-114747290D01*
X227169357Y-114750070D01*
X227208367Y-114751005D01*
X227247378Y-114750070D01*
X227285752Y-114747290D01*
X227323450Y-114742706D01*
X227360433Y-114736357D01*
X227396661Y-114728282D01*
X227432095Y-114718521D01*
X227466695Y-114707114D01*
X227500422Y-114694099D01*
X227533236Y-114679516D01*
X227565098Y-114663405D01*
X227595968Y-114645806D01*
X227625807Y-114626757D01*
X227654575Y-114606298D01*
X227682234Y-114584469D01*
X227708742Y-114561309D01*
X227734061Y-114536858D01*
X227758152Y-114511155D01*
X227780975Y-114484239D01*
X227802490Y-114456151D01*
X227822658Y-114426929D01*
X227841440Y-114396613D01*
X227858795Y-114365243D01*
X227874685Y-114332858D01*
X227889070Y-114299498D01*
X227901911Y-114265201D01*
X227913167Y-114230008D01*
X227922800Y-114193958D01*
X227930770Y-114157090D01*
X227937038Y-114119445D01*
X227941564Y-114081060D01*
X227944309Y-114041977D01*
X227945232Y-114002234D01*
X227945232Y-112756047D01*
X227656836Y-112756047D01*
X227656836Y-114000911D01*
X227656244Y-114024459D01*
X227654488Y-114047706D01*
X227651597Y-114070624D01*
X227647602Y-114093182D01*
X227642530Y-114115351D01*
X227636413Y-114137103D01*
X227629279Y-114158408D01*
X227621159Y-114179236D01*
X227612081Y-114199558D01*
X227602075Y-114219346D01*
X227591171Y-114238569D01*
X227579399Y-114257198D01*
X227566787Y-114275204D01*
X227553366Y-114292558D01*
X227539165Y-114309230D01*
X227524214Y-114325191D01*
X227508541Y-114340412D01*
X227492177Y-114354863D01*
X227475152Y-114368516D01*
X227457494Y-114381340D01*
X227439234Y-114393307D01*
X227420400Y-114404387D01*
X227401023Y-114414551D01*
X227381132Y-114423769D01*
X227360756Y-114432013D01*
X227339926Y-114439252D01*
X227318670Y-114445458D01*
X227297018Y-114450602D01*
X227275000Y-114454653D01*
X227252646Y-114457584D01*
X227229984Y-114459363D01*
X227207044Y-114459963D01*
X227184113Y-114459363D01*
X227161473Y-114457584D01*
X227139154Y-114454653D01*
X227117184Y-114450602D01*
X227095593Y-114445458D01*
X227074407Y-114439252D01*
X227053657Y-114432013D01*
X227033370Y-114423769D01*
X227013576Y-114414551D01*
X226994302Y-114404387D01*
X226975578Y-114393307D01*
X226957432Y-114381340D01*
X226939892Y-114368516D01*
X226922988Y-114354863D01*
X226906747Y-114340412D01*
X226891198Y-114325191D01*
X226876371Y-114309230D01*
X226862292Y-114292558D01*
X226848992Y-114275204D01*
X226836499Y-114257198D01*
X226824841Y-114238569D01*
X226814046Y-114219346D01*
X226804144Y-114199558D01*
X226795163Y-114179236D01*
X226787131Y-114158408D01*
X226780078Y-114137103D01*
X226774031Y-114115351D01*
X226769020Y-114093182D01*
X226765072Y-114070624D01*
X226762217Y-114047706D01*
X226760483Y-114024459D01*
X226759899Y-114000911D01*
X226759899Y-112756047D01*
X226471503Y-112756047D01*
X226339212Y-112756047D01*
X226339212Y-112625078D01*
X226892192Y-112625078D01*
X226892192Y-114002234D01*
G37*
G36*
X225042753Y-113904338D02*
G01*
X226004513Y-112574807D01*
X226127544Y-112574807D01*
X226127544Y-114840963D01*
X225577211Y-114840963D01*
X225577211Y-114080286D01*
X225078472Y-114805244D01*
X225008358Y-114805244D01*
X224985868Y-114776140D01*
X224506971Y-114080881D01*
X224506971Y-114840963D01*
X223956638Y-114840963D01*
X223956638Y-114706026D01*
X224087608Y-114706026D01*
X224373358Y-114706026D01*
X224374679Y-114704703D01*
X224374679Y-113651661D01*
X225042753Y-114621359D01*
X225709503Y-113651661D01*
X225709503Y-114706026D01*
X225995253Y-114706026D01*
X225995253Y-112810286D01*
X225042754Y-114126588D01*
X224087608Y-112810286D01*
X224087608Y-114706026D01*
X223956638Y-114706026D01*
X223956638Y-112574807D01*
X224079670Y-112574807D01*
X225042753Y-113904338D01*
G37*
G36*
X223239619Y-113851422D02*
G01*
X223239619Y-112684609D01*
X223658983Y-112684609D01*
X223658983Y-114811859D01*
X223640463Y-114811859D01*
X222403535Y-113609328D01*
X222403535Y-114774817D01*
X221985493Y-114774817D01*
X221985493Y-112651536D01*
X222005337Y-112651536D01*
X223239619Y-113851422D01*
G37*
G36*
X221677253Y-113102651D02*
G01*
X220841170Y-113102651D01*
X220841170Y-113508786D01*
X221559514Y-113508786D01*
X221559514Y-113926828D01*
X220841170Y-113926828D01*
X220841170Y-114356776D01*
X221677253Y-114356776D01*
X221677253Y-114772171D01*
X220421806Y-114772171D01*
X220421806Y-112689901D01*
X221677253Y-112689901D01*
X221677253Y-113102651D01*
G37*
G36*
X219491033Y-112692146D02*
G01*
X219528155Y-112694884D01*
X219564749Y-112699391D01*
X219600768Y-112705621D01*
X219636167Y-112713530D01*
X219670897Y-112723071D01*
X219704913Y-112734199D01*
X219738168Y-112746869D01*
X219770615Y-112761035D01*
X219802206Y-112776652D01*
X219832897Y-112793673D01*
X219862638Y-112812054D01*
X219891385Y-112831748D01*
X219919090Y-112852712D01*
X219945706Y-112874897D01*
X219971187Y-112898260D01*
X219995486Y-112922755D01*
X220018556Y-112948336D01*
X220040351Y-112974958D01*
X220060823Y-113002574D01*
X220079926Y-113031141D01*
X220097613Y-113060611D01*
X220113837Y-113090940D01*
X220128552Y-113122081D01*
X220141712Y-113153990D01*
X220153268Y-113186621D01*
X220163174Y-113219929D01*
X220171384Y-113253867D01*
X220177852Y-113288390D01*
X220182529Y-113323453D01*
X220185369Y-113359010D01*
X220186327Y-113395016D01*
X220185369Y-113431014D01*
X220182529Y-113466549D01*
X220177852Y-113501576D01*
X220171384Y-113536051D01*
X220163174Y-113569929D01*
X220153268Y-113603165D01*
X220141712Y-113635716D01*
X220128552Y-113667536D01*
X220113837Y-113698581D01*
X220097613Y-113728806D01*
X220079926Y-113758167D01*
X220060823Y-113786619D01*
X220040351Y-113814118D01*
X220018556Y-113840618D01*
X219995486Y-113866077D01*
X219971187Y-113890447D01*
X219945706Y-113913687D01*
X219919090Y-113935750D01*
X219891385Y-113956592D01*
X219862638Y-113976168D01*
X219832897Y-113994435D01*
X219802206Y-114011347D01*
X219770615Y-114026860D01*
X219738168Y-114040929D01*
X219704913Y-114053510D01*
X219670897Y-114064558D01*
X219636167Y-114074029D01*
X219600768Y-114081878D01*
X219564749Y-114088060D01*
X219528155Y-114092531D01*
X219491033Y-114095246D01*
X219453431Y-114096161D01*
X219141223Y-114096161D01*
X219139900Y-114096162D01*
X219139900Y-114773495D01*
X218721858Y-114773495D01*
X218721858Y-113105297D01*
X219141223Y-113105297D01*
X219141223Y-113683411D01*
X219453431Y-113683411D01*
X219469578Y-113683136D01*
X219485511Y-113682076D01*
X219501212Y-113680252D01*
X219516659Y-113677686D01*
X219531835Y-113674399D01*
X219546719Y-113670412D01*
X219561291Y-113665748D01*
X219575532Y-113660426D01*
X219589422Y-113654468D01*
X219602942Y-113647897D01*
X219616072Y-113640732D01*
X219628792Y-113632996D01*
X219641083Y-113624709D01*
X219652925Y-113615894D01*
X219664299Y-113606570D01*
X219675185Y-113596760D01*
X219685563Y-113586485D01*
X219695413Y-113575767D01*
X219704717Y-113564626D01*
X219713454Y-113553083D01*
X219721605Y-113541161D01*
X219729150Y-113528881D01*
X219736069Y-113516263D01*
X219742344Y-113503329D01*
X219747953Y-113490101D01*
X219752879Y-113476600D01*
X219757100Y-113462846D01*
X219760598Y-113448862D01*
X219763353Y-113434669D01*
X219765345Y-113420288D01*
X219766555Y-113405740D01*
X219766962Y-113391047D01*
X219766555Y-113376376D01*
X219765345Y-113361895D01*
X219763353Y-113347620D01*
X219760598Y-113333570D01*
X219757100Y-113319763D01*
X219752879Y-113306218D01*
X219747953Y-113292952D01*
X219742344Y-113279984D01*
X219736069Y-113267332D01*
X219729150Y-113255014D01*
X219721605Y-113243048D01*
X219713454Y-113231452D01*
X219704717Y-113220245D01*
X219695413Y-113209445D01*
X219685563Y-113199069D01*
X219675185Y-113189137D01*
X219664299Y-113179666D01*
X219652926Y-113170674D01*
X219641083Y-113162179D01*
X219628792Y-113154201D01*
X219616072Y-113146756D01*
X219602942Y-113139864D01*
X219589422Y-113133541D01*
X219575532Y-113127807D01*
X219561291Y-113122680D01*
X219546719Y-113118177D01*
X219531835Y-113114317D01*
X219516660Y-113111118D01*
X219501212Y-113108599D01*
X219485511Y-113106776D01*
X219469578Y-113105670D01*
X219453431Y-113105297D01*
X219141223Y-113105297D01*
X218721858Y-113105297D01*
X218721858Y-112691224D01*
X219453431Y-112691224D01*
X219491033Y-112692146D01*
G37*
G36*
X217424000Y-112649000D02*
G01*
X217478787Y-112653253D01*
X217532807Y-112660253D01*
X217585990Y-112669927D01*
X217638266Y-112682204D01*
X217689565Y-112697011D01*
X217739817Y-112714277D01*
X217788954Y-112733928D01*
X217836905Y-112755893D01*
X217883599Y-112780100D01*
X217928969Y-112806477D01*
X217972943Y-112834950D01*
X218015452Y-112865449D01*
X218056426Y-112897901D01*
X218095796Y-112932233D01*
X218133491Y-112968374D01*
X218169442Y-113006251D01*
X218203580Y-113045792D01*
X218235834Y-113086925D01*
X218266134Y-113129578D01*
X218294411Y-113173679D01*
X218320596Y-113219155D01*
X218344618Y-113265934D01*
X218366407Y-113313944D01*
X218385894Y-113363113D01*
X218403009Y-113413369D01*
X218417683Y-113464639D01*
X218429845Y-113516852D01*
X218439426Y-113569934D01*
X218446356Y-113623815D01*
X218450565Y-113678421D01*
X218451983Y-113733681D01*
X218450557Y-113788918D01*
X218446326Y-113843458D01*
X218439361Y-113897231D01*
X218429734Y-113950169D01*
X218417514Y-114002202D01*
X218402774Y-114053261D01*
X218385584Y-114103276D01*
X218366014Y-114152178D01*
X218344137Y-114199898D01*
X218320023Y-114246366D01*
X218293742Y-114291514D01*
X218265367Y-114335273D01*
X218234967Y-114377571D01*
X218202614Y-114418342D01*
X218168379Y-114457514D01*
X218132333Y-114495020D01*
X218094547Y-114530789D01*
X218055092Y-114564753D01*
X218014038Y-114596841D01*
X217971457Y-114626986D01*
X217927420Y-114655117D01*
X217881997Y-114681166D01*
X217835260Y-114705062D01*
X217787279Y-114726737D01*
X217738127Y-114746122D01*
X217687872Y-114763146D01*
X217636588Y-114777742D01*
X217584344Y-114789839D01*
X217531211Y-114799369D01*
X217477261Y-114806261D01*
X217422564Y-114810448D01*
X217367192Y-114811858D01*
X217311831Y-114810463D01*
X217257167Y-114806319D01*
X217203270Y-114799495D01*
X217150210Y-114790056D01*
X217098056Y-114778069D01*
X217046877Y-114763600D01*
X216996743Y-114746715D01*
X216947724Y-114727481D01*
X216899888Y-114705965D01*
X216853307Y-114682231D01*
X216808048Y-114656348D01*
X216764182Y-114628381D01*
X216721778Y-114598397D01*
X216680906Y-114566462D01*
X216641634Y-114532642D01*
X216604034Y-114497004D01*
X216568174Y-114459615D01*
X216534123Y-114420539D01*
X216501952Y-114379845D01*
X216471729Y-114337598D01*
X216443525Y-114293865D01*
X216417409Y-114248712D01*
X216393450Y-114202205D01*
X216371717Y-114154410D01*
X216352282Y-114105395D01*
X216335212Y-114055226D01*
X216320577Y-114003968D01*
X216308447Y-113951689D01*
X216298892Y-113898454D01*
X216291981Y-113844330D01*
X216287783Y-113789384D01*
X216286369Y-113733681D01*
X216286436Y-113731036D01*
X216708379Y-113731036D01*
X216709240Y-113764697D01*
X216711795Y-113797937D01*
X216716003Y-113830711D01*
X216721820Y-113862979D01*
X216729205Y-113894697D01*
X216738116Y-113925823D01*
X216748510Y-113956316D01*
X216760345Y-113986131D01*
X216773579Y-114015228D01*
X216788171Y-114043564D01*
X216804077Y-114071095D01*
X216821256Y-114097781D01*
X216839665Y-114123578D01*
X216859263Y-114148444D01*
X216880007Y-114172337D01*
X216901856Y-114195214D01*
X216924766Y-114217033D01*
X216948696Y-114237752D01*
X216973603Y-114257328D01*
X216999447Y-114275718D01*
X217026183Y-114292881D01*
X217053771Y-114308774D01*
X217082167Y-114323355D01*
X217111331Y-114336580D01*
X217141220Y-114348409D01*
X217171791Y-114358797D01*
X217203002Y-114367704D01*
X217234812Y-114375087D01*
X217267178Y-114380903D01*
X217300058Y-114385109D01*
X217333410Y-114387664D01*
X217367192Y-114388525D01*
X217401097Y-114387672D01*
X217434573Y-114385138D01*
X217467576Y-114380966D01*
X217500065Y-114375195D01*
X217531996Y-114367868D01*
X217563328Y-114359024D01*
X217594018Y-114348705D01*
X217624023Y-114336952D01*
X217653302Y-114323806D01*
X217681812Y-114309307D01*
X217709510Y-114293497D01*
X217736355Y-114276416D01*
X217762303Y-114258106D01*
X217787313Y-114238607D01*
X217811341Y-114217960D01*
X217834346Y-114196206D01*
X217856286Y-114173387D01*
X217877117Y-114149543D01*
X217896797Y-114124715D01*
X217915285Y-114098944D01*
X217932537Y-114072270D01*
X217948511Y-114044736D01*
X217963165Y-114016381D01*
X217976457Y-113987248D01*
X217988343Y-113957375D01*
X217998782Y-113926806D01*
X218007732Y-113895580D01*
X218015149Y-113863738D01*
X218020992Y-113831322D01*
X218025218Y-113798373D01*
X218027785Y-113764930D01*
X218028650Y-113731036D01*
X218027781Y-113697130D01*
X218025204Y-113663655D01*
X218020961Y-113630651D01*
X218015095Y-113598163D01*
X218007650Y-113566231D01*
X217998669Y-113534900D01*
X217988195Y-113504210D01*
X217976271Y-113474204D01*
X217962939Y-113444925D01*
X217948244Y-113416415D01*
X217932229Y-113388717D01*
X217914936Y-113361872D01*
X217896408Y-113335924D01*
X217876689Y-113310914D01*
X217855822Y-113286886D01*
X217833850Y-113263881D01*
X217810816Y-113241942D01*
X217786763Y-113221111D01*
X217761735Y-113201430D01*
X217735774Y-113182943D01*
X217708923Y-113165691D01*
X217681226Y-113149716D01*
X217652726Y-113135062D01*
X217623465Y-113121771D01*
X217593488Y-113109884D01*
X217562836Y-113099445D01*
X217531554Y-113090495D01*
X217499685Y-113083078D01*
X217467270Y-113077235D01*
X217434355Y-113073009D01*
X217400981Y-113070442D01*
X217367192Y-113069578D01*
X217333410Y-113070450D01*
X217300058Y-113073038D01*
X217267178Y-113077298D01*
X217234812Y-113083186D01*
X217203002Y-113090659D01*
X217171791Y-113099672D01*
X217141220Y-113110181D01*
X217111331Y-113122143D01*
X217082167Y-113135514D01*
X217053771Y-113150249D01*
X217026183Y-113166306D01*
X216999447Y-113183640D01*
X216973603Y-113202208D01*
X216948696Y-113221965D01*
X216924766Y-113242868D01*
X216901856Y-113264873D01*
X216880007Y-113287936D01*
X216859263Y-113312013D01*
X216839665Y-113337061D01*
X216821256Y-113363035D01*
X216804077Y-113389892D01*
X216788171Y-113417588D01*
X216773579Y-113446078D01*
X216760345Y-113475320D01*
X216748510Y-113505269D01*
X216738116Y-113535882D01*
X216729205Y-113567114D01*
X216721820Y-113598923D01*
X216716003Y-113631263D01*
X216711795Y-113664091D01*
X216709240Y-113697363D01*
X216708379Y-113731036D01*
X216286436Y-113731036D01*
X216287783Y-113677956D01*
X216291981Y-113622943D01*
X216298893Y-113568713D01*
X216308450Y-113515333D01*
X216320582Y-113462874D01*
X216335220Y-113411405D01*
X216352295Y-113360994D01*
X216371738Y-113311713D01*
X216393479Y-113263628D01*
X216417449Y-113216811D01*
X216443579Y-113171329D01*
X216471799Y-113127254D01*
X216502041Y-113084652D01*
X216534234Y-113043595D01*
X216568310Y-113004151D01*
X216604199Y-112966390D01*
X216641833Y-112930380D01*
X216681141Y-112896192D01*
X216722055Y-112863894D01*
X216764505Y-112833556D01*
X216808422Y-112805246D01*
X216853736Y-112779035D01*
X216900380Y-112754991D01*
X216948282Y-112733185D01*
X216997374Y-112713684D01*
X217047586Y-112696558D01*
X217098850Y-112681877D01*
X217151096Y-112669710D01*
X217204255Y-112660127D01*
X217258257Y-112653195D01*
X217313033Y-112648986D01*
X217368515Y-112647567D01*
X217424000Y-112649000D01*
G37*
D11*
X218360666Y-138602819D02*
X218360666Y-139317104D01*
X218360666Y-139317104D02*
X218313047Y-139459961D01*
X218313047Y-139459961D02*
X218217809Y-139555200D01*
X218217809Y-139555200D02*
X218074952Y-139602819D01*
X218074952Y-139602819D02*
X217979714Y-139602819D01*
X219313047Y-138602819D02*
X218836857Y-138602819D01*
X218836857Y-138602819D02*
X218789238Y-139079009D01*
X218789238Y-139079009D02*
X218836857Y-139031390D01*
X218836857Y-139031390D02*
X218932095Y-138983771D01*
X218932095Y-138983771D02*
X219170190Y-138983771D01*
X219170190Y-138983771D02*
X219265428Y-139031390D01*
X219265428Y-139031390D02*
X219313047Y-139079009D01*
X219313047Y-139079009D02*
X219360666Y-139174247D01*
X219360666Y-139174247D02*
X219360666Y-139412342D01*
X219360666Y-139412342D02*
X219313047Y-139507580D01*
X219313047Y-139507580D02*
X219265428Y-139555200D01*
X219265428Y-139555200D02*
X219170190Y-139602819D01*
X219170190Y-139602819D02*
X218932095Y-139602819D01*
X218932095Y-139602819D02*
X218836857Y-139555200D01*
X218836857Y-139555200D02*
X218789238Y-139507580D01*
X221942819Y-93130666D02*
X221466628Y-93463999D01*
X221942819Y-93702094D02*
X220942819Y-93702094D01*
X220942819Y-93702094D02*
X220942819Y-93321142D01*
X220942819Y-93321142D02*
X220990438Y-93225904D01*
X220990438Y-93225904D02*
X221038057Y-93178285D01*
X221038057Y-93178285D02*
X221133295Y-93130666D01*
X221133295Y-93130666D02*
X221276152Y-93130666D01*
X221276152Y-93130666D02*
X221371390Y-93178285D01*
X221371390Y-93178285D02*
X221419009Y-93225904D01*
X221419009Y-93225904D02*
X221466628Y-93321142D01*
X221466628Y-93321142D02*
X221466628Y-93702094D01*
X221038057Y-92749713D02*
X220990438Y-92702094D01*
X220990438Y-92702094D02*
X220942819Y-92606856D01*
X220942819Y-92606856D02*
X220942819Y-92368761D01*
X220942819Y-92368761D02*
X220990438Y-92273523D01*
X220990438Y-92273523D02*
X221038057Y-92225904D01*
X221038057Y-92225904D02*
X221133295Y-92178285D01*
X221133295Y-92178285D02*
X221228533Y-92178285D01*
X221228533Y-92178285D02*
X221371390Y-92225904D01*
X221371390Y-92225904D02*
X221942819Y-92797332D01*
X221942819Y-92797332D02*
X221942819Y-92178285D01*
X210687595Y-106340819D02*
X210687595Y-107150342D01*
X210687595Y-107150342D02*
X210735214Y-107245580D01*
X210735214Y-107245580D02*
X210782833Y-107293200D01*
X210782833Y-107293200D02*
X210878071Y-107340819D01*
X210878071Y-107340819D02*
X211068547Y-107340819D01*
X211068547Y-107340819D02*
X211163785Y-107293200D01*
X211163785Y-107293200D02*
X211211404Y-107245580D01*
X211211404Y-107245580D02*
X211259023Y-107150342D01*
X211259023Y-107150342D02*
X211259023Y-106340819D01*
X212211404Y-106340819D02*
X211735214Y-106340819D01*
X211735214Y-106340819D02*
X211687595Y-106817009D01*
X211687595Y-106817009D02*
X211735214Y-106769390D01*
X211735214Y-106769390D02*
X211830452Y-106721771D01*
X211830452Y-106721771D02*
X212068547Y-106721771D01*
X212068547Y-106721771D02*
X212163785Y-106769390D01*
X212163785Y-106769390D02*
X212211404Y-106817009D01*
X212211404Y-106817009D02*
X212259023Y-106912247D01*
X212259023Y-106912247D02*
X212259023Y-107150342D01*
X212259023Y-107150342D02*
X212211404Y-107245580D01*
X212211404Y-107245580D02*
X212163785Y-107293200D01*
X212163785Y-107293200D02*
X212068547Y-107340819D01*
X212068547Y-107340819D02*
X211830452Y-107340819D01*
X211830452Y-107340819D02*
X211735214Y-107293200D01*
X211735214Y-107293200D02*
X211687595Y-107245580D01*
X220945666Y-119574819D02*
X220945666Y-120289104D01*
X220945666Y-120289104D02*
X220898047Y-120431961D01*
X220898047Y-120431961D02*
X220802809Y-120527200D01*
X220802809Y-120527200D02*
X220659952Y-120574819D01*
X220659952Y-120574819D02*
X220564714Y-120574819D01*
X221421857Y-120574819D02*
X221421857Y-119574819D01*
X221421857Y-119574819D02*
X221802809Y-119574819D01*
X221802809Y-119574819D02*
X221898047Y-119622438D01*
X221898047Y-119622438D02*
X221945666Y-119670057D01*
X221945666Y-119670057D02*
X221993285Y-119765295D01*
X221993285Y-119765295D02*
X221993285Y-119908152D01*
X221993285Y-119908152D02*
X221945666Y-120003390D01*
X221945666Y-120003390D02*
X221898047Y-120051009D01*
X221898047Y-120051009D02*
X221802809Y-120098628D01*
X221802809Y-120098628D02*
X221421857Y-120098628D01*
X222945666Y-120574819D02*
X222374238Y-120574819D01*
X222659952Y-120574819D02*
X222659952Y-119574819D01*
X222659952Y-119574819D02*
X222564714Y-119717676D01*
X222564714Y-119717676D02*
X222469476Y-119812914D01*
X222469476Y-119812914D02*
X222374238Y-119860533D01*
X231007595Y-96556819D02*
X231007595Y-97366342D01*
X231007595Y-97366342D02*
X231055214Y-97461580D01*
X231055214Y-97461580D02*
X231102833Y-97509200D01*
X231102833Y-97509200D02*
X231198071Y-97556819D01*
X231198071Y-97556819D02*
X231388547Y-97556819D01*
X231388547Y-97556819D02*
X231483785Y-97509200D01*
X231483785Y-97509200D02*
X231531404Y-97461580D01*
X231531404Y-97461580D02*
X231579023Y-97366342D01*
X231579023Y-97366342D02*
X231579023Y-96556819D01*
X232007595Y-96652057D02*
X232055214Y-96604438D01*
X232055214Y-96604438D02*
X232150452Y-96556819D01*
X232150452Y-96556819D02*
X232388547Y-96556819D01*
X232388547Y-96556819D02*
X232483785Y-96604438D01*
X232483785Y-96604438D02*
X232531404Y-96652057D01*
X232531404Y-96652057D02*
X232579023Y-96747295D01*
X232579023Y-96747295D02*
X232579023Y-96842533D01*
X232579023Y-96842533D02*
X232531404Y-96985390D01*
X232531404Y-96985390D02*
X231959976Y-97556819D01*
X231959976Y-97556819D02*
X232579023Y-97556819D01*
X234362666Y-131744819D02*
X234362666Y-132459104D01*
X234362666Y-132459104D02*
X234315047Y-132601961D01*
X234315047Y-132601961D02*
X234219809Y-132697200D01*
X234219809Y-132697200D02*
X234076952Y-132744819D01*
X234076952Y-132744819D02*
X233981714Y-132744819D01*
X234743619Y-131744819D02*
X235362666Y-131744819D01*
X235362666Y-131744819D02*
X235029333Y-132125771D01*
X235029333Y-132125771D02*
X235172190Y-132125771D01*
X235172190Y-132125771D02*
X235267428Y-132173390D01*
X235267428Y-132173390D02*
X235315047Y-132221009D01*
X235315047Y-132221009D02*
X235362666Y-132316247D01*
X235362666Y-132316247D02*
X235362666Y-132554342D01*
X235362666Y-132554342D02*
X235315047Y-132649580D01*
X235315047Y-132649580D02*
X235267428Y-132697200D01*
X235267428Y-132697200D02*
X235172190Y-132744819D01*
X235172190Y-132744819D02*
X234886476Y-132744819D01*
X234886476Y-132744819D02*
X234791238Y-132697200D01*
X234791238Y-132697200D02*
X234743619Y-132649580D01*
X221321333Y-139551580D02*
X221273714Y-139599200D01*
X221273714Y-139599200D02*
X221130857Y-139646819D01*
X221130857Y-139646819D02*
X221035619Y-139646819D01*
X221035619Y-139646819D02*
X220892762Y-139599200D01*
X220892762Y-139599200D02*
X220797524Y-139503961D01*
X220797524Y-139503961D02*
X220749905Y-139408723D01*
X220749905Y-139408723D02*
X220702286Y-139218247D01*
X220702286Y-139218247D02*
X220702286Y-139075390D01*
X220702286Y-139075390D02*
X220749905Y-138884914D01*
X220749905Y-138884914D02*
X220797524Y-138789676D01*
X220797524Y-138789676D02*
X220892762Y-138694438D01*
X220892762Y-138694438D02*
X221035619Y-138646819D01*
X221035619Y-138646819D02*
X221130857Y-138646819D01*
X221130857Y-138646819D02*
X221273714Y-138694438D01*
X221273714Y-138694438D02*
X221321333Y-138742057D01*
X222273714Y-139646819D02*
X221702286Y-139646819D01*
X221988000Y-139646819D02*
X221988000Y-138646819D01*
X221988000Y-138646819D02*
X221892762Y-138789676D01*
X221892762Y-138789676D02*
X221797524Y-138884914D01*
X221797524Y-138884914D02*
X221702286Y-138932533D01*
X220305333Y-95355580D02*
X220257714Y-95403200D01*
X220257714Y-95403200D02*
X220114857Y-95450819D01*
X220114857Y-95450819D02*
X220019619Y-95450819D01*
X220019619Y-95450819D02*
X219876762Y-95403200D01*
X219876762Y-95403200D02*
X219781524Y-95307961D01*
X219781524Y-95307961D02*
X219733905Y-95212723D01*
X219733905Y-95212723D02*
X219686286Y-95022247D01*
X219686286Y-95022247D02*
X219686286Y-94879390D01*
X219686286Y-94879390D02*
X219733905Y-94688914D01*
X219733905Y-94688914D02*
X219781524Y-94593676D01*
X219781524Y-94593676D02*
X219876762Y-94498438D01*
X219876762Y-94498438D02*
X220019619Y-94450819D01*
X220019619Y-94450819D02*
X220114857Y-94450819D01*
X220114857Y-94450819D02*
X220257714Y-94498438D01*
X220257714Y-94498438D02*
X220305333Y-94546057D01*
X220686286Y-94546057D02*
X220733905Y-94498438D01*
X220733905Y-94498438D02*
X220829143Y-94450819D01*
X220829143Y-94450819D02*
X221067238Y-94450819D01*
X221067238Y-94450819D02*
X221162476Y-94498438D01*
X221162476Y-94498438D02*
X221210095Y-94546057D01*
X221210095Y-94546057D02*
X221257714Y-94641295D01*
X221257714Y-94641295D02*
X221257714Y-94736533D01*
X221257714Y-94736533D02*
X221210095Y-94879390D01*
X221210095Y-94879390D02*
X220638667Y-95450819D01*
X220638667Y-95450819D02*
X221257714Y-95450819D01*
X225517666Y-119574819D02*
X225517666Y-120289104D01*
X225517666Y-120289104D02*
X225470047Y-120431961D01*
X225470047Y-120431961D02*
X225374809Y-120527200D01*
X225374809Y-120527200D02*
X225231952Y-120574819D01*
X225231952Y-120574819D02*
X225136714Y-120574819D01*
X225993857Y-120574819D02*
X225993857Y-119574819D01*
X225993857Y-119574819D02*
X226374809Y-119574819D01*
X226374809Y-119574819D02*
X226470047Y-119622438D01*
X226470047Y-119622438D02*
X226517666Y-119670057D01*
X226517666Y-119670057D02*
X226565285Y-119765295D01*
X226565285Y-119765295D02*
X226565285Y-119908152D01*
X226565285Y-119908152D02*
X226517666Y-120003390D01*
X226517666Y-120003390D02*
X226470047Y-120051009D01*
X226470047Y-120051009D02*
X226374809Y-120098628D01*
X226374809Y-120098628D02*
X225993857Y-120098628D01*
X226946238Y-119670057D02*
X226993857Y-119622438D01*
X226993857Y-119622438D02*
X227089095Y-119574819D01*
X227089095Y-119574819D02*
X227327190Y-119574819D01*
X227327190Y-119574819D02*
X227422428Y-119622438D01*
X227422428Y-119622438D02*
X227470047Y-119670057D01*
X227470047Y-119670057D02*
X227517666Y-119765295D01*
X227517666Y-119765295D02*
X227517666Y-119860533D01*
X227517666Y-119860533D02*
X227470047Y-120003390D01*
X227470047Y-120003390D02*
X226898619Y-120574819D01*
X226898619Y-120574819D02*
X227517666Y-120574819D01*
X215087580Y-105764666D02*
X215135200Y-105812285D01*
X215135200Y-105812285D02*
X215182819Y-105955142D01*
X215182819Y-105955142D02*
X215182819Y-106050380D01*
X215182819Y-106050380D02*
X215135200Y-106193237D01*
X215135200Y-106193237D02*
X215039961Y-106288475D01*
X215039961Y-106288475D02*
X214944723Y-106336094D01*
X214944723Y-106336094D02*
X214754247Y-106383713D01*
X214754247Y-106383713D02*
X214611390Y-106383713D01*
X214611390Y-106383713D02*
X214420914Y-106336094D01*
X214420914Y-106336094D02*
X214325676Y-106288475D01*
X214325676Y-106288475D02*
X214230438Y-106193237D01*
X214230438Y-106193237D02*
X214182819Y-106050380D01*
X214182819Y-106050380D02*
X214182819Y-105955142D01*
X214182819Y-105955142D02*
X214230438Y-105812285D01*
X214230438Y-105812285D02*
X214278057Y-105764666D01*
X215182819Y-105288475D02*
X215182819Y-105097999D01*
X215182819Y-105097999D02*
X215135200Y-105002761D01*
X215135200Y-105002761D02*
X215087580Y-104955142D01*
X215087580Y-104955142D02*
X214944723Y-104859904D01*
X214944723Y-104859904D02*
X214754247Y-104812285D01*
X214754247Y-104812285D02*
X214373295Y-104812285D01*
X214373295Y-104812285D02*
X214278057Y-104859904D01*
X214278057Y-104859904D02*
X214230438Y-104907523D01*
X214230438Y-104907523D02*
X214182819Y-105002761D01*
X214182819Y-105002761D02*
X214182819Y-105193237D01*
X214182819Y-105193237D02*
X214230438Y-105288475D01*
X214230438Y-105288475D02*
X214278057Y-105336094D01*
X214278057Y-105336094D02*
X214373295Y-105383713D01*
X214373295Y-105383713D02*
X214611390Y-105383713D01*
X214611390Y-105383713D02*
X214706628Y-105336094D01*
X214706628Y-105336094D02*
X214754247Y-105288475D01*
X214754247Y-105288475D02*
X214801866Y-105193237D01*
X214801866Y-105193237D02*
X214801866Y-105002761D01*
X214801866Y-105002761D02*
X214754247Y-104907523D01*
X214754247Y-104907523D02*
X214706628Y-104859904D01*
X214706628Y-104859904D02*
X214611390Y-104812285D01*
X214550666Y-127680819D02*
X214550666Y-128395104D01*
X214550666Y-128395104D02*
X214503047Y-128537961D01*
X214503047Y-128537961D02*
X214407809Y-128633200D01*
X214407809Y-128633200D02*
X214264952Y-128680819D01*
X214264952Y-128680819D02*
X214169714Y-128680819D01*
X215550666Y-128680819D02*
X214979238Y-128680819D01*
X215264952Y-128680819D02*
X215264952Y-127680819D01*
X215264952Y-127680819D02*
X215169714Y-127823676D01*
X215169714Y-127823676D02*
X215074476Y-127918914D01*
X215074476Y-127918914D02*
X214979238Y-127966533D01*
X226865819Y-93702094D02*
X225865819Y-93702094D01*
X225865819Y-93702094D02*
X225865819Y-93463999D01*
X225865819Y-93463999D02*
X225913438Y-93321142D01*
X225913438Y-93321142D02*
X226008676Y-93225904D01*
X226008676Y-93225904D02*
X226103914Y-93178285D01*
X226103914Y-93178285D02*
X226294390Y-93130666D01*
X226294390Y-93130666D02*
X226437247Y-93130666D01*
X226437247Y-93130666D02*
X226627723Y-93178285D01*
X226627723Y-93178285D02*
X226722961Y-93225904D01*
X226722961Y-93225904D02*
X226818200Y-93321142D01*
X226818200Y-93321142D02*
X226865819Y-93463999D01*
X226865819Y-93463999D02*
X226865819Y-93702094D01*
X226865819Y-92178285D02*
X226865819Y-92749713D01*
X226865819Y-92463999D02*
X225865819Y-92463999D01*
X225865819Y-92463999D02*
X226008676Y-92559237D01*
X226008676Y-92559237D02*
X226103914Y-92654475D01*
X226103914Y-92654475D02*
X226151533Y-92749713D01*
X226608819Y-97702666D02*
X226132628Y-98035999D01*
X226608819Y-98274094D02*
X225608819Y-98274094D01*
X225608819Y-98274094D02*
X225608819Y-97893142D01*
X225608819Y-97893142D02*
X225656438Y-97797904D01*
X225656438Y-97797904D02*
X225704057Y-97750285D01*
X225704057Y-97750285D02*
X225799295Y-97702666D01*
X225799295Y-97702666D02*
X225942152Y-97702666D01*
X225942152Y-97702666D02*
X226037390Y-97750285D01*
X226037390Y-97750285D02*
X226085009Y-97797904D01*
X226085009Y-97797904D02*
X226132628Y-97893142D01*
X226132628Y-97893142D02*
X226132628Y-98274094D01*
X226608819Y-96750285D02*
X226608819Y-97321713D01*
X226608819Y-97035999D02*
X225608819Y-97035999D01*
X225608819Y-97035999D02*
X225751676Y-97131237D01*
X225751676Y-97131237D02*
X225846914Y-97226475D01*
X225846914Y-97226475D02*
X225894533Y-97321713D01*
D12*
X214341419Y-118109904D02*
X215150942Y-118109904D01*
X215150942Y-118109904D02*
X215246180Y-118062285D01*
X215246180Y-118062285D02*
X215293800Y-118014666D01*
X215293800Y-118014666D02*
X215341419Y-117919428D01*
X215341419Y-117919428D02*
X215341419Y-117728952D01*
X215341419Y-117728952D02*
X215293800Y-117633714D01*
X215293800Y-117633714D02*
X215246180Y-117586095D01*
X215246180Y-117586095D02*
X215150942Y-117538476D01*
X215150942Y-117538476D02*
X214341419Y-117538476D01*
X215341419Y-116538476D02*
X215341419Y-117109904D01*
X215341419Y-116824190D02*
X214341419Y-116824190D01*
X214341419Y-116824190D02*
X214484276Y-116919428D01*
X214484276Y-116919428D02*
X214579514Y-117014666D01*
X214579514Y-117014666D02*
X214627133Y-117109904D01*
D11*
X235037333Y-127454819D02*
X234704000Y-126978628D01*
X234465905Y-127454819D02*
X234465905Y-126454819D01*
X234465905Y-126454819D02*
X234846857Y-126454819D01*
X234846857Y-126454819D02*
X234942095Y-126502438D01*
X234942095Y-126502438D02*
X234989714Y-126550057D01*
X234989714Y-126550057D02*
X235037333Y-126645295D01*
X235037333Y-126645295D02*
X235037333Y-126788152D01*
X235037333Y-126788152D02*
X234989714Y-126883390D01*
X234989714Y-126883390D02*
X234942095Y-126931009D01*
X234942095Y-126931009D02*
X234846857Y-126978628D01*
X234846857Y-126978628D02*
X234465905Y-126978628D01*
X235608762Y-126883390D02*
X235513524Y-126835771D01*
X235513524Y-126835771D02*
X235465905Y-126788152D01*
X235465905Y-126788152D02*
X235418286Y-126692914D01*
X235418286Y-126692914D02*
X235418286Y-126645295D01*
X235418286Y-126645295D02*
X235465905Y-126550057D01*
X235465905Y-126550057D02*
X235513524Y-126502438D01*
X235513524Y-126502438D02*
X235608762Y-126454819D01*
X235608762Y-126454819D02*
X235799238Y-126454819D01*
X235799238Y-126454819D02*
X235894476Y-126502438D01*
X235894476Y-126502438D02*
X235942095Y-126550057D01*
X235942095Y-126550057D02*
X235989714Y-126645295D01*
X235989714Y-126645295D02*
X235989714Y-126692914D01*
X235989714Y-126692914D02*
X235942095Y-126788152D01*
X235942095Y-126788152D02*
X235894476Y-126835771D01*
X235894476Y-126835771D02*
X235799238Y-126883390D01*
X235799238Y-126883390D02*
X235608762Y-126883390D01*
X235608762Y-126883390D02*
X235513524Y-126931009D01*
X235513524Y-126931009D02*
X235465905Y-126978628D01*
X235465905Y-126978628D02*
X235418286Y-127073866D01*
X235418286Y-127073866D02*
X235418286Y-127264342D01*
X235418286Y-127264342D02*
X235465905Y-127359580D01*
X235465905Y-127359580D02*
X235513524Y-127407200D01*
X235513524Y-127407200D02*
X235608762Y-127454819D01*
X235608762Y-127454819D02*
X235799238Y-127454819D01*
X235799238Y-127454819D02*
X235894476Y-127407200D01*
X235894476Y-127407200D02*
X235942095Y-127359580D01*
X235942095Y-127359580D02*
X235989714Y-127264342D01*
X235989714Y-127264342D02*
X235989714Y-127073866D01*
X235989714Y-127073866D02*
X235942095Y-126978628D01*
X235942095Y-126978628D02*
X235894476Y-126931009D01*
X235894476Y-126931009D02*
X235799238Y-126883390D01*
X207982819Y-101425333D02*
X208697104Y-101425333D01*
X208697104Y-101425333D02*
X208839961Y-101472952D01*
X208839961Y-101472952D02*
X208935200Y-101568190D01*
X208935200Y-101568190D02*
X208982819Y-101711047D01*
X208982819Y-101711047D02*
X208982819Y-101806285D01*
X208316152Y-100520571D02*
X208982819Y-100520571D01*
X207935200Y-100758666D02*
X208649485Y-100996761D01*
X208649485Y-100996761D02*
X208649485Y-100377714D01*
X210486666Y-131744819D02*
X210486666Y-132459104D01*
X210486666Y-132459104D02*
X210439047Y-132601961D01*
X210439047Y-132601961D02*
X210343809Y-132697200D01*
X210343809Y-132697200D02*
X210200952Y-132744819D01*
X210200952Y-132744819D02*
X210105714Y-132744819D01*
X210915238Y-131840057D02*
X210962857Y-131792438D01*
X210962857Y-131792438D02*
X211058095Y-131744819D01*
X211058095Y-131744819D02*
X211296190Y-131744819D01*
X211296190Y-131744819D02*
X211391428Y-131792438D01*
X211391428Y-131792438D02*
X211439047Y-131840057D01*
X211439047Y-131840057D02*
X211486666Y-131935295D01*
X211486666Y-131935295D02*
X211486666Y-132030533D01*
X211486666Y-132030533D02*
X211439047Y-132173390D01*
X211439047Y-132173390D02*
X210867619Y-132744819D01*
X210867619Y-132744819D02*
X211486666Y-132744819D01*
X232738333Y-104085580D02*
X232690714Y-104133200D01*
X232690714Y-104133200D02*
X232547857Y-104180819D01*
X232547857Y-104180819D02*
X232452619Y-104180819D01*
X232452619Y-104180819D02*
X232309762Y-104133200D01*
X232309762Y-104133200D02*
X232214524Y-104037961D01*
X232214524Y-104037961D02*
X232166905Y-103942723D01*
X232166905Y-103942723D02*
X232119286Y-103752247D01*
X232119286Y-103752247D02*
X232119286Y-103609390D01*
X232119286Y-103609390D02*
X232166905Y-103418914D01*
X232166905Y-103418914D02*
X232214524Y-103323676D01*
X232214524Y-103323676D02*
X232309762Y-103228438D01*
X232309762Y-103228438D02*
X232452619Y-103180819D01*
X232452619Y-103180819D02*
X232547857Y-103180819D01*
X232547857Y-103180819D02*
X232690714Y-103228438D01*
X232690714Y-103228438D02*
X232738333Y-103276057D01*
X233643095Y-103180819D02*
X233166905Y-103180819D01*
X233166905Y-103180819D02*
X233119286Y-103657009D01*
X233119286Y-103657009D02*
X233166905Y-103609390D01*
X233166905Y-103609390D02*
X233262143Y-103561771D01*
X233262143Y-103561771D02*
X233500238Y-103561771D01*
X233500238Y-103561771D02*
X233595476Y-103609390D01*
X233595476Y-103609390D02*
X233643095Y-103657009D01*
X233643095Y-103657009D02*
X233690714Y-103752247D01*
X233690714Y-103752247D02*
X233690714Y-103990342D01*
X233690714Y-103990342D02*
X233643095Y-104085580D01*
X233643095Y-104085580D02*
X233595476Y-104133200D01*
X233595476Y-104133200D02*
X233500238Y-104180819D01*
X233500238Y-104180819D02*
X233262143Y-104180819D01*
X233262143Y-104180819D02*
X233166905Y-104133200D01*
X233166905Y-104133200D02*
X233119286Y-104085580D01*
X228917714Y-128610819D02*
X228917714Y-127610819D01*
X228917714Y-127610819D02*
X229251047Y-128325104D01*
X229251047Y-128325104D02*
X229584380Y-127610819D01*
X229584380Y-127610819D02*
X229584380Y-128610819D01*
X230012952Y-128325104D02*
X230489142Y-128325104D01*
X229917714Y-128610819D02*
X230251047Y-127610819D01*
X230251047Y-127610819D02*
X230584380Y-128610819D01*
X230822476Y-127610819D02*
X231489142Y-128610819D01*
X231489142Y-127610819D02*
X230822476Y-128610819D01*
X232393904Y-128610819D02*
X231822476Y-128610819D01*
X232108190Y-128610819D02*
X232108190Y-127610819D01*
X232108190Y-127610819D02*
X232012952Y-127753676D01*
X232012952Y-127753676D02*
X231917714Y-127848914D01*
X231917714Y-127848914D02*
X231822476Y-127896533D01*
X215087580Y-102176857D02*
X215135200Y-102224476D01*
X215135200Y-102224476D02*
X215182819Y-102367333D01*
X215182819Y-102367333D02*
X215182819Y-102462571D01*
X215182819Y-102462571D02*
X215135200Y-102605428D01*
X215135200Y-102605428D02*
X215039961Y-102700666D01*
X215039961Y-102700666D02*
X214944723Y-102748285D01*
X214944723Y-102748285D02*
X214754247Y-102795904D01*
X214754247Y-102795904D02*
X214611390Y-102795904D01*
X214611390Y-102795904D02*
X214420914Y-102748285D01*
X214420914Y-102748285D02*
X214325676Y-102700666D01*
X214325676Y-102700666D02*
X214230438Y-102605428D01*
X214230438Y-102605428D02*
X214182819Y-102462571D01*
X214182819Y-102462571D02*
X214182819Y-102367333D01*
X214182819Y-102367333D02*
X214230438Y-102224476D01*
X214230438Y-102224476D02*
X214278057Y-102176857D01*
X215182819Y-101224476D02*
X215182819Y-101795904D01*
X215182819Y-101510190D02*
X214182819Y-101510190D01*
X214182819Y-101510190D02*
X214325676Y-101605428D01*
X214325676Y-101605428D02*
X214420914Y-101700666D01*
X214420914Y-101700666D02*
X214468533Y-101795904D01*
X214182819Y-100605428D02*
X214182819Y-100510190D01*
X214182819Y-100510190D02*
X214230438Y-100414952D01*
X214230438Y-100414952D02*
X214278057Y-100367333D01*
X214278057Y-100367333D02*
X214373295Y-100319714D01*
X214373295Y-100319714D02*
X214563771Y-100272095D01*
X214563771Y-100272095D02*
X214801866Y-100272095D01*
X214801866Y-100272095D02*
X214992342Y-100319714D01*
X214992342Y-100319714D02*
X215087580Y-100367333D01*
X215087580Y-100367333D02*
X215135200Y-100414952D01*
X215135200Y-100414952D02*
X215182819Y-100510190D01*
X215182819Y-100510190D02*
X215182819Y-100605428D01*
X215182819Y-100605428D02*
X215135200Y-100700666D01*
X215135200Y-100700666D02*
X215087580Y-100748285D01*
X215087580Y-100748285D02*
X214992342Y-100795904D01*
X214992342Y-100795904D02*
X214801866Y-100843523D01*
X214801866Y-100843523D02*
X214563771Y-100843523D01*
X214563771Y-100843523D02*
X214373295Y-100795904D01*
X214373295Y-100795904D02*
X214278057Y-100748285D01*
X214278057Y-100748285D02*
X214230438Y-100700666D01*
X214230438Y-100700666D02*
X214182819Y-100605428D01*
D13*
%TO.C,J5*%
X217364000Y-140148000D02*
X218694000Y-140148000D01*
X217364000Y-141478000D02*
X217364000Y-140148000D01*
X217364000Y-142748000D02*
X217364000Y-142808000D01*
X217364000Y-142748000D02*
X220024000Y-142748000D01*
X217364000Y-142808000D02*
X220024000Y-142808000D01*
X220024000Y-142748000D02*
X220024000Y-142808000D01*
%TO.C,R2*%
X223473742Y-92441500D02*
X223948258Y-92441500D01*
X223473742Y-93486500D02*
X223948258Y-93486500D01*
D12*
%TO.C,H1*%
X220726000Y-101473000D02*
G75*
G03*
X224790000Y-101473000I2032000J0D01*
G01*
D13*
%TO.C,U5*%
X211449500Y-107726000D02*
X209649500Y-107726000D01*
X211449500Y-107726000D02*
X212249500Y-107726000D01*
X211449500Y-110846000D02*
X210649500Y-110846000D01*
X211449500Y-110846000D02*
X212249500Y-110846000D01*
%TO.C,JP1*%
X220379000Y-120920000D02*
X223179000Y-120920000D01*
X220379000Y-122920000D02*
X220379000Y-120920000D01*
X223179000Y-120920000D02*
X223179000Y-122920000D01*
X223179000Y-122920000D02*
X220379000Y-122920000D01*
%TO.C,U2*%
X231769500Y-97942000D02*
X229969500Y-97942000D01*
X231769500Y-97942000D02*
X232569500Y-97942000D01*
X231769500Y-101062000D02*
X230969500Y-101062000D01*
X231769500Y-101062000D02*
X232569500Y-101062000D01*
%TO.C,J3*%
X233366000Y-133290000D02*
X234696000Y-133290000D01*
X233366000Y-134620000D02*
X233366000Y-133290000D01*
X233366000Y-135890000D02*
X233366000Y-138490000D01*
X233366000Y-135890000D02*
X236026000Y-135890000D01*
X233366000Y-138490000D02*
X236026000Y-138490000D01*
X236026000Y-135890000D02*
X236026000Y-138490000D01*
%TO.C,C1*%
X223440164Y-139340000D02*
X223655836Y-139340000D01*
X223440164Y-140060000D02*
X223655836Y-140060000D01*
D12*
%TO.C,H0*%
X224790000Y-133604000D02*
G75*
G03*
X220726000Y-133604000I-2032000J0D01*
G01*
D13*
%TO.C,C2*%
X221623836Y-96372000D02*
X221408164Y-96372000D01*
X221623836Y-95652000D02*
X221408164Y-95652000D01*
%TO.C,JP2*%
X224951000Y-120920000D02*
X227751000Y-120920000D01*
X224951000Y-122920000D02*
X224951000Y-120920000D01*
X227751000Y-120920000D02*
X227751000Y-122920000D01*
X227751000Y-122920000D02*
X224951000Y-122920000D01*
%TO.C,C9*%
X215673000Y-105859252D02*
X215673000Y-105336748D01*
X217143000Y-105859252D02*
X217143000Y-105336748D01*
%TO.C,J1*%
X213554000Y-129226000D02*
X214884000Y-129226000D01*
X213554000Y-130556000D02*
X213554000Y-129226000D01*
X213554000Y-131826000D02*
X213554000Y-139506000D01*
X213554000Y-131826000D02*
X216214000Y-131826000D01*
X213554000Y-139506000D02*
X216214000Y-139506000D01*
X216214000Y-131826000D02*
X216214000Y-139506000D01*
%TO.C,D1*%
X227344500Y-92004000D02*
X227344500Y-93924000D01*
X227344500Y-93924000D02*
X230029500Y-93924000D01*
X230029500Y-92004000D02*
X227344500Y-92004000D01*
%TO.C,R1*%
X227061500Y-97773258D02*
X227061500Y-97298742D01*
X228106500Y-97773258D02*
X228106500Y-97298742D01*
D12*
%TO.C,U1*%
X212344000Y-127762000D02*
X235204000Y-127762000D01*
X235204000Y-127762000D02*
X235204000Y-107442000D01*
X235204000Y-107442000D02*
X212344000Y-107442000D01*
X212344000Y-107442000D02*
X212344000Y-127762000D01*
X209804000Y-122682000D02*
X217424000Y-122682000D01*
X217424000Y-122682000D02*
X217424000Y-112522000D01*
X217424000Y-112522000D02*
X209804000Y-112522000D01*
X209804000Y-112522000D02*
X209804000Y-122682000D01*
D13*
%TO.C,R8*%
X234173500Y-129968258D02*
X234173500Y-129493742D01*
X235218500Y-129968258D02*
X235218500Y-129493742D01*
%TO.C,J4*%
X211438000Y-105252000D02*
X213938000Y-105252000D01*
X213938000Y-105252000D02*
X213938000Y-102752000D01*
X209618000Y-104952000D02*
X213638000Y-104952000D01*
X211328000Y-104952000D02*
X211328000Y-104452000D01*
X212138000Y-104952000D02*
X212138000Y-103952000D01*
X213638000Y-104952000D02*
X213638000Y-97232000D01*
X210118000Y-104452000D02*
X210118000Y-97732000D01*
X211328000Y-104452000D02*
X210118000Y-104452000D01*
X212138000Y-103952000D02*
X213638000Y-103952000D01*
X212138000Y-98232000D02*
X213638000Y-98232000D01*
X210118000Y-97732000D02*
X211328000Y-97732000D01*
X211328000Y-97732000D02*
X211328000Y-97232000D01*
X209618000Y-97232000D02*
X209618000Y-104952000D01*
X212138000Y-97232000D02*
X212138000Y-98232000D01*
X213638000Y-97232000D02*
X209618000Y-97232000D01*
D14*
%TO.C,SW2*%
X227524000Y-140319000D02*
X227524000Y-137119000D01*
D12*
X228274000Y-135019000D02*
X228274000Y-135019000D01*
X228274000Y-135119000D02*
X228274000Y-135119000D01*
X228274000Y-135119000D02*
X228274000Y-135119000D01*
D14*
X231024000Y-140319000D02*
X231024000Y-137119000D01*
D12*
X228274000Y-135119000D02*
G75*
G03*
X228274000Y-135019000I0J50000D01*
G01*
X228274000Y-135119000D02*
G75*
G03*
X228274000Y-135019000I0J50000D01*
G01*
X228274000Y-135019000D02*
G75*
G03*
X228274000Y-135119000I0J-50000D01*
G01*
D13*
%TO.C,J2*%
X209490000Y-133290000D02*
X210820000Y-133290000D01*
X209490000Y-134620000D02*
X209490000Y-133290000D01*
X209490000Y-135890000D02*
X209490000Y-138490000D01*
X209490000Y-135890000D02*
X212150000Y-135890000D01*
X209490000Y-138490000D02*
X212150000Y-138490000D01*
X212150000Y-135890000D02*
X212150000Y-138490000D01*
%TO.C,C5*%
X232764420Y-104646000D02*
X233045580Y-104646000D01*
X232764420Y-105666000D02*
X233045580Y-105666000D01*
%TO.C,MAX1*%
X231261500Y-128996000D02*
X229461500Y-128996000D01*
X231261500Y-128996000D02*
X232061500Y-128996000D01*
X231261500Y-132116000D02*
X230461500Y-132116000D01*
X231261500Y-132116000D02*
X232061500Y-132116000D01*
%TO.C,C10*%
X215673000Y-101795252D02*
X215673000Y-101272748D01*
X217143000Y-101795252D02*
X217143000Y-101272748D01*
%TD*%
M02*
