%TF.GenerationSoftware,KiCad,Pcbnew,7.0.7*%
%TF.CreationDate,2024-10-15T08:59:53-05:00*%
%TF.ProjectId,OM-EPSC3-Micro,4f4d2d45-5053-4433-932d-4d6963726f2e,rev?*%
%TF.SameCoordinates,Original*%
%TF.FileFunction,Copper,L2,Bot*%
%TF.FilePolarity,Positive*%
%FSLAX46Y46*%
G04 Gerber Fmt 4.6, Leading zero omitted, Abs format (unit mm)*
G04 Created by KiCad (PCBNEW 7.0.7) date 2024-10-15 08:59:53*
%MOMM*%
%LPD*%
G01*
G04 APERTURE LIST*
G04 Aperture macros list*
%AMRoundRect*
0 Rectangle with rounded corners*
0 $1 Rounding radius*
0 $2 $3 $4 $5 $6 $7 $8 $9 X,Y pos of 4 corners*
0 Add a 4 corners polygon primitive as box body*
4,1,4,$2,$3,$4,$5,$6,$7,$8,$9,$2,$3,0*
0 Add four circle primitives for the rounded corners*
1,1,$1+$1,$2,$3*
1,1,$1+$1,$4,$5*
1,1,$1+$1,$6,$7*
1,1,$1+$1,$8,$9*
0 Add four rect primitives between the rounded corners*
20,1,$1+$1,$2,$3,$4,$5,0*
20,1,$1+$1,$4,$5,$6,$7,0*
20,1,$1+$1,$6,$7,$8,$9,0*
20,1,$1+$1,$8,$9,$2,$3,0*%
G04 Aperture macros list end*
%TA.AperFunction,ComponentPad*%
%ADD10R,1.700000X1.700000*%
%TD*%
%TA.AperFunction,ComponentPad*%
%ADD11RoundRect,0.381000X-0.381000X0.881000X-0.381000X-0.881000X0.381000X-0.881000X0.381000X0.881000X0*%
%TD*%
%TA.AperFunction,ComponentPad*%
%ADD12R,1.524000X2.524000*%
%TD*%
%TA.AperFunction,ComponentPad*%
%ADD13O,1.700000X1.700000*%
%TD*%
%TA.AperFunction,ComponentPad*%
%ADD14RoundRect,0.381000X0.381000X-0.881000X0.381000X0.881000X-0.381000X0.881000X-0.381000X-0.881000X0*%
%TD*%
%TA.AperFunction,ComponentPad*%
%ADD15O,2.000000X1.700000*%
%TD*%
%TA.AperFunction,ComponentPad*%
%ADD16RoundRect,0.250000X0.750000X-0.600000X0.750000X0.600000X-0.750000X0.600000X-0.750000X-0.600000X0*%
%TD*%
%TA.AperFunction,ViaPad*%
%ADD17C,0.800000*%
%TD*%
%TA.AperFunction,Conductor*%
%ADD18C,0.250000*%
%TD*%
G04 APERTURE END LIST*
D10*
%TO.P,J5,1,Pin_1*%
%TO.N,+5V*%
X218694000Y-141478000D03*
%TD*%
D11*
%TO.P,H1,1,VCC*%
%TO.N,+3V3*%
X224790000Y-99449000D03*
D12*
%TO.P,H1,2,GND*%
%TO.N,GND*%
X222758000Y-99449000D03*
D11*
%TO.P,H1,3,VOUT*%
%TO.N,hall_1*%
X220726000Y-99449000D03*
%TD*%
D10*
%TO.P,J3,1,Pin_1*%
%TO.N,GND*%
X234696000Y-134620000D03*
D13*
%TO.P,J3,2,Pin_2*%
%TO.N,RMT-BTN*%
X234696000Y-137160000D03*
%TD*%
D14*
%TO.P,H0,1,VCC*%
%TO.N,+3V3*%
X220726000Y-135628000D03*
D12*
%TO.P,H0,2,GND*%
%TO.N,GND*%
X222758000Y-135628000D03*
D14*
%TO.P,H0,3,VOUT*%
%TO.N,hall_0*%
X224790000Y-135628000D03*
%TD*%
D10*
%TO.P,J1,1,Pin_1*%
%TO.N,+3V3*%
X214884000Y-130556000D03*
D13*
%TO.P,J1,2,Pin_2*%
%TO.N,ADC3*%
X214884000Y-133096000D03*
%TO.P,J1,3,Pin_3*%
%TO.N,ADC2*%
X214884000Y-135636000D03*
%TO.P,J1,4,Pin_4*%
%TO.N,GND*%
X214884000Y-138176000D03*
%TD*%
D14*
%TO.P,U1,0,GPIO0*%
%TO.N,hall_0*%
X232664000Y-109466000D03*
%TO.P,U1,1,GPIO1*%
%TO.N,hall_1*%
X230124000Y-109466000D03*
%TO.P,U1,2,GPIO2*%
%TO.N,unconnected-(U1-GPIO2-Pad2)*%
X227584000Y-109466000D03*
%TO.P,U1,3,GPIO3*%
%TO.N,ADC2*%
X225044000Y-109466000D03*
%TO.P,U1,4,GPIO4*%
%TO.N,unconnected-(U1-GPIO4-Pad4)*%
X222504000Y-109466000D03*
%TO.P,U1,5,GPIO5*%
%TO.N,ADC3*%
X214884000Y-125738000D03*
%TO.P,U1,6,GPIO6*%
%TO.N,unconnected-(U1-GPIO6-Pad6)*%
X217424000Y-125738000D03*
%TO.P,U1,7,GPIO7*%
%TO.N,unconnected-(U1-GPIO7-Pad7)*%
X219964000Y-125738000D03*
%TO.P,U1,8,GPIO8*%
%TO.N,SDA*%
X222504000Y-125738000D03*
%TO.P,U1,9,GPIO9*%
%TO.N,SCL*%
X225044000Y-125738000D03*
%TO.P,U1,10,GPIO10*%
%TO.N,unconnected-(U1-GPIO10-Pad10)*%
X227584000Y-125738000D03*
%TO.P,U1,20,GPIO20*%
%TO.N,unconnected-(U1-GPIO20-Pad20)*%
X230124000Y-125738000D03*
%TO.P,U1,21,GPIO21*%
%TO.N,unconnected-(U1-GPIO21-Pad21)*%
X232664000Y-125738000D03*
%TO.P,U1,100,5V*%
%TO.N,+5V*%
X214884000Y-109466000D03*
%TO.P,U1,101,GND*%
%TO.N,GND*%
X217424000Y-109466000D03*
%TO.P,U1,102,3V3*%
%TO.N,+3V3*%
X219964000Y-109466000D03*
%TD*%
D15*
%TO.P,J4,1*%
%TO.N,+3V8*%
X211328000Y-99842000D03*
D16*
%TO.P,J4,2*%
%TO.N,GND*%
X211328000Y-102342000D03*
%TD*%
D10*
%TO.P,J2,1,Pin_1*%
%TO.N,GND*%
X210820000Y-134620000D03*
D13*
%TO.P,J2,2,Pin_2*%
%TO.N,RMT-BTN*%
X210820000Y-137160000D03*
%TD*%
D17*
%TO.N,+3V3*%
X217884200Y-101792100D03*
X211455000Y-129540000D03*
X212392200Y-109286000D03*
X232795100Y-101812000D03*
%TO.N,GND*%
X222544600Y-138141300D03*
X228262500Y-138400700D03*
X226471300Y-96398700D03*
X216408000Y-99474600D03*
X226060000Y-103505000D03*
X222516700Y-96896800D03*
X229365900Y-99572300D03*
X215437800Y-103677800D03*
X232130000Y-104076500D03*
X233908600Y-129731000D03*
X211453000Y-110835100D03*
%TO.N,+3V8*%
X228002000Y-99516800D03*
%TO.N,Net-(U2-PROG)*%
X232476700Y-99534600D03*
X229554000Y-96903600D03*
%TO.N,LDO_EN*%
X234740700Y-131816400D03*
X216292600Y-119899200D03*
%TD*%
D18*
%TO.N,+3V3*%
X219964000Y-109966000D02*
X218852900Y-111077100D01*
X214183300Y-111077100D02*
X212392200Y-109286000D01*
X211455000Y-129540000D02*
X211455000Y-113805400D01*
X226653000Y-101812000D02*
X224790000Y-99949000D01*
X232795100Y-101812000D02*
X226653000Y-101812000D01*
X219059900Y-102967800D02*
X219059900Y-109061900D01*
X217884200Y-101792100D02*
X219059900Y-102967800D01*
X218852900Y-111077100D02*
X214183300Y-111077100D01*
X223352300Y-101386700D02*
X218289600Y-101386700D01*
X214884000Y-130556000D02*
X212471000Y-130556000D01*
X224790000Y-99949000D02*
X223352300Y-101386700D01*
X219059900Y-109061900D02*
X219964000Y-109966000D01*
X218289600Y-101386700D02*
X217884200Y-101792100D01*
X211455000Y-113805400D02*
X214183300Y-111077100D01*
X212471000Y-130556000D02*
X211455000Y-129540000D01*
%TO.N,ADC2*%
X215565700Y-120281000D02*
X216060900Y-120776200D01*
X215251900Y-134459100D02*
X214884000Y-134459100D01*
X216060900Y-120776200D02*
X216060900Y-133650100D01*
X225044000Y-109966000D02*
X215565700Y-119444300D01*
X214884000Y-135636000D02*
X214884000Y-134459100D01*
X216060900Y-133650100D02*
X215251900Y-134459100D01*
X215565700Y-119444300D02*
X215565700Y-120281000D01*
%TO.N,+3V8*%
X212139500Y-97853600D02*
X226338800Y-97853600D01*
X211328000Y-99842000D02*
X211328000Y-98665100D01*
X226338800Y-97853600D02*
X228002000Y-99516800D01*
X211328000Y-98665100D02*
X212139500Y-97853600D01*
%TO.N,Net-(U2-PROG)*%
X232476700Y-99534600D02*
X232185000Y-99534600D01*
X232185000Y-99534600D02*
X229554000Y-96903600D01*
%TO.N,RMT-BTN*%
X216080000Y-137237400D02*
X233441700Y-137237400D01*
X210820000Y-137160000D02*
X211996900Y-137160000D01*
X233441700Y-137237400D02*
X233519100Y-137160000D01*
X215812100Y-136969500D02*
X216080000Y-137237400D01*
X234696000Y-137160000D02*
X233519100Y-137160000D01*
X212187400Y-136969500D02*
X215812100Y-136969500D01*
X211996900Y-137160000D02*
X212187400Y-136969500D01*
%TO.N,LDO_EN*%
X226314000Y-126796700D02*
X226314000Y-124728300D01*
X234740700Y-131816400D02*
X231333700Y-131816400D01*
X221484900Y-119899200D02*
X216292600Y-119899200D01*
X231333700Y-131816400D02*
X226314000Y-126796700D01*
X226314000Y-124728300D02*
X221484900Y-119899200D01*
%TD*%
%TA.AperFunction,Conductor*%
%TO.N,GND*%
G36*
X233417409Y-91561693D02*
G01*
X233874202Y-91597731D01*
X233893407Y-91600776D01*
X234332378Y-91706204D01*
X234350831Y-91712196D01*
X234767714Y-91884700D01*
X234785133Y-91893577D01*
X235169391Y-92129307D01*
X235185118Y-92140744D01*
X235373662Y-92301903D01*
X235373671Y-92301911D01*
X235528261Y-92434047D01*
X235541952Y-92447738D01*
X235835254Y-92790881D01*
X235846691Y-92806608D01*
X236082422Y-93190867D01*
X236091304Y-93208296D01*
X236263804Y-93625167D01*
X236269797Y-93643621D01*
X236375226Y-94082595D01*
X236378271Y-94101801D01*
X236414307Y-94558590D01*
X236414499Y-94563468D01*
X236414500Y-97984901D01*
X236414500Y-107064000D01*
X236394815Y-107131039D01*
X236342011Y-107176794D01*
X236290500Y-107188000D01*
X228600000Y-107188000D01*
X228600000Y-107716062D01*
X228580315Y-107783101D01*
X228527511Y-107828856D01*
X228458353Y-107838800D01*
X228420906Y-107827150D01*
X228270778Y-107752694D01*
X228270776Y-107752693D01*
X228270775Y-107752693D01*
X228232939Y-107743283D01*
X228084708Y-107706419D01*
X228041658Y-107703500D01*
X228041657Y-107703500D01*
X227126344Y-107703501D01*
X227126343Y-107703501D01*
X227083298Y-107706418D01*
X227083297Y-107706418D01*
X226897221Y-107752694D01*
X226725456Y-107837881D01*
X226725453Y-107837883D01*
X226576010Y-107958009D01*
X226576009Y-107958010D01*
X226455883Y-108107453D01*
X226425088Y-108169547D01*
X226377667Y-108220859D01*
X226310032Y-108238388D01*
X226243657Y-108216569D01*
X226202912Y-108169547D01*
X226172116Y-108107453D01*
X226051990Y-107958010D01*
X226051989Y-107958009D01*
X225902546Y-107837883D01*
X225902543Y-107837881D01*
X225730778Y-107752694D01*
X225730776Y-107752693D01*
X225730775Y-107752693D01*
X225692939Y-107743283D01*
X225544708Y-107706419D01*
X225501658Y-107703500D01*
X225501657Y-107703500D01*
X224586344Y-107703501D01*
X224586343Y-107703501D01*
X224543298Y-107706418D01*
X224543297Y-107706418D01*
X224357221Y-107752694D01*
X224185456Y-107837881D01*
X224185453Y-107837883D01*
X224036010Y-107958009D01*
X224036009Y-107958010D01*
X223915883Y-108107453D01*
X223885088Y-108169547D01*
X223837667Y-108220859D01*
X223770032Y-108238388D01*
X223703657Y-108216569D01*
X223662912Y-108169547D01*
X223632116Y-108107453D01*
X223511990Y-107958010D01*
X223511989Y-107958009D01*
X223362546Y-107837883D01*
X223362543Y-107837881D01*
X223190778Y-107752694D01*
X223190776Y-107752693D01*
X223190775Y-107752693D01*
X223152939Y-107743283D01*
X223004708Y-107706419D01*
X222961658Y-107703500D01*
X222961657Y-107703500D01*
X222046344Y-107703501D01*
X222046343Y-107703501D01*
X222003298Y-107706418D01*
X222003297Y-107706418D01*
X221817221Y-107752694D01*
X221645456Y-107837881D01*
X221645453Y-107837883D01*
X221496010Y-107958009D01*
X221496009Y-107958010D01*
X221375883Y-108107453D01*
X221345088Y-108169547D01*
X221297667Y-108220859D01*
X221230032Y-108238388D01*
X221163657Y-108216569D01*
X221122912Y-108169547D01*
X221092116Y-108107453D01*
X220971990Y-107958010D01*
X220971989Y-107958009D01*
X220822546Y-107837883D01*
X220822543Y-107837881D01*
X220650778Y-107752694D01*
X220650776Y-107752693D01*
X220650775Y-107752693D01*
X220612939Y-107743283D01*
X220464708Y-107706419D01*
X220421658Y-107703500D01*
X220421657Y-107703500D01*
X219809400Y-107703500D01*
X219742361Y-107683815D01*
X219696606Y-107631011D01*
X219685400Y-107579500D01*
X219685400Y-103050542D01*
X219687124Y-103034922D01*
X219686839Y-103034896D01*
X219687571Y-103027140D01*
X219687573Y-103027133D01*
X219685400Y-102957985D01*
X219685400Y-102928450D01*
X219684531Y-102921572D01*
X219684072Y-102915743D01*
X219682609Y-102869172D01*
X219677022Y-102849944D01*
X219673074Y-102830884D01*
X219670563Y-102811004D01*
X219653412Y-102767687D01*
X219651519Y-102762158D01*
X219638518Y-102717409D01*
X219638516Y-102717406D01*
X219628323Y-102700171D01*
X219619761Y-102682694D01*
X219612387Y-102664070D01*
X219612386Y-102664068D01*
X219584979Y-102626345D01*
X219581788Y-102621486D01*
X219558072Y-102581383D01*
X219558065Y-102581374D01*
X219543906Y-102567215D01*
X219531268Y-102552419D01*
X219519494Y-102536213D01*
X219483588Y-102506509D01*
X219479276Y-102502586D01*
X219200571Y-102223881D01*
X219167086Y-102162558D01*
X219172070Y-102092866D01*
X219213942Y-102036933D01*
X219279406Y-102012516D01*
X219288252Y-102012200D01*
X220040500Y-102012200D01*
X220107539Y-102031885D01*
X220153294Y-102084689D01*
X220164500Y-102136200D01*
X220164500Y-107036467D01*
X220164416Y-107036889D01*
X220164459Y-107061001D01*
X220164500Y-107061099D01*
X220164616Y-107061382D01*
X220164618Y-107061384D01*
X220164808Y-107061462D01*
X220165000Y-107061541D01*
X220165002Y-107061539D01*
X220189616Y-107061524D01*
X220189616Y-107061528D01*
X220189760Y-107061500D01*
X225140240Y-107061500D01*
X225140383Y-107061528D01*
X225140384Y-107061524D01*
X225164997Y-107061539D01*
X225165000Y-107061541D01*
X225165383Y-107061383D01*
X225165500Y-107061099D01*
X225165541Y-107061000D01*
X225165540Y-107060997D01*
X225165583Y-107036889D01*
X225165500Y-107036467D01*
X225165500Y-104561019D01*
X226914436Y-104561019D01*
X226914608Y-104562770D01*
X226914612Y-104562836D01*
X226915014Y-104564875D01*
X226939951Y-104750926D01*
X226940088Y-104752989D01*
X226940228Y-104753703D01*
X226940477Y-104755178D01*
X226941026Y-104756644D01*
X226941214Y-104757193D01*
X226942093Y-104758996D01*
X227013076Y-104932619D01*
X227013763Y-104934647D01*
X227013885Y-104934895D01*
X227014549Y-104936338D01*
X227015441Y-104937588D01*
X227016816Y-104939167D01*
X227132034Y-105087987D01*
X227133302Y-105089874D01*
X227134577Y-105091426D01*
X227136364Y-105092877D01*
X227136370Y-105092882D01*
X227138142Y-105094066D01*
X227172839Y-105120927D01*
X227182618Y-105128498D01*
X227286822Y-105209173D01*
X227288656Y-105210771D01*
X227289646Y-105211476D01*
X227291561Y-105212334D01*
X227291587Y-105212347D01*
X227293661Y-105213038D01*
X227462480Y-105282058D01*
X227466329Y-105283966D01*
X227468709Y-105284768D01*
X227470839Y-105285577D01*
X227473089Y-105285929D01*
X227475902Y-105286478D01*
X227480113Y-105286726D01*
X227660563Y-105310910D01*
X227663305Y-105311476D01*
X227665009Y-105311657D01*
X227667977Y-105311328D01*
X227669535Y-105311231D01*
X227674016Y-105310296D01*
X227849914Y-105286722D01*
X227854128Y-105286473D01*
X227857019Y-105285908D01*
X227859162Y-105285569D01*
X227861199Y-105284792D01*
X227863879Y-105283880D01*
X227867648Y-105282005D01*
X228036246Y-105213074D01*
X228038731Y-105212251D01*
X228040389Y-105211513D01*
X228041297Y-105210854D01*
X228043418Y-105208986D01*
X228188059Y-105097005D01*
X228191822Y-105094513D01*
X228193067Y-105093404D01*
X228195469Y-105091471D01*
X228197402Y-105089069D01*
X228198514Y-105087821D01*
X228201012Y-105084050D01*
X228312781Y-104939683D01*
X228314386Y-104937878D01*
X228315547Y-104936283D01*
X228316179Y-104934877D01*
X228316994Y-104932446D01*
X228386109Y-104763391D01*
X228388060Y-104759442D01*
X228388615Y-104757773D01*
X228389633Y-104755117D01*
X228389866Y-104753659D01*
X228390049Y-104750927D01*
X228390049Y-104750926D01*
X228414945Y-104565171D01*
X228415519Y-104562334D01*
X228415663Y-104560971D01*
X228415548Y-104559871D01*
X228414957Y-104556919D01*
X228390049Y-104371072D01*
X228389886Y-104368636D01*
X228389609Y-104366891D01*
X228388922Y-104365066D01*
X228387865Y-104362906D01*
X228363057Y-104302228D01*
X228316945Y-104189434D01*
X228316265Y-104187420D01*
X228315506Y-104185739D01*
X228314448Y-104184255D01*
X228314406Y-104184192D01*
X228312974Y-104182566D01*
X228271204Y-104128618D01*
X228198068Y-104034148D01*
X228196881Y-104032371D01*
X228196874Y-104032363D01*
X228195423Y-104030576D01*
X228193877Y-104029306D01*
X228191987Y-104028036D01*
X228043169Y-103912821D01*
X228041593Y-103911448D01*
X228040337Y-103910552D01*
X228038894Y-103909888D01*
X228038639Y-103909762D01*
X228036618Y-103909078D01*
X227863043Y-103838112D01*
X227861321Y-103837270D01*
X227859126Y-103836504D01*
X227856896Y-103836081D01*
X227854928Y-103835950D01*
X227812533Y-103830268D01*
X227669112Y-103811047D01*
X227667044Y-103810631D01*
X227666691Y-103810607D01*
X227664999Y-103810438D01*
X227663289Y-103810602D01*
X227663101Y-103810614D01*
X227661006Y-103811031D01*
X227523895Y-103829406D01*
X227475069Y-103835950D01*
X227473109Y-103836080D01*
X227470858Y-103836508D01*
X227468781Y-103837226D01*
X227467007Y-103838091D01*
X227293274Y-103909121D01*
X227291382Y-103909765D01*
X227289749Y-103910554D01*
X227288555Y-103911355D01*
X227287080Y-103912628D01*
X227166791Y-104005755D01*
X227137823Y-104028181D01*
X227136155Y-104029312D01*
X227135767Y-104029652D01*
X227134611Y-104030609D01*
X227133654Y-104031765D01*
X227133305Y-104032163D01*
X227132177Y-104033828D01*
X227016621Y-104183084D01*
X227015356Y-104184551D01*
X227014551Y-104185750D01*
X227013762Y-104187383D01*
X227013116Y-104189281D01*
X226942006Y-104363219D01*
X226941139Y-104365013D01*
X226940929Y-104365631D01*
X226940538Y-104366694D01*
X226940534Y-104366724D01*
X226940082Y-104369103D01*
X226939951Y-104371072D01*
X226914999Y-104557237D01*
X226914590Y-104559330D01*
X226914436Y-104561019D01*
X225165500Y-104561019D01*
X225165500Y-102085760D01*
X225165528Y-102085617D01*
X225165524Y-102085617D01*
X225165539Y-102061003D01*
X225165541Y-102061001D01*
X225165462Y-102060809D01*
X225165384Y-102060619D01*
X225165382Y-102060617D01*
X225165099Y-102060501D01*
X225165000Y-102060460D01*
X225140446Y-102060460D01*
X225140240Y-102060501D01*
X223868969Y-102060501D01*
X223801930Y-102040816D01*
X223756175Y-101988012D01*
X223746231Y-101918854D01*
X223775256Y-101855298D01*
X223783767Y-101846438D01*
X223783884Y-101846295D01*
X223783887Y-101846294D01*
X223813599Y-101810376D01*
X223817512Y-101806076D01*
X224375771Y-101247818D01*
X224437094Y-101214333D01*
X224463452Y-101211499D01*
X225116546Y-101211499D01*
X225183585Y-101231184D01*
X225204227Y-101247818D01*
X226152197Y-102195788D01*
X226162022Y-102208051D01*
X226162243Y-102207869D01*
X226167214Y-102213878D01*
X226193217Y-102238295D01*
X226217635Y-102261226D01*
X226238529Y-102282120D01*
X226244011Y-102286373D01*
X226248443Y-102290157D01*
X226282418Y-102322062D01*
X226299976Y-102331714D01*
X226316233Y-102342393D01*
X226332064Y-102354673D01*
X226351737Y-102363186D01*
X226374833Y-102373182D01*
X226380077Y-102375750D01*
X226420908Y-102398197D01*
X226433523Y-102401435D01*
X226440305Y-102403177D01*
X226458719Y-102409481D01*
X226477104Y-102417438D01*
X226523157Y-102424732D01*
X226528826Y-102425906D01*
X226573981Y-102437500D01*
X226594016Y-102437500D01*
X226613413Y-102439026D01*
X226633196Y-102442160D01*
X226679583Y-102437775D01*
X226685422Y-102437500D01*
X232091352Y-102437500D01*
X232158391Y-102457185D01*
X232183500Y-102478526D01*
X232189226Y-102484885D01*
X232189230Y-102484889D01*
X232342365Y-102596148D01*
X232342370Y-102596151D01*
X232515292Y-102673142D01*
X232515297Y-102673144D01*
X232700454Y-102712500D01*
X232700455Y-102712500D01*
X232889744Y-102712500D01*
X232889746Y-102712500D01*
X233074903Y-102673144D01*
X233247830Y-102596151D01*
X233400971Y-102484888D01*
X233527633Y-102344216D01*
X233622279Y-102180284D01*
X233680774Y-102000256D01*
X233700560Y-101812000D01*
X233680774Y-101623744D01*
X233622279Y-101443716D01*
X233527633Y-101279784D01*
X233400971Y-101139112D01*
X233400970Y-101139111D01*
X233247834Y-101027851D01*
X233247829Y-101027848D01*
X233074907Y-100950857D01*
X233074902Y-100950855D01*
X232929100Y-100919865D01*
X232889746Y-100911500D01*
X232700454Y-100911500D01*
X232667997Y-100918398D01*
X232515297Y-100950855D01*
X232515292Y-100950857D01*
X232342370Y-101027848D01*
X232342365Y-101027851D01*
X232189230Y-101139110D01*
X232189226Y-101139114D01*
X232183500Y-101145474D01*
X232124013Y-101182121D01*
X232091352Y-101186500D01*
X226963452Y-101186500D01*
X226896413Y-101166815D01*
X226875771Y-101150181D01*
X226088818Y-100363227D01*
X226055333Y-100301904D01*
X226052499Y-100275546D01*
X226052499Y-98751251D01*
X226072184Y-98684212D01*
X226124988Y-98638457D01*
X226194146Y-98628513D01*
X226257702Y-98657538D01*
X226264177Y-98663567D01*
X226749124Y-99148515D01*
X227063038Y-99462429D01*
X227096523Y-99523752D01*
X227098678Y-99537148D01*
X227106968Y-99616027D01*
X227116326Y-99705056D01*
X227116327Y-99705059D01*
X227174818Y-99885077D01*
X227174821Y-99885084D01*
X227269467Y-100049016D01*
X227295036Y-100077413D01*
X227396129Y-100189688D01*
X227549265Y-100300948D01*
X227549270Y-100300951D01*
X227722192Y-100377942D01*
X227722197Y-100377944D01*
X227907354Y-100417300D01*
X227907355Y-100417300D01*
X228096644Y-100417300D01*
X228096646Y-100417300D01*
X228281803Y-100377944D01*
X228454730Y-100300951D01*
X228607871Y-100189688D01*
X228734533Y-100049016D01*
X228829179Y-99885084D01*
X228887674Y-99705056D01*
X228907460Y-99516800D01*
X228887674Y-99328544D01*
X228829179Y-99148516D01*
X228734533Y-98984584D01*
X228607871Y-98843912D01*
X228552257Y-98803506D01*
X228454734Y-98732651D01*
X228454729Y-98732648D01*
X228281807Y-98655657D01*
X228281802Y-98655655D01*
X228132044Y-98623824D01*
X228096646Y-98616300D01*
X228096645Y-98616300D01*
X228037452Y-98616300D01*
X227970413Y-98596615D01*
X227949771Y-98579981D01*
X226839603Y-97469812D01*
X226829780Y-97457550D01*
X226829559Y-97457734D01*
X226824586Y-97451723D01*
X226805959Y-97434231D01*
X226774164Y-97404373D01*
X226763719Y-97393928D01*
X226753275Y-97383483D01*
X226747786Y-97379225D01*
X226743361Y-97375447D01*
X226709382Y-97343538D01*
X226709380Y-97343536D01*
X226709377Y-97343535D01*
X226691829Y-97333888D01*
X226675563Y-97323204D01*
X226659733Y-97310925D01*
X226616968Y-97292418D01*
X226611722Y-97289848D01*
X226570893Y-97267403D01*
X226570892Y-97267402D01*
X226551493Y-97262422D01*
X226533081Y-97256118D01*
X226514698Y-97248162D01*
X226514692Y-97248160D01*
X226468674Y-97240872D01*
X226462952Y-97239687D01*
X226417821Y-97228100D01*
X226417819Y-97228100D01*
X226397784Y-97228100D01*
X226378386Y-97226573D01*
X226370962Y-97225397D01*
X226358605Y-97223440D01*
X226358604Y-97223440D01*
X226312216Y-97227825D01*
X226306378Y-97228100D01*
X212222237Y-97228100D01*
X212206620Y-97226376D01*
X212206593Y-97226662D01*
X212198831Y-97225927D01*
X212129703Y-97228100D01*
X212100150Y-97228100D01*
X212099429Y-97228190D01*
X212093257Y-97228969D01*
X212087445Y-97229426D01*
X212040878Y-97230890D01*
X212040867Y-97230892D01*
X212021634Y-97236479D01*
X212002594Y-97240422D01*
X211982717Y-97242934D01*
X211982710Y-97242935D01*
X211982708Y-97242936D01*
X211982706Y-97242936D01*
X211982705Y-97242937D01*
X211939368Y-97260094D01*
X211933842Y-97261986D01*
X211889111Y-97274982D01*
X211889108Y-97274983D01*
X211871863Y-97285181D01*
X211854401Y-97293735D01*
X211835772Y-97301111D01*
X211835767Y-97301113D01*
X211798064Y-97328506D01*
X211793182Y-97331712D01*
X211753080Y-97355428D01*
X211738908Y-97369600D01*
X211724123Y-97382228D01*
X211707912Y-97394007D01*
X211678209Y-97429910D01*
X211674277Y-97434231D01*
X210944208Y-98164299D01*
X210931951Y-98174120D01*
X210932134Y-98174341D01*
X210926123Y-98179313D01*
X210878772Y-98229736D01*
X210857889Y-98250618D01*
X210857877Y-98250632D01*
X210853621Y-98256117D01*
X210849837Y-98260547D01*
X210817937Y-98294518D01*
X210817936Y-98294520D01*
X210808284Y-98312076D01*
X210797610Y-98328326D01*
X210785329Y-98344161D01*
X210785324Y-98344168D01*
X210766815Y-98386938D01*
X210764245Y-98392184D01*
X210741803Y-98433006D01*
X210736822Y-98452407D01*
X210730521Y-98470810D01*
X210722562Y-98489202D01*
X210722561Y-98489206D01*
X210720039Y-98505129D01*
X210690108Y-98568263D01*
X210649972Y-98598110D01*
X210500168Y-98667966D01*
X210306597Y-98803505D01*
X210139506Y-98970597D01*
X210139501Y-98970604D01*
X210003967Y-99164165D01*
X210003965Y-99164169D01*
X209904098Y-99378335D01*
X209904094Y-99378344D01*
X209842938Y-99606586D01*
X209842936Y-99606596D01*
X209822341Y-99841999D01*
X209822341Y-99842000D01*
X209842936Y-100077403D01*
X209842938Y-100077413D01*
X209904094Y-100305655D01*
X209904096Y-100305659D01*
X209904097Y-100305663D01*
X209946102Y-100395742D01*
X210003964Y-100519828D01*
X210003965Y-100519830D01*
X210139505Y-100713402D01*
X210287067Y-100860964D01*
X210320552Y-100922287D01*
X210315568Y-100991979D01*
X210273696Y-101047912D01*
X210264483Y-101054183D01*
X210109659Y-101149680D01*
X210109655Y-101149683D01*
X209985684Y-101273654D01*
X209893643Y-101422875D01*
X209893641Y-101422880D01*
X209838494Y-101589302D01*
X209838493Y-101589309D01*
X209828000Y-101692013D01*
X209828000Y-102092000D01*
X210714653Y-102092000D01*
X210781692Y-102111685D01*
X210827447Y-102164489D01*
X210837391Y-102233647D01*
X210833631Y-102250933D01*
X210828000Y-102270111D01*
X210828000Y-102413888D01*
X210833631Y-102433067D01*
X210833630Y-102502936D01*
X210795855Y-102561714D01*
X210732299Y-102590738D01*
X210714653Y-102592000D01*
X209828001Y-102592000D01*
X209828001Y-102991986D01*
X209838494Y-103094697D01*
X209893641Y-103261119D01*
X209893643Y-103261124D01*
X209985684Y-103410345D01*
X210109654Y-103534315D01*
X210258875Y-103626356D01*
X210258880Y-103626358D01*
X210425302Y-103681505D01*
X210425309Y-103681506D01*
X210528019Y-103691999D01*
X211077999Y-103691999D01*
X211078000Y-103691998D01*
X211078000Y-102954301D01*
X211097685Y-102887262D01*
X211150489Y-102841507D01*
X211219647Y-102831563D01*
X211292237Y-102842000D01*
X211292238Y-102842000D01*
X211363762Y-102842000D01*
X211363763Y-102842000D01*
X211436353Y-102831563D01*
X211505512Y-102841507D01*
X211558315Y-102887262D01*
X211578000Y-102954301D01*
X211577999Y-103691998D01*
X211578000Y-103691999D01*
X212127972Y-103691999D01*
X212127986Y-103691998D01*
X212230697Y-103681505D01*
X212397119Y-103626358D01*
X212397124Y-103626356D01*
X212546345Y-103534315D01*
X212670315Y-103410345D01*
X212762356Y-103261124D01*
X212762358Y-103261119D01*
X212817505Y-103094697D01*
X212817506Y-103094690D01*
X212827999Y-102991986D01*
X212828000Y-102991973D01*
X212828000Y-102592000D01*
X211941347Y-102592000D01*
X211874308Y-102572315D01*
X211828553Y-102519511D01*
X211818609Y-102450353D01*
X211822369Y-102433067D01*
X211828000Y-102413888D01*
X211828000Y-102270111D01*
X211822369Y-102250933D01*
X211822370Y-102181064D01*
X211860145Y-102122286D01*
X211923701Y-102093262D01*
X211941347Y-102092000D01*
X212827999Y-102092000D01*
X212827999Y-101692028D01*
X212827998Y-101692013D01*
X212817505Y-101589302D01*
X212762358Y-101422880D01*
X212762356Y-101422875D01*
X212670315Y-101273654D01*
X212546344Y-101149683D01*
X212546340Y-101149680D01*
X212391516Y-101054183D01*
X212344791Y-101002235D01*
X212333570Y-100933273D01*
X212361413Y-100869191D01*
X212368932Y-100860964D01*
X212436708Y-100793188D01*
X212516495Y-100713401D01*
X212652035Y-100519830D01*
X212751903Y-100305663D01*
X212813063Y-100077408D01*
X212833659Y-99842000D01*
X212813063Y-99606592D01*
X212751903Y-99378337D01*
X212652035Y-99164171D01*
X212652034Y-99164169D01*
X212516494Y-98970597D01*
X212349402Y-98803506D01*
X212349401Y-98803505D01*
X212308579Y-98774921D01*
X212264956Y-98720345D01*
X212257763Y-98650846D01*
X212289285Y-98588492D01*
X212291977Y-98585713D01*
X212362272Y-98515418D01*
X212423597Y-98481933D01*
X212449953Y-98479100D01*
X219339500Y-98479100D01*
X219406539Y-98498785D01*
X219452294Y-98551589D01*
X219463500Y-98603100D01*
X219463501Y-100406656D01*
X219463501Y-100406657D01*
X219466418Y-100449700D01*
X219466419Y-100449704D01*
X219505605Y-100607277D01*
X219502682Y-100677082D01*
X219462482Y-100734228D01*
X219397768Y-100760569D01*
X219385271Y-100761200D01*
X218372337Y-100761200D01*
X218356720Y-100759476D01*
X218356693Y-100759762D01*
X218348931Y-100759027D01*
X218279803Y-100761200D01*
X218250250Y-100761200D01*
X218249529Y-100761290D01*
X218243357Y-100762069D01*
X218237545Y-100762526D01*
X218190973Y-100763990D01*
X218190972Y-100763990D01*
X218171729Y-100769581D01*
X218152679Y-100773525D01*
X218132811Y-100776034D01*
X218132809Y-100776035D01*
X218089484Y-100793188D01*
X218083957Y-100795080D01*
X218039210Y-100808081D01*
X218039209Y-100808082D01*
X218021967Y-100818279D01*
X218004499Y-100826837D01*
X217985869Y-100834213D01*
X217985867Y-100834214D01*
X217948176Y-100861597D01*
X217943299Y-100864801D01*
X217927197Y-100874325D01*
X217864065Y-100891600D01*
X217789554Y-100891600D01*
X217757097Y-100898498D01*
X217604397Y-100930955D01*
X217604392Y-100930957D01*
X217431470Y-101007948D01*
X217431465Y-101007951D01*
X217278329Y-101119211D01*
X217151666Y-101259885D01*
X217057021Y-101423815D01*
X217057018Y-101423822D01*
X216998527Y-101603840D01*
X216998526Y-101603844D01*
X216978740Y-101792100D01*
X216998526Y-101980356D01*
X216998527Y-101980359D01*
X217057018Y-102160377D01*
X217057021Y-102160384D01*
X217151667Y-102324316D01*
X217232319Y-102413889D01*
X217278329Y-102464988D01*
X217431465Y-102576248D01*
X217431470Y-102576251D01*
X217604392Y-102653242D01*
X217604397Y-102653244D01*
X217789554Y-102692600D01*
X217848748Y-102692600D01*
X217915787Y-102712285D01*
X217936429Y-102728919D01*
X218398081Y-103190571D01*
X218431566Y-103251894D01*
X218434400Y-103278252D01*
X218434400Y-103976684D01*
X218414715Y-104043723D01*
X218361911Y-104089478D01*
X218292753Y-104099422D01*
X218229197Y-104070397D01*
X218212352Y-104052595D01*
X218200950Y-104037868D01*
X218198853Y-104034709D01*
X218196248Y-104031673D01*
X218195378Y-104030608D01*
X218194331Y-104029744D01*
X218193535Y-104029053D01*
X218191844Y-104027924D01*
X218147227Y-103993382D01*
X218043163Y-103912817D01*
X218041587Y-103911443D01*
X218040337Y-103910552D01*
X218038894Y-103909888D01*
X218038639Y-103909762D01*
X218036618Y-103909078D01*
X217863043Y-103838112D01*
X217861321Y-103837270D01*
X217859126Y-103836504D01*
X217856896Y-103836081D01*
X217854928Y-103835950D01*
X217812533Y-103830268D01*
X217669112Y-103811047D01*
X217667044Y-103810631D01*
X217666691Y-103810607D01*
X217664999Y-103810438D01*
X217663289Y-103810602D01*
X217663101Y-103810614D01*
X217661006Y-103811031D01*
X217523895Y-103829406D01*
X217475069Y-103835950D01*
X217473109Y-103836080D01*
X217470858Y-103836508D01*
X217468781Y-103837226D01*
X217467007Y-103838091D01*
X217293274Y-103909121D01*
X217291382Y-103909765D01*
X217289749Y-103910554D01*
X217288555Y-103911355D01*
X217287080Y-103912628D01*
X217137961Y-104028074D01*
X217136431Y-104029104D01*
X217134636Y-104030637D01*
X217133096Y-104032440D01*
X217132070Y-104033964D01*
X217045023Y-104146404D01*
X217016636Y-104183067D01*
X217015375Y-104184529D01*
X217014576Y-104185718D01*
X217014575Y-104185720D01*
X217014574Y-104185722D01*
X217014550Y-104185758D01*
X217013762Y-104187390D01*
X217013119Y-104189278D01*
X216942025Y-104363169D01*
X216941188Y-104364897D01*
X216940504Y-104366869D01*
X216940074Y-104369200D01*
X216939949Y-104371074D01*
X216915014Y-104557127D01*
X216914606Y-104559197D01*
X216914599Y-104559307D01*
X216914439Y-104560979D01*
X216914600Y-104562646D01*
X216914618Y-104562924D01*
X216915030Y-104564991D01*
X216939949Y-104750926D01*
X216940080Y-104752898D01*
X216940536Y-104755298D01*
X216940542Y-104755338D01*
X216940996Y-104756537D01*
X216941270Y-104757324D01*
X216942115Y-104759052D01*
X217013079Y-104932621D01*
X217013766Y-104934651D01*
X217013887Y-104934896D01*
X217014550Y-104936336D01*
X217015453Y-104937601D01*
X217016829Y-104939181D01*
X217131923Y-105087845D01*
X217133052Y-105089536D01*
X217133743Y-105090332D01*
X217134607Y-105091379D01*
X217135672Y-105092249D01*
X217138708Y-105094854D01*
X217141865Y-105096950D01*
X217286822Y-105209173D01*
X217288654Y-105210770D01*
X217289646Y-105211476D01*
X217291561Y-105212334D01*
X217291587Y-105212347D01*
X217293661Y-105213038D01*
X217462480Y-105282058D01*
X217466329Y-105283966D01*
X217468709Y-105284768D01*
X217470839Y-105285577D01*
X217473089Y-105285929D01*
X217475902Y-105286478D01*
X217480113Y-105286726D01*
X217660563Y-105310910D01*
X217663305Y-105311476D01*
X217665009Y-105311657D01*
X217667977Y-105311328D01*
X217669535Y-105311231D01*
X217674016Y-105310296D01*
X217849914Y-105286722D01*
X217854128Y-105286473D01*
X217857019Y-105285908D01*
X217859162Y-105285569D01*
X217861199Y-105284792D01*
X217863879Y-105283880D01*
X217867648Y-105282005D01*
X218036246Y-105213074D01*
X218038731Y-105212251D01*
X218040389Y-105211513D01*
X218041299Y-105210854D01*
X218043429Y-105208978D01*
X218187761Y-105097237D01*
X218191258Y-105094936D01*
X218193726Y-105092787D01*
X218195417Y-105091418D01*
X218196786Y-105089727D01*
X218198937Y-105087256D01*
X218201241Y-105083756D01*
X218212352Y-105069404D01*
X218268957Y-105028446D01*
X218338721Y-105024593D01*
X218399492Y-105059069D01*
X218431978Y-105120927D01*
X218434400Y-105145316D01*
X218434400Y-107713843D01*
X218414715Y-107780882D01*
X218361911Y-107826637D01*
X218292753Y-107836581D01*
X218255306Y-107824931D01*
X218110604Y-107753166D01*
X217924638Y-107706918D01*
X217924641Y-107706918D01*
X217881608Y-107704000D01*
X217674000Y-107704000D01*
X217674000Y-109475325D01*
X217654315Y-109542364D01*
X217601511Y-109588119D01*
X217532353Y-109598063D01*
X217509739Y-109592607D01*
X217487580Y-109585000D01*
X217487578Y-109585000D01*
X217392431Y-109585000D01*
X217392430Y-109585000D01*
X217318408Y-109597351D01*
X217249043Y-109588968D01*
X217195222Y-109544415D01*
X217174031Y-109477836D01*
X217174000Y-109475042D01*
X217174000Y-107704000D01*
X217173999Y-107704000D01*
X216966394Y-107704001D01*
X216923366Y-107706917D01*
X216923365Y-107706917D01*
X216737397Y-107753165D01*
X216565724Y-107838307D01*
X216416366Y-107958365D01*
X216416365Y-107958366D01*
X216296307Y-108107724D01*
X216265367Y-108170110D01*
X216217946Y-108221423D01*
X216150310Y-108238951D01*
X216083935Y-108217131D01*
X216043191Y-108170109D01*
X216012118Y-108107456D01*
X216012116Y-108107453D01*
X215891990Y-107958010D01*
X215891989Y-107958009D01*
X215742546Y-107837883D01*
X215742543Y-107837881D01*
X215570778Y-107752694D01*
X215570776Y-107752693D01*
X215570775Y-107752693D01*
X215532939Y-107743283D01*
X215384708Y-107706419D01*
X215341658Y-107703500D01*
X215341657Y-107703500D01*
X214426344Y-107703501D01*
X214426343Y-107703501D01*
X214383298Y-107706418D01*
X214383297Y-107706418D01*
X214197221Y-107752694D01*
X214025456Y-107837881D01*
X214025453Y-107837883D01*
X213876010Y-107958009D01*
X213876009Y-107958010D01*
X213755883Y-108107453D01*
X213755881Y-108107456D01*
X213670694Y-108279221D01*
X213624419Y-108465291D01*
X213621500Y-108508342D01*
X213621500Y-109331347D01*
X213601815Y-109398386D01*
X213549011Y-109444141D01*
X213479853Y-109454085D01*
X213416297Y-109425060D01*
X213409819Y-109419028D01*
X213331160Y-109340369D01*
X213297675Y-109279046D01*
X213295523Y-109265668D01*
X213277874Y-109097744D01*
X213219379Y-108917716D01*
X213124733Y-108753784D01*
X212998071Y-108613112D01*
X212998070Y-108613111D01*
X212844934Y-108501851D01*
X212844929Y-108501848D01*
X212672007Y-108424857D01*
X212672002Y-108424855D01*
X212526200Y-108393865D01*
X212486846Y-108385500D01*
X212297554Y-108385500D01*
X212265097Y-108392398D01*
X212112397Y-108424855D01*
X212112392Y-108424857D01*
X211939470Y-108501848D01*
X211939465Y-108501851D01*
X211786329Y-108613111D01*
X211659666Y-108753785D01*
X211565021Y-108917715D01*
X211565018Y-108917722D01*
X211506527Y-109097740D01*
X211506526Y-109097744D01*
X211486740Y-109286000D01*
X211506526Y-109474256D01*
X211506527Y-109474259D01*
X211565018Y-109654277D01*
X211565021Y-109654284D01*
X211659667Y-109818216D01*
X211764012Y-109934102D01*
X211786329Y-109958888D01*
X211939465Y-110070148D01*
X211939470Y-110070151D01*
X212112392Y-110147142D01*
X212112397Y-110147144D01*
X212297554Y-110186500D01*
X212356748Y-110186500D01*
X212423787Y-110206185D01*
X212444428Y-110222818D01*
X213211029Y-110989419D01*
X213244513Y-111050741D01*
X213239529Y-111120433D01*
X213211028Y-111164780D01*
X211071208Y-113304599D01*
X211058951Y-113314420D01*
X211059134Y-113314641D01*
X211053123Y-113319613D01*
X211005772Y-113370036D01*
X210984889Y-113390918D01*
X210984877Y-113390932D01*
X210980621Y-113396417D01*
X210976837Y-113400847D01*
X210944937Y-113434818D01*
X210944936Y-113434820D01*
X210935284Y-113452376D01*
X210924610Y-113468626D01*
X210912329Y-113484461D01*
X210912324Y-113484468D01*
X210893815Y-113527238D01*
X210891245Y-113532484D01*
X210868803Y-113573306D01*
X210863822Y-113592707D01*
X210857521Y-113611110D01*
X210849562Y-113629502D01*
X210849561Y-113629506D01*
X210842271Y-113675527D01*
X210841087Y-113681246D01*
X210829499Y-113726383D01*
X210829499Y-113746419D01*
X210827973Y-113765807D01*
X210824840Y-113785592D01*
X210824840Y-113785595D01*
X210829225Y-113831983D01*
X210829500Y-113837821D01*
X210829500Y-128841312D01*
X210809815Y-128908351D01*
X210797650Y-128924284D01*
X210722466Y-129007784D01*
X210627821Y-129171715D01*
X210627818Y-129171722D01*
X210569327Y-129351740D01*
X210569326Y-129351744D01*
X210549540Y-129540000D01*
X210569326Y-129728256D01*
X210569327Y-129728259D01*
X210627818Y-129908277D01*
X210627821Y-129908284D01*
X210722467Y-130072216D01*
X210828028Y-130189453D01*
X210849129Y-130212888D01*
X211002265Y-130324148D01*
X211002270Y-130324151D01*
X211175192Y-130401142D01*
X211175197Y-130401144D01*
X211360354Y-130440500D01*
X211419548Y-130440500D01*
X211486587Y-130460185D01*
X211507228Y-130476818D01*
X211748193Y-130717784D01*
X211970197Y-130939788D01*
X211980022Y-130952051D01*
X211980243Y-130951869D01*
X211985214Y-130957878D01*
X212011217Y-130982295D01*
X212035635Y-131005226D01*
X212056529Y-131026120D01*
X212062011Y-131030373D01*
X212066443Y-131034157D01*
X212100418Y-131066062D01*
X212117976Y-131075714D01*
X212134233Y-131086393D01*
X212150064Y-131098673D01*
X212169737Y-131107186D01*
X212192833Y-131117182D01*
X212198077Y-131119750D01*
X212238908Y-131142197D01*
X212251523Y-131145435D01*
X212258305Y-131147177D01*
X212276719Y-131153481D01*
X212295104Y-131161438D01*
X212341157Y-131168732D01*
X212346826Y-131169906D01*
X212391981Y-131181500D01*
X212412016Y-131181500D01*
X212431413Y-131183026D01*
X212451196Y-131186160D01*
X212497583Y-131181775D01*
X212503422Y-131181500D01*
X213409501Y-131181500D01*
X213476540Y-131201185D01*
X213522295Y-131253989D01*
X213533501Y-131305500D01*
X213533501Y-131453876D01*
X213539908Y-131513483D01*
X213590202Y-131648328D01*
X213590206Y-131648335D01*
X213676452Y-131763544D01*
X213676455Y-131763547D01*
X213791664Y-131849793D01*
X213791671Y-131849797D01*
X213923081Y-131898810D01*
X213979015Y-131940681D01*
X214003432Y-132006145D01*
X213988580Y-132074418D01*
X213967430Y-132102673D01*
X213845503Y-132224600D01*
X213709965Y-132418169D01*
X213709964Y-132418171D01*
X213610098Y-132632335D01*
X213610094Y-132632344D01*
X213548938Y-132860586D01*
X213548936Y-132860596D01*
X213528341Y-133095999D01*
X213528341Y-133096000D01*
X213548936Y-133331403D01*
X213548938Y-133331413D01*
X213610094Y-133559655D01*
X213610096Y-133559659D01*
X213610097Y-133559663D01*
X213689115Y-133729117D01*
X213709965Y-133773830D01*
X213709967Y-133773834D01*
X213845501Y-133967395D01*
X213845506Y-133967402D01*
X214012597Y-134134493D01*
X214012603Y-134134498D01*
X214198158Y-134264425D01*
X214241783Y-134319002D01*
X214248977Y-134388500D01*
X214217454Y-134450855D01*
X214198158Y-134467575D01*
X214012597Y-134597505D01*
X213845505Y-134764597D01*
X213709965Y-134958169D01*
X213709964Y-134958171D01*
X213610098Y-135172335D01*
X213610094Y-135172344D01*
X213548938Y-135400586D01*
X213548936Y-135400596D01*
X213528341Y-135635999D01*
X213528341Y-135636000D01*
X213548936Y-135871403D01*
X213548938Y-135871413D01*
X213610094Y-136099655D01*
X213610097Y-136099663D01*
X213641775Y-136167597D01*
X213652267Y-136236672D01*
X213623748Y-136300456D01*
X213565271Y-136338696D01*
X213529393Y-136344000D01*
X212270143Y-136344000D01*
X212254522Y-136342275D01*
X212254495Y-136342561D01*
X212246733Y-136341826D01*
X212177572Y-136344000D01*
X212148049Y-136344000D01*
X212141178Y-136344867D01*
X212135359Y-136345325D01*
X212088774Y-136346789D01*
X212088768Y-136346790D01*
X212069526Y-136352380D01*
X212050487Y-136356323D01*
X212030617Y-136358834D01*
X212030604Y-136358837D01*
X212025402Y-136360897D01*
X211955823Y-136367268D01*
X211893845Y-136335011D01*
X211878187Y-136316723D01*
X211876161Y-136313830D01*
X211858495Y-136288599D01*
X211736179Y-136166283D01*
X211702696Y-136104963D01*
X211707680Y-136035271D01*
X211749551Y-135979337D01*
X211780529Y-135962422D01*
X211912086Y-135913354D01*
X211912093Y-135913350D01*
X212027187Y-135827190D01*
X212027190Y-135827187D01*
X212113350Y-135712093D01*
X212113354Y-135712086D01*
X212163596Y-135577379D01*
X212163598Y-135577372D01*
X212169999Y-135517844D01*
X212170000Y-135517827D01*
X212170000Y-134870000D01*
X211433347Y-134870000D01*
X211366308Y-134850315D01*
X211320553Y-134797511D01*
X211310609Y-134728353D01*
X211314369Y-134711067D01*
X211320000Y-134691888D01*
X211320000Y-134548111D01*
X211314369Y-134528933D01*
X211314370Y-134459064D01*
X211352145Y-134400286D01*
X211415701Y-134371262D01*
X211433347Y-134370000D01*
X212170000Y-134370000D01*
X212170000Y-133722172D01*
X212169999Y-133722155D01*
X212163598Y-133662627D01*
X212163596Y-133662620D01*
X212113354Y-133527913D01*
X212113350Y-133527906D01*
X212027190Y-133412812D01*
X212027187Y-133412809D01*
X211912093Y-133326649D01*
X211912086Y-133326645D01*
X211777379Y-133276403D01*
X211777372Y-133276401D01*
X211717844Y-133270000D01*
X211070000Y-133270000D01*
X211070000Y-134007698D01*
X211050315Y-134074737D01*
X210997511Y-134120492D01*
X210928355Y-134130436D01*
X210855766Y-134120000D01*
X210855763Y-134120000D01*
X210784237Y-134120000D01*
X210784233Y-134120000D01*
X210711644Y-134130436D01*
X210642486Y-134120492D01*
X210589683Y-134074736D01*
X210569999Y-134007698D01*
X210570000Y-133270000D01*
X209922155Y-133270000D01*
X209862627Y-133276401D01*
X209862620Y-133276403D01*
X209727913Y-133326645D01*
X209727906Y-133326649D01*
X209612812Y-133412809D01*
X209612809Y-133412812D01*
X209526649Y-133527906D01*
X209526645Y-133527913D01*
X209476403Y-133662620D01*
X209476401Y-133662627D01*
X209470000Y-133722155D01*
X209470000Y-134370000D01*
X210206653Y-134370000D01*
X210273692Y-134389685D01*
X210319447Y-134442489D01*
X210329391Y-134511647D01*
X210325631Y-134528933D01*
X210320000Y-134548111D01*
X210320000Y-134691888D01*
X210325631Y-134711067D01*
X210325630Y-134780936D01*
X210287855Y-134839714D01*
X210224299Y-134868738D01*
X210206653Y-134870000D01*
X209470000Y-134870000D01*
X209470000Y-135517844D01*
X209476401Y-135577372D01*
X209476403Y-135577379D01*
X209526645Y-135712086D01*
X209526649Y-135712093D01*
X209612809Y-135827187D01*
X209612812Y-135827190D01*
X209727906Y-135913350D01*
X209727913Y-135913354D01*
X209859470Y-135962421D01*
X209915403Y-136004292D01*
X209939821Y-136069756D01*
X209924970Y-136138029D01*
X209903819Y-136166284D01*
X209781503Y-136288600D01*
X209645965Y-136482169D01*
X209645964Y-136482171D01*
X209546098Y-136696335D01*
X209546094Y-136696344D01*
X209484938Y-136924586D01*
X209484936Y-136924596D01*
X209464341Y-137159999D01*
X209464341Y-137160000D01*
X209484936Y-137395403D01*
X209484938Y-137395413D01*
X209546094Y-137623655D01*
X209546096Y-137623659D01*
X209546097Y-137623663D01*
X209620838Y-137783945D01*
X209645965Y-137837830D01*
X209645967Y-137837834D01*
X209707702Y-137926000D01*
X209781505Y-138031401D01*
X209948599Y-138198495D01*
X210019141Y-138247889D01*
X210142165Y-138334032D01*
X210142167Y-138334033D01*
X210142170Y-138334035D01*
X210356337Y-138433903D01*
X210584592Y-138495063D01*
X210772918Y-138511539D01*
X210819999Y-138515659D01*
X210820000Y-138515659D01*
X210820001Y-138515659D01*
X210859234Y-138512226D01*
X211055408Y-138495063D01*
X211283663Y-138433903D01*
X211497830Y-138334035D01*
X211691401Y-138198495D01*
X211858495Y-138031401D01*
X211994035Y-137837830D01*
X211994036Y-137837825D01*
X211995599Y-137835595D01*
X212050176Y-137791970D01*
X212087818Y-137783945D01*
X212087816Y-137783931D01*
X212088082Y-137783888D01*
X212093286Y-137782779D01*
X212095527Y-137782709D01*
X212114769Y-137777117D01*
X212133812Y-137773174D01*
X212153692Y-137770664D01*
X212197022Y-137753507D01*
X212202546Y-137751617D01*
X212206296Y-137750527D01*
X212247290Y-137738618D01*
X212264529Y-137728422D01*
X212282003Y-137719862D01*
X212300627Y-137712488D01*
X212300627Y-137712487D01*
X212300632Y-137712486D01*
X212338349Y-137685082D01*
X212343205Y-137681892D01*
X212383320Y-137658170D01*
X212397486Y-137644003D01*
X212412282Y-137631367D01*
X212429747Y-137618679D01*
X212495554Y-137595202D01*
X212502628Y-137595000D01*
X213480456Y-137595000D01*
X213547495Y-137614685D01*
X213593250Y-137667489D01*
X213603194Y-137736647D01*
X213600231Y-137751094D01*
X213553364Y-137925999D01*
X213553364Y-137926000D01*
X214270653Y-137926000D01*
X214337692Y-137945685D01*
X214383447Y-137998489D01*
X214393391Y-138067647D01*
X214389631Y-138084933D01*
X214384000Y-138104111D01*
X214384000Y-138247888D01*
X214389631Y-138267067D01*
X214389630Y-138336936D01*
X214351855Y-138395714D01*
X214288299Y-138424738D01*
X214270653Y-138426000D01*
X213553364Y-138426000D01*
X213610567Y-138639486D01*
X213610570Y-138639492D01*
X213710399Y-138853578D01*
X213845894Y-139047082D01*
X214012917Y-139214105D01*
X214206421Y-139349600D01*
X214420507Y-139449429D01*
X214420516Y-139449433D01*
X214634000Y-139506634D01*
X214634000Y-138788301D01*
X214653685Y-138721262D01*
X214706489Y-138675507D01*
X214775647Y-138665563D01*
X214848237Y-138676000D01*
X214848238Y-138676000D01*
X214919762Y-138676000D01*
X214919763Y-138676000D01*
X214992353Y-138665563D01*
X215061512Y-138675507D01*
X215114315Y-138721262D01*
X215134000Y-138788301D01*
X215134000Y-139506633D01*
X215347483Y-139449433D01*
X215347492Y-139449429D01*
X215561578Y-139349600D01*
X215755082Y-139214105D01*
X215922105Y-139047082D01*
X216057600Y-138853578D01*
X216157429Y-138639492D01*
X216157432Y-138639486D01*
X216214636Y-138426000D01*
X215497347Y-138426000D01*
X215430308Y-138406315D01*
X215384553Y-138353511D01*
X215374609Y-138284353D01*
X215378369Y-138267067D01*
X215384000Y-138247888D01*
X215384000Y-138104111D01*
X215378369Y-138084933D01*
X215378370Y-138015064D01*
X215416145Y-137956286D01*
X215479701Y-137927262D01*
X215497347Y-137926000D01*
X216214636Y-137926000D01*
X216225828Y-137911414D01*
X216282256Y-137870211D01*
X216324204Y-137862900D01*
X233358957Y-137862900D01*
X233374577Y-137864624D01*
X233374604Y-137864339D01*
X233382360Y-137865071D01*
X233382367Y-137865073D01*
X233451514Y-137862900D01*
X233474969Y-137862900D01*
X233542008Y-137882585D01*
X233576544Y-137915777D01*
X233657500Y-138031395D01*
X233657505Y-138031401D01*
X233824599Y-138198495D01*
X233895141Y-138247889D01*
X234018165Y-138334032D01*
X234018167Y-138334033D01*
X234018170Y-138334035D01*
X234232337Y-138433903D01*
X234460592Y-138495063D01*
X234648918Y-138511539D01*
X234695999Y-138515659D01*
X234696000Y-138515659D01*
X234696001Y-138515659D01*
X234735234Y-138512226D01*
X234931408Y-138495063D01*
X235159663Y-138433903D01*
X235373830Y-138334035D01*
X235567401Y-138198495D01*
X235734495Y-138031401D01*
X235870035Y-137837830D01*
X235969903Y-137623663D01*
X236031063Y-137395408D01*
X236051659Y-137160000D01*
X236031063Y-136924592D01*
X235969903Y-136696337D01*
X235870035Y-136482171D01*
X235854117Y-136459438D01*
X235734496Y-136288600D01*
X235682568Y-136236672D01*
X235612179Y-136166283D01*
X235578696Y-136104963D01*
X235583680Y-136035271D01*
X235625551Y-135979337D01*
X235656529Y-135962422D01*
X235788086Y-135913354D01*
X235788093Y-135913350D01*
X235903187Y-135827190D01*
X235903190Y-135827187D01*
X235989350Y-135712093D01*
X235989354Y-135712086D01*
X236039596Y-135577379D01*
X236039598Y-135577372D01*
X236045999Y-135517844D01*
X236046000Y-135517827D01*
X236046000Y-134870000D01*
X235309347Y-134870000D01*
X235242308Y-134850315D01*
X235196553Y-134797511D01*
X235186609Y-134728353D01*
X235190369Y-134711067D01*
X235196000Y-134691888D01*
X235196000Y-134548111D01*
X235190369Y-134528933D01*
X235190370Y-134459064D01*
X235228145Y-134400286D01*
X235291701Y-134371262D01*
X235309347Y-134370000D01*
X236046000Y-134370000D01*
X236046000Y-133722172D01*
X236045999Y-133722155D01*
X236039598Y-133662627D01*
X236039596Y-133662620D01*
X235989354Y-133527913D01*
X235989350Y-133527906D01*
X235903190Y-133412812D01*
X235903187Y-133412809D01*
X235788093Y-133326649D01*
X235788086Y-133326645D01*
X235653379Y-133276403D01*
X235653372Y-133276401D01*
X235593844Y-133270000D01*
X234946000Y-133270000D01*
X234945999Y-134007698D01*
X234926314Y-134074738D01*
X234873510Y-134120492D01*
X234804353Y-134130436D01*
X234731764Y-134120000D01*
X234731763Y-134120000D01*
X234660237Y-134120000D01*
X234660233Y-134120000D01*
X234587645Y-134130436D01*
X234518487Y-134120492D01*
X234465684Y-134074736D01*
X234446000Y-134007698D01*
X234446000Y-133270000D01*
X233798155Y-133270000D01*
X233738627Y-133276401D01*
X233738620Y-133276403D01*
X233603913Y-133326645D01*
X233603906Y-133326649D01*
X233488812Y-133412809D01*
X233488809Y-133412812D01*
X233402649Y-133527906D01*
X233402645Y-133527913D01*
X233352403Y-133662620D01*
X233352401Y-133662627D01*
X233346000Y-133722155D01*
X233346000Y-134370000D01*
X234082653Y-134370000D01*
X234149692Y-134389685D01*
X234195447Y-134442489D01*
X234205391Y-134511647D01*
X234201631Y-134528933D01*
X234196000Y-134548111D01*
X234196000Y-134691888D01*
X234201631Y-134711067D01*
X234201630Y-134780936D01*
X234163855Y-134839714D01*
X234100299Y-134868738D01*
X234082653Y-134870000D01*
X233346000Y-134870000D01*
X233346000Y-135517844D01*
X233352401Y-135577372D01*
X233352403Y-135577379D01*
X233402645Y-135712086D01*
X233402649Y-135712093D01*
X233488809Y-135827187D01*
X233488812Y-135827190D01*
X233603906Y-135913350D01*
X233603913Y-135913354D01*
X233735470Y-135962421D01*
X233791403Y-136004292D01*
X233815821Y-136069756D01*
X233800970Y-136138029D01*
X233779819Y-136166284D01*
X233657503Y-136288600D01*
X233520401Y-136484404D01*
X233465824Y-136528029D01*
X233428177Y-136536056D01*
X233428180Y-136536070D01*
X233427934Y-136536108D01*
X233422724Y-136537220D01*
X233420473Y-136537290D01*
X233420472Y-136537290D01*
X233401229Y-136542881D01*
X233382179Y-136546825D01*
X233362311Y-136549334D01*
X233362309Y-136549335D01*
X233318984Y-136566488D01*
X233313457Y-136568380D01*
X233268710Y-136581381D01*
X233268709Y-136581382D01*
X233251467Y-136591579D01*
X233234003Y-136600135D01*
X233226291Y-136603189D01*
X233180636Y-136611900D01*
X226176500Y-136611900D01*
X226109461Y-136592215D01*
X226063706Y-136539411D01*
X226052500Y-136487900D01*
X226052499Y-134670344D01*
X226052499Y-134670343D01*
X226049581Y-134627298D01*
X226049581Y-134627297D01*
X226029888Y-134548111D01*
X226003307Y-134441225D01*
X225983003Y-134400286D01*
X225918118Y-134269456D01*
X225918116Y-134269453D01*
X225797990Y-134120010D01*
X225797989Y-134120009D01*
X225648546Y-133999883D01*
X225648543Y-133999881D01*
X225476778Y-133914694D01*
X225476776Y-133914693D01*
X225476775Y-133914693D01*
X225438939Y-133905283D01*
X225290708Y-133868419D01*
X225247658Y-133865500D01*
X225247657Y-133865500D01*
X224332344Y-133865501D01*
X224332343Y-133865501D01*
X224289298Y-133868418D01*
X224289297Y-133868418D01*
X224103223Y-133914693D01*
X223959980Y-133985736D01*
X223891175Y-133997888D01*
X223830574Y-133973915D01*
X223762088Y-133922646D01*
X223762086Y-133922645D01*
X223627379Y-133872403D01*
X223627372Y-133872401D01*
X223567844Y-133866000D01*
X223008000Y-133866000D01*
X223008000Y-134637325D01*
X222988315Y-134704364D01*
X222935511Y-134750119D01*
X222866353Y-134760063D01*
X222843739Y-134754607D01*
X222821580Y-134747000D01*
X222821578Y-134747000D01*
X222726431Y-134747000D01*
X222726430Y-134747000D01*
X222652408Y-134759351D01*
X222583043Y-134750968D01*
X222529222Y-134706415D01*
X222508031Y-134639836D01*
X222508000Y-134637042D01*
X222508000Y-133866000D01*
X221948155Y-133866000D01*
X221888627Y-133872401D01*
X221888620Y-133872403D01*
X221753913Y-133922645D01*
X221753911Y-133922646D01*
X221685426Y-133973915D01*
X221619962Y-133998332D01*
X221556020Y-133985736D01*
X221412776Y-133914693D01*
X221226708Y-133868419D01*
X221183658Y-133865500D01*
X221183657Y-133865500D01*
X220268344Y-133865501D01*
X220268343Y-133865501D01*
X220225298Y-133868418D01*
X220225297Y-133868418D01*
X220039221Y-133914694D01*
X219867456Y-133999881D01*
X219867453Y-133999883D01*
X219718010Y-134120009D01*
X219718009Y-134120010D01*
X219597883Y-134269453D01*
X219597881Y-134269456D01*
X219512694Y-134441221D01*
X219466419Y-134627291D01*
X219464063Y-134662037D01*
X219463500Y-134670343D01*
X219463500Y-135618957D01*
X219463501Y-136487900D01*
X219443816Y-136554939D01*
X219391013Y-136600694D01*
X219339501Y-136611900D01*
X216392865Y-136611900D01*
X216325826Y-136592215D01*
X216303818Y-136572702D01*
X216303573Y-136572964D01*
X216278412Y-136549336D01*
X216247463Y-136520272D01*
X216247462Y-136520271D01*
X216226576Y-136499384D01*
X216221086Y-136495125D01*
X216216661Y-136491347D01*
X216182682Y-136459438D01*
X216182680Y-136459436D01*
X216182677Y-136459435D01*
X216165129Y-136449788D01*
X216148863Y-136439104D01*
X216133036Y-136426827D01*
X216133032Y-136426825D01*
X216129720Y-136424866D01*
X216127652Y-136422651D01*
X216126872Y-136422046D01*
X216126969Y-136421920D01*
X216082039Y-136373795D01*
X216069537Y-136305053D01*
X216080461Y-136265736D01*
X216157903Y-136099663D01*
X216219063Y-135871408D01*
X216239659Y-135636000D01*
X216219063Y-135400592D01*
X216157903Y-135172337D01*
X216058035Y-134958171D01*
X216052872Y-134950798D01*
X215944489Y-134796010D01*
X215922162Y-134729804D01*
X215939172Y-134662037D01*
X215958380Y-134637209D01*
X216444686Y-134150902D01*
X216456948Y-134141080D01*
X216456765Y-134140859D01*
X216462767Y-134135892D01*
X216462777Y-134135886D01*
X216510141Y-134085448D01*
X216531020Y-134064570D01*
X216535273Y-134059086D01*
X216539050Y-134054663D01*
X216570962Y-134020682D01*
X216580614Y-134003123D01*
X216591289Y-133986872D01*
X216603574Y-133971036D01*
X216622086Y-133928252D01*
X216624642Y-133923035D01*
X216647097Y-133882192D01*
X216652080Y-133862780D01*
X216658377Y-133844391D01*
X216666338Y-133825995D01*
X216673629Y-133779953D01*
X216674808Y-133774262D01*
X216686400Y-133729119D01*
X216686400Y-133709083D01*
X216687927Y-133689683D01*
X216691060Y-133669904D01*
X216686673Y-133623507D01*
X216686399Y-133617684D01*
X216686399Y-133036887D01*
X220164416Y-133036887D01*
X220164459Y-133060999D01*
X220164500Y-133061097D01*
X220164616Y-133061380D01*
X220164618Y-133061382D01*
X220164808Y-133061460D01*
X220165000Y-133061539D01*
X220165002Y-133061537D01*
X220189616Y-133061522D01*
X220189616Y-133061526D01*
X220189760Y-133061498D01*
X225140240Y-133061498D01*
X225140383Y-133061526D01*
X225140384Y-133061522D01*
X225164997Y-133061537D01*
X225165000Y-133061539D01*
X225165383Y-133061381D01*
X225165500Y-133061097D01*
X225165541Y-133060998D01*
X225165540Y-133060995D01*
X225165583Y-133036888D01*
X225165500Y-133036470D01*
X225165500Y-130752901D01*
X225165500Y-130752900D01*
X225165500Y-130560962D01*
X226914438Y-130560962D01*
X226914600Y-130562643D01*
X226914619Y-130562925D01*
X226915030Y-130564991D01*
X226922948Y-130624071D01*
X226935506Y-130717784D01*
X226939951Y-130750948D01*
X226940086Y-130752976D01*
X226940228Y-130753702D01*
X226940482Y-130755207D01*
X226941051Y-130756733D01*
X226941141Y-130757000D01*
X226942022Y-130758820D01*
X227012920Y-130932236D01*
X227013076Y-130932616D01*
X227013763Y-130934644D01*
X227013885Y-130934892D01*
X227014549Y-130936335D01*
X227015444Y-130937590D01*
X227016819Y-130939168D01*
X227132077Y-131088038D01*
X227133222Y-131089737D01*
X227133662Y-131090241D01*
X227134605Y-131091379D01*
X227135773Y-131092337D01*
X227136455Y-131092927D01*
X227138095Y-131094025D01*
X227144099Y-131098673D01*
X227181752Y-131127825D01*
X227182618Y-131128495D01*
X227286836Y-131209183D01*
X227288659Y-131210772D01*
X227289646Y-131211475D01*
X227291561Y-131212333D01*
X227291573Y-131212339D01*
X227293642Y-131213028D01*
X227466916Y-131283867D01*
X227469075Y-131284924D01*
X227470890Y-131285607D01*
X227472634Y-131285884D01*
X227475072Y-131286046D01*
X227660824Y-131310942D01*
X227663663Y-131311517D01*
X227664999Y-131311658D01*
X227666333Y-131311517D01*
X227669167Y-131310943D01*
X227849901Y-131286719D01*
X227854314Y-131286458D01*
X227856628Y-131285993D01*
X227859219Y-131285584D01*
X227861686Y-131284635D01*
X227863618Y-131283987D01*
X227867525Y-131282051D01*
X227936165Y-131253989D01*
X228036237Y-131213076D01*
X228038726Y-131212252D01*
X228040389Y-131211512D01*
X228041304Y-131210848D01*
X228043433Y-131208974D01*
X228043443Y-131208966D01*
X228188132Y-131096945D01*
X228191662Y-131094601D01*
X228193635Y-131092871D01*
X228195421Y-131091419D01*
X228196873Y-131089633D01*
X228198603Y-131087660D01*
X228200948Y-131084129D01*
X228312976Y-130939431D01*
X228314850Y-130937302D01*
X228315514Y-130936387D01*
X228316255Y-130934722D01*
X228317079Y-130932236D01*
X228385928Y-130763827D01*
X228387887Y-130759900D01*
X228388644Y-130757651D01*
X228389641Y-130755065D01*
X228389883Y-130753549D01*
X228390065Y-130750866D01*
X228392250Y-130734787D01*
X228392246Y-130734550D01*
X228414926Y-130565308D01*
X228415513Y-130562435D01*
X228415663Y-130561060D01*
X228415477Y-130559313D01*
X228414909Y-130556561D01*
X228390049Y-130371070D01*
X228389886Y-130368632D01*
X228389609Y-130366888D01*
X228388926Y-130365073D01*
X228387869Y-130362914D01*
X228317030Y-130189640D01*
X228316341Y-130187571D01*
X228316335Y-130187559D01*
X228315477Y-130185644D01*
X228314772Y-130184653D01*
X228313173Y-130182819D01*
X228312969Y-130182556D01*
X228200947Y-130037865D01*
X228198847Y-130034702D01*
X228196247Y-130031671D01*
X228195362Y-130030588D01*
X228194238Y-130029657D01*
X228193733Y-130029215D01*
X228192040Y-130028075D01*
X228043166Y-129912815D01*
X228041589Y-129911441D01*
X228040337Y-129910548D01*
X228038894Y-129909884D01*
X228038645Y-129909761D01*
X228036621Y-129909076D01*
X227862976Y-129838084D01*
X227861179Y-129837207D01*
X227860643Y-129837024D01*
X227859177Y-129836475D01*
X227857702Y-129836226D01*
X227856987Y-129836086D01*
X227854929Y-129835949D01*
X227726191Y-129818694D01*
X227668762Y-129810997D01*
X227666683Y-129810591D01*
X227664999Y-129810432D01*
X227663313Y-129810591D01*
X227661236Y-129810997D01*
X227540532Y-129827175D01*
X227475069Y-129835949D01*
X227473109Y-129836079D01*
X227470858Y-129836507D01*
X227468791Y-129837221D01*
X227467012Y-129838089D01*
X227411679Y-129860710D01*
X227293280Y-129909115D01*
X227291382Y-129909761D01*
X227289749Y-129910550D01*
X227288556Y-129911351D01*
X227287081Y-129912622D01*
X227182774Y-129993380D01*
X227163151Y-130008573D01*
X227137967Y-130028069D01*
X227136444Y-130029095D01*
X227134638Y-130030637D01*
X227133270Y-130032226D01*
X227132224Y-130033765D01*
X227016621Y-130183081D01*
X227015356Y-130184548D01*
X227014551Y-130185747D01*
X227013762Y-130187380D01*
X227013116Y-130189278D01*
X226942006Y-130363216D01*
X226941139Y-130365010D01*
X226940929Y-130365628D01*
X226940538Y-130366691D01*
X226940534Y-130366721D01*
X226940082Y-130369100D01*
X226939951Y-130371069D01*
X226914999Y-130557233D01*
X226914593Y-130559310D01*
X226914438Y-130560962D01*
X225165500Y-130560962D01*
X225165500Y-128085756D01*
X225165528Y-128085614D01*
X225165524Y-128085614D01*
X225165539Y-128061000D01*
X225165541Y-128060998D01*
X225165462Y-128060806D01*
X225165384Y-128060616D01*
X225165382Y-128060614D01*
X225165099Y-128060498D01*
X225165000Y-128060457D01*
X225140446Y-128060457D01*
X225140240Y-128060498D01*
X220189760Y-128060498D01*
X220189554Y-128060457D01*
X220165000Y-128060457D01*
X220164901Y-128060498D01*
X220164617Y-128060614D01*
X220164615Y-128060616D01*
X220164459Y-128060997D01*
X220164476Y-128085614D01*
X220164471Y-128085614D01*
X220164500Y-128085757D01*
X220164500Y-133036465D01*
X220164416Y-133036887D01*
X216686399Y-133036887D01*
X216686399Y-130717784D01*
X216706084Y-130650745D01*
X216758888Y-130604990D01*
X216828046Y-130595046D01*
X216891602Y-130624071D01*
X216929376Y-130682849D01*
X216933300Y-130701312D01*
X216939273Y-130745881D01*
X216939949Y-130750919D01*
X216940087Y-130752988D01*
X216940226Y-130753700D01*
X216940475Y-130755175D01*
X216941024Y-130756641D01*
X216941212Y-130757189D01*
X216942088Y-130758986D01*
X217013077Y-130932616D01*
X217013761Y-130934637D01*
X217013887Y-130934892D01*
X217014551Y-130936335D01*
X217015447Y-130937591D01*
X217016820Y-130939167D01*
X217111471Y-131061424D01*
X217126173Y-131080414D01*
X217132035Y-131087985D01*
X217133305Y-131089875D01*
X217134575Y-131091421D01*
X217136362Y-131092872D01*
X217136370Y-131092879D01*
X217138143Y-131094063D01*
X217286558Y-131208966D01*
X217288188Y-131210402D01*
X217288254Y-131210446D01*
X217289738Y-131211504D01*
X217291419Y-131212263D01*
X217293433Y-131212943D01*
X217406227Y-131259055D01*
X217466905Y-131283863D01*
X217469065Y-131284920D01*
X217470890Y-131285607D01*
X217472633Y-131285884D01*
X217475071Y-131286046D01*
X217660812Y-131310940D01*
X217663640Y-131311513D01*
X217665068Y-131311659D01*
X217666300Y-131311524D01*
X217669170Y-131310943D01*
X217849901Y-131286719D01*
X217854314Y-131286458D01*
X217856628Y-131285993D01*
X217859219Y-131285584D01*
X217861686Y-131284635D01*
X217863618Y-131283987D01*
X217867525Y-131282051D01*
X217936165Y-131253989D01*
X218036237Y-131213076D01*
X218038726Y-131212252D01*
X218040389Y-131211512D01*
X218041304Y-131210848D01*
X218043433Y-131208974D01*
X218104832Y-131161438D01*
X218188050Y-131097009D01*
X218191821Y-131094510D01*
X218193069Y-131093399D01*
X218195471Y-131091466D01*
X218197404Y-131089064D01*
X218198517Y-131087814D01*
X218201017Y-131084042D01*
X218239634Y-131034161D01*
X218312789Y-130939667D01*
X218314389Y-130937869D01*
X218315545Y-130936280D01*
X218316179Y-130934868D01*
X218316993Y-130932442D01*
X218385930Y-130763827D01*
X218386001Y-130763652D01*
X218387879Y-130759878D01*
X218388791Y-130757197D01*
X218389568Y-130755160D01*
X218389907Y-130753017D01*
X218390478Y-130750092D01*
X218390729Y-130745881D01*
X218392251Y-130734555D01*
X218392251Y-130734497D01*
X218394491Y-130717784D01*
X218414295Y-130570014D01*
X218415230Y-130565533D01*
X218415327Y-130563975D01*
X218415663Y-130560948D01*
X218415538Y-130559750D01*
X218414942Y-130556807D01*
X218390725Y-130376111D01*
X218390477Y-130371900D01*
X218389928Y-130369087D01*
X218389576Y-130366837D01*
X218388767Y-130364707D01*
X218387966Y-130362328D01*
X218386059Y-130358483D01*
X218316952Y-130189453D01*
X218316270Y-130187430D01*
X218315504Y-130185736D01*
X218314446Y-130184252D01*
X218314402Y-130184186D01*
X218312966Y-130182556D01*
X218200949Y-130037865D01*
X218198848Y-130034701D01*
X218196249Y-130031671D01*
X218195364Y-130030588D01*
X218194240Y-130029657D01*
X218193734Y-130029214D01*
X218192035Y-130028070D01*
X218043174Y-129912821D01*
X218041594Y-129911444D01*
X218040337Y-129910548D01*
X218038894Y-129909884D01*
X218038645Y-129909761D01*
X218036621Y-129909076D01*
X217862976Y-129838084D01*
X217861179Y-129837207D01*
X217860643Y-129837024D01*
X217859177Y-129836475D01*
X217857702Y-129836226D01*
X217856987Y-129836086D01*
X217854929Y-129835949D01*
X217668760Y-129810996D01*
X217666699Y-129810594D01*
X217665032Y-129810432D01*
X217663329Y-129810588D01*
X217661236Y-129810997D01*
X217540532Y-129827175D01*
X217475069Y-129835949D01*
X217473109Y-129836079D01*
X217470858Y-129836507D01*
X217468791Y-129837221D01*
X217467012Y-129838089D01*
X217411679Y-129860710D01*
X217293280Y-129909115D01*
X217291382Y-129909761D01*
X217289749Y-129910550D01*
X217288552Y-129911353D01*
X217287079Y-129912624D01*
X217137830Y-130028174D01*
X217136158Y-130029306D01*
X217135765Y-130029651D01*
X217134609Y-130030608D01*
X217133652Y-130031764D01*
X217133304Y-130032161D01*
X217132178Y-130033823D01*
X217016623Y-130183081D01*
X217015359Y-130184546D01*
X217014553Y-130185747D01*
X217013764Y-130187380D01*
X217013120Y-130189272D01*
X216942020Y-130363176D01*
X216941188Y-130364893D01*
X216940504Y-130366866D01*
X216940074Y-130369196D01*
X216939949Y-130371072D01*
X216933300Y-130420679D01*
X216904884Y-130484510D01*
X216846470Y-130522845D01*
X216776604Y-130523513D01*
X216717467Y-130486302D01*
X216687836Y-130423027D01*
X216686399Y-130404213D01*
X216686399Y-127597278D01*
X216706084Y-127530243D01*
X216758888Y-127484488D01*
X216828046Y-127474544D01*
X216840325Y-127476947D01*
X216923291Y-127497580D01*
X216923292Y-127497580D01*
X216923296Y-127497581D01*
X216962336Y-127500228D01*
X216966342Y-127500500D01*
X216966342Y-127500499D01*
X216966343Y-127500500D01*
X217881656Y-127500499D01*
X217881657Y-127500499D01*
X217892417Y-127499769D01*
X217924704Y-127497581D01*
X218110775Y-127451307D01*
X218282547Y-127366116D01*
X218431990Y-127245990D01*
X218552116Y-127096547D01*
X218582911Y-127034453D01*
X218630333Y-126983140D01*
X218697968Y-126965610D01*
X218764343Y-126987430D01*
X218805088Y-127034453D01*
X218835881Y-127096543D01*
X218835883Y-127096546D01*
X218956009Y-127245989D01*
X218956010Y-127245990D01*
X219105453Y-127366116D01*
X219105456Y-127366118D01*
X219271959Y-127448695D01*
X219277225Y-127451307D01*
X219424517Y-127487937D01*
X219463291Y-127497580D01*
X219463292Y-127497580D01*
X219463296Y-127497581D01*
X219502336Y-127500228D01*
X219506342Y-127500500D01*
X219506342Y-127500499D01*
X219506343Y-127500500D01*
X220421656Y-127500499D01*
X220421657Y-127500499D01*
X220432417Y-127499769D01*
X220464704Y-127497581D01*
X220650775Y-127451307D01*
X220822547Y-127366116D01*
X220971990Y-127245990D01*
X221092116Y-127096547D01*
X221122911Y-127034453D01*
X221170333Y-126983140D01*
X221237968Y-126965610D01*
X221304343Y-126987430D01*
X221345088Y-127034453D01*
X221375881Y-127096543D01*
X221375883Y-127096546D01*
X221496009Y-127245989D01*
X221496010Y-127245990D01*
X221645453Y-127366116D01*
X221645456Y-127366118D01*
X221811959Y-127448695D01*
X221817225Y-127451307D01*
X221964517Y-127487937D01*
X222003291Y-127497580D01*
X222003292Y-127497580D01*
X222003296Y-127497581D01*
X222042336Y-127500228D01*
X222046342Y-127500500D01*
X222046342Y-127500499D01*
X222046343Y-127500500D01*
X222961656Y-127500499D01*
X222961657Y-127500499D01*
X222972417Y-127499769D01*
X223004704Y-127497581D01*
X223190775Y-127451307D01*
X223362547Y-127366116D01*
X223511990Y-127245990D01*
X223632116Y-127096547D01*
X223662911Y-127034453D01*
X223710333Y-126983140D01*
X223777968Y-126965610D01*
X223844343Y-126987430D01*
X223885088Y-127034453D01*
X223915881Y-127096543D01*
X223915883Y-127096546D01*
X224036009Y-127245989D01*
X224036010Y-127245990D01*
X224185453Y-127366116D01*
X224185456Y-127366118D01*
X224351959Y-127448695D01*
X224357225Y-127451307D01*
X224504517Y-127487937D01*
X224543291Y-127497580D01*
X224543292Y-127497580D01*
X224543296Y-127497581D01*
X224582336Y-127500228D01*
X224586342Y-127500500D01*
X224586342Y-127500499D01*
X224586343Y-127500500D01*
X225501656Y-127500499D01*
X225501657Y-127500499D01*
X225512417Y-127499769D01*
X225544704Y-127497581D01*
X225730775Y-127451307D01*
X225887112Y-127373770D01*
X225955917Y-127361619D01*
X226020369Y-127388596D01*
X226029888Y-127397178D01*
X230832897Y-132200188D01*
X230842722Y-132212451D01*
X230842943Y-132212269D01*
X230847914Y-132218278D01*
X230873917Y-132242695D01*
X230898335Y-132265626D01*
X230919229Y-132286520D01*
X230924711Y-132290773D01*
X230929143Y-132294557D01*
X230963118Y-132326462D01*
X230980676Y-132336114D01*
X230996933Y-132346793D01*
X231012764Y-132359073D01*
X231032437Y-132367586D01*
X231055533Y-132377582D01*
X231060777Y-132380150D01*
X231101608Y-132402597D01*
X231114223Y-132405835D01*
X231121005Y-132407577D01*
X231139419Y-132413881D01*
X231157804Y-132421838D01*
X231203857Y-132429132D01*
X231209526Y-132430306D01*
X231254681Y-132441900D01*
X231274716Y-132441900D01*
X231294113Y-132443426D01*
X231313896Y-132446560D01*
X231360283Y-132442175D01*
X231366122Y-132441900D01*
X234036952Y-132441900D01*
X234103991Y-132461585D01*
X234129100Y-132482926D01*
X234134826Y-132489285D01*
X234134830Y-132489289D01*
X234287965Y-132600548D01*
X234287970Y-132600551D01*
X234460892Y-132677542D01*
X234460897Y-132677544D01*
X234646054Y-132716900D01*
X234646055Y-132716900D01*
X234835344Y-132716900D01*
X234835346Y-132716900D01*
X235020503Y-132677544D01*
X235193430Y-132600551D01*
X235346571Y-132489288D01*
X235473233Y-132348616D01*
X235567879Y-132184684D01*
X235626374Y-132004656D01*
X235646160Y-131816400D01*
X235626374Y-131628144D01*
X235567879Y-131448116D01*
X235473233Y-131284184D01*
X235346571Y-131143512D01*
X235346570Y-131143511D01*
X235193434Y-131032251D01*
X235193429Y-131032248D01*
X235020507Y-130955257D01*
X235020502Y-130955255D01*
X234874700Y-130924265D01*
X234835346Y-130915900D01*
X234646054Y-130915900D01*
X234613597Y-130922798D01*
X234460897Y-130955255D01*
X234460892Y-130955257D01*
X234287970Y-131032248D01*
X234287965Y-131032251D01*
X234134830Y-131143510D01*
X234134826Y-131143514D01*
X234129100Y-131149874D01*
X234069613Y-131186521D01*
X234036952Y-131190900D01*
X231644152Y-131190900D01*
X231577113Y-131171215D01*
X231556471Y-131154581D01*
X228629571Y-128227681D01*
X228596086Y-128166358D01*
X228601070Y-128096666D01*
X228642942Y-128040733D01*
X228708406Y-128016316D01*
X228717252Y-128016000D01*
X236290500Y-128016000D01*
X236357539Y-128035685D01*
X236403294Y-128088489D01*
X236414500Y-128140000D01*
X236414500Y-140558530D01*
X236414308Y-140563408D01*
X236378271Y-141020199D01*
X236375226Y-141039405D01*
X236269796Y-141478381D01*
X236263803Y-141496835D01*
X236091304Y-141913702D01*
X236082422Y-141931131D01*
X235846691Y-142315390D01*
X235835254Y-142331117D01*
X235541953Y-142674262D01*
X235528263Y-142687952D01*
X235374748Y-142819168D01*
X235374749Y-142819168D01*
X235309067Y-142875309D01*
X235185114Y-142981258D01*
X235169385Y-142992696D01*
X235063865Y-143057426D01*
X235063860Y-143057431D01*
X234785136Y-143228420D01*
X234767706Y-143237302D01*
X234350831Y-143409801D01*
X234332377Y-143415794D01*
X233893406Y-143521221D01*
X233874202Y-143524266D01*
X233417410Y-143560306D01*
X233412531Y-143560498D01*
X211917469Y-143560498D01*
X211912591Y-143560306D01*
X211455796Y-143524266D01*
X211436592Y-143521221D01*
X210997618Y-143415794D01*
X210979164Y-143409801D01*
X210785784Y-143329783D01*
X210785780Y-143329781D01*
X210562287Y-143237300D01*
X210544858Y-143228418D01*
X210160607Y-142992693D01*
X210144880Y-142981256D01*
X209801735Y-142687954D01*
X209788044Y-142674263D01*
X209533005Y-142375883D01*
X209532994Y-142375870D01*
X217343500Y-142375870D01*
X217343501Y-142375876D01*
X217349908Y-142435483D01*
X217400202Y-142570328D01*
X217400206Y-142570335D01*
X217486452Y-142685544D01*
X217486455Y-142685547D01*
X217601664Y-142771793D01*
X217601671Y-142771797D01*
X217736517Y-142822091D01*
X217736516Y-142822091D01*
X217743444Y-142822835D01*
X217796127Y-142828500D01*
X219591872Y-142828499D01*
X219651483Y-142822091D01*
X219786331Y-142771796D01*
X219901546Y-142685546D01*
X219987796Y-142570331D01*
X220038091Y-142435483D01*
X220044500Y-142375873D01*
X220044499Y-140580128D01*
X220042443Y-140561004D01*
X232314490Y-140561004D01*
X232314649Y-140563187D01*
X232315018Y-140565084D01*
X232349000Y-140831113D01*
X232349128Y-140833139D01*
X232349221Y-140833625D01*
X232349463Y-140835119D01*
X232349973Y-140836516D01*
X232350281Y-140837436D01*
X232351118Y-140839192D01*
X232406615Y-140979859D01*
X232406620Y-140979870D01*
X232447284Y-141082942D01*
X232448427Y-141086576D01*
X232450552Y-141091248D01*
X232451848Y-141093238D01*
X232453080Y-141094714D01*
X232610061Y-141310800D01*
X232611161Y-141312557D01*
X232611521Y-141312995D01*
X232612580Y-141314369D01*
X232613880Y-141315502D01*
X232616268Y-141317711D01*
X232619510Y-141320023D01*
X232822270Y-141487566D01*
X232823852Y-141489073D01*
X232824006Y-141489185D01*
X232825715Y-141490518D01*
X232827659Y-141491478D01*
X232830170Y-141492837D01*
X232833974Y-141494298D01*
X233070839Y-141605595D01*
X233072626Y-141606592D01*
X233073234Y-141606836D01*
X233074802Y-141607520D01*
X233076422Y-141607872D01*
X233079970Y-141608749D01*
X233083861Y-141609204D01*
X233341700Y-141658682D01*
X233344161Y-141659332D01*
X233345943Y-141659625D01*
X233348627Y-141659500D01*
X233351203Y-141659494D01*
X233355379Y-141658918D01*
X233616710Y-141642765D01*
X233618813Y-141642780D01*
X233619179Y-141642736D01*
X233621103Y-141642562D01*
X233622937Y-141642017D01*
X233623348Y-141641908D01*
X233625292Y-141641116D01*
X233873556Y-141559625D01*
X233877083Y-141558777D01*
X233881976Y-141556931D01*
X233883266Y-141556479D01*
X233884548Y-141555711D01*
X233888182Y-141553661D01*
X233891235Y-141551395D01*
X234108558Y-141414283D01*
X234112181Y-141412351D01*
X234114786Y-141410491D01*
X234116353Y-141409446D01*
X234117679Y-141408103D01*
X234120170Y-141405733D01*
X234122725Y-141402573D01*
X234298916Y-141215196D01*
X234302162Y-141212229D01*
X234303590Y-141210502D01*
X234305510Y-141208391D01*
X234306940Y-141205908D01*
X234308067Y-141204145D01*
X234309925Y-141200073D01*
X234407208Y-141023057D01*
X234407217Y-141023049D01*
X234434014Y-140974286D01*
X234436275Y-140970805D01*
X234437600Y-140968019D01*
X234438551Y-140966183D01*
X234439113Y-140964181D01*
X234439959Y-140961529D01*
X234440690Y-140957451D01*
X234504191Y-140708123D01*
X234505407Y-140704502D01*
X234506210Y-140700528D01*
X234506552Y-140699033D01*
X234506597Y-140697459D01*
X234506642Y-140696650D01*
X234506500Y-140694617D01*
X234506500Y-140431844D01*
X234506770Y-140428037D01*
X234506582Y-140424387D01*
X234506545Y-140422954D01*
X234506236Y-140421575D01*
X234505512Y-140417932D01*
X234504285Y-140414239D01*
X234497009Y-140385671D01*
X234440667Y-140164453D01*
X234439974Y-140160602D01*
X234438976Y-140157413D01*
X234438524Y-140155808D01*
X234437767Y-140154320D01*
X234437488Y-140153731D01*
X234436358Y-140151974D01*
X234309752Y-139921608D01*
X234308025Y-139917850D01*
X234306577Y-139915550D01*
X234305473Y-139913645D01*
X234304011Y-139912004D01*
X234303966Y-139911949D01*
X234302376Y-139910478D01*
X234119207Y-139715679D01*
X234117866Y-139714048D01*
X234116430Y-139712598D01*
X234114760Y-139711477D01*
X234114405Y-139711221D01*
X234112517Y-139710209D01*
X233886929Y-139567882D01*
X233885531Y-139566858D01*
X233883211Y-139565529D01*
X233877697Y-139563469D01*
X233874443Y-139562660D01*
X233703754Y-139506633D01*
X233624904Y-139480751D01*
X233623149Y-139480049D01*
X233621094Y-139479493D01*
X233619080Y-139479258D01*
X233617175Y-139479258D01*
X233350280Y-139462761D01*
X233348324Y-139462506D01*
X233347469Y-139462500D01*
X233345933Y-139462447D01*
X233344337Y-139462695D01*
X233344120Y-139462722D01*
X233342140Y-139463229D01*
X233336814Y-139464250D01*
X233336803Y-139464254D01*
X233078762Y-139513769D01*
X233076841Y-139514014D01*
X233076156Y-139514186D01*
X233075016Y-139514442D01*
X233074976Y-139514461D01*
X233072897Y-139515296D01*
X233071164Y-139516250D01*
X232829517Y-139629790D01*
X232827694Y-139630504D01*
X232825731Y-139631559D01*
X232823963Y-139632863D01*
X232822532Y-139634212D01*
X232615803Y-139805035D01*
X232614234Y-139806170D01*
X232612632Y-139807646D01*
X232611205Y-139809410D01*
X232610191Y-139811017D01*
X232452889Y-140027543D01*
X232451701Y-140028980D01*
X232450550Y-140030750D01*
X232449482Y-140033138D01*
X232448940Y-140034851D01*
X232351029Y-140283024D01*
X232350207Y-140284767D01*
X232349506Y-140286868D01*
X232349123Y-140288946D01*
X232349000Y-140290881D01*
X232315002Y-140557033D01*
X232314627Y-140558984D01*
X232314490Y-140561004D01*
X220042443Y-140561004D01*
X220038091Y-140520517D01*
X220003598Y-140428037D01*
X219987797Y-140385671D01*
X219987793Y-140385664D01*
X219901547Y-140270455D01*
X219901544Y-140270452D01*
X219786335Y-140184206D01*
X219786328Y-140184202D01*
X219651482Y-140133908D01*
X219651483Y-140133908D01*
X219591883Y-140127501D01*
X219591881Y-140127500D01*
X219591873Y-140127500D01*
X219591864Y-140127500D01*
X217796129Y-140127500D01*
X217796123Y-140127501D01*
X217736516Y-140133908D01*
X217601671Y-140184202D01*
X217601664Y-140184206D01*
X217486455Y-140270452D01*
X217486452Y-140270455D01*
X217400206Y-140385664D01*
X217400202Y-140385671D01*
X217349908Y-140520517D01*
X217345117Y-140565084D01*
X217343501Y-140580123D01*
X217343500Y-140580135D01*
X217343500Y-142375870D01*
X209532994Y-142375870D01*
X209494741Y-142331116D01*
X209483305Y-142315390D01*
X209247578Y-141931136D01*
X209238698Y-141913712D01*
X209066192Y-141496826D01*
X209060203Y-141478381D01*
X208954772Y-141039404D01*
X208951728Y-141020199D01*
X208948546Y-140979870D01*
X208915691Y-140563407D01*
X208915597Y-140561002D01*
X210814488Y-140561002D01*
X210814643Y-140563166D01*
X210815016Y-140565087D01*
X210848998Y-140831113D01*
X210849126Y-140833139D01*
X210849219Y-140833625D01*
X210849461Y-140835119D01*
X210849971Y-140836516D01*
X210850279Y-140837436D01*
X210851116Y-140839192D01*
X210915575Y-141002575D01*
X210915584Y-141002594D01*
X210948986Y-141087260D01*
X210949607Y-141089208D01*
X210949981Y-141090015D01*
X210950537Y-141091294D01*
X210951369Y-141092509D01*
X210951799Y-141093174D01*
X210953057Y-141094682D01*
X211110058Y-141310798D01*
X211111160Y-141312557D01*
X211111519Y-141312995D01*
X211112578Y-141314369D01*
X211113878Y-141315502D01*
X211116265Y-141317709D01*
X211119508Y-141320023D01*
X211322557Y-141487804D01*
X211324062Y-141489221D01*
X211324223Y-141489338D01*
X211325623Y-141490424D01*
X211327065Y-141491145D01*
X211330666Y-141493066D01*
X211334290Y-141494446D01*
X211570837Y-141605592D01*
X211572633Y-141606594D01*
X211573234Y-141606836D01*
X211574802Y-141607520D01*
X211576422Y-141607872D01*
X211579970Y-141608749D01*
X211583861Y-141609204D01*
X211841700Y-141658682D01*
X211844161Y-141659332D01*
X211845943Y-141659625D01*
X211848627Y-141659500D01*
X211851203Y-141659494D01*
X211855379Y-141658918D01*
X212116708Y-141642765D01*
X212118811Y-141642780D01*
X212119177Y-141642736D01*
X212121101Y-141642562D01*
X212122935Y-141642017D01*
X212123352Y-141641907D01*
X212125302Y-141641112D01*
X212373549Y-141559628D01*
X212377082Y-141558778D01*
X212381977Y-141556931D01*
X212383267Y-141556479D01*
X212384549Y-141555711D01*
X212388180Y-141553663D01*
X212391228Y-141551400D01*
X212608063Y-141414595D01*
X212612001Y-141412521D01*
X212614095Y-141411005D01*
X212616455Y-141409453D01*
X212618438Y-141407418D01*
X212619981Y-141405977D01*
X212622766Y-141402530D01*
X212798916Y-141215196D01*
X212802162Y-141212229D01*
X212803590Y-141210502D01*
X212805510Y-141208391D01*
X212806940Y-141205908D01*
X212808068Y-141204144D01*
X212809925Y-141200073D01*
X212867829Y-141094714D01*
X212907210Y-141023057D01*
X212907219Y-141023049D01*
X212934016Y-140974286D01*
X212936277Y-140970805D01*
X212937602Y-140968019D01*
X212938553Y-140966183D01*
X212939115Y-140964181D01*
X212939963Y-140961525D01*
X212940697Y-140957434D01*
X212971258Y-140837436D01*
X213004154Y-140708268D01*
X213005368Y-140704666D01*
X213006219Y-140700480D01*
X213006553Y-140699027D01*
X213006597Y-140697458D01*
X213006642Y-140696649D01*
X213006500Y-140694616D01*
X213006500Y-140431845D01*
X213006770Y-140428038D01*
X213006582Y-140424388D01*
X213006545Y-140422961D01*
X213006244Y-140421621D01*
X213005471Y-140417761D01*
X213004245Y-140414084D01*
X212997009Y-140385671D01*
X212940670Y-140164454D01*
X212939976Y-140160602D01*
X212938978Y-140157413D01*
X212938526Y-140155808D01*
X212937769Y-140154320D01*
X212937491Y-140153735D01*
X212936357Y-140151970D01*
X212871995Y-140034863D01*
X212847389Y-139990091D01*
X212809749Y-139921603D01*
X212808024Y-139917848D01*
X212806577Y-139915550D01*
X212805473Y-139913645D01*
X212804011Y-139912004D01*
X212803968Y-139911952D01*
X212802373Y-139910476D01*
X212708852Y-139811017D01*
X212619365Y-139715848D01*
X212618181Y-139714398D01*
X212616352Y-139712631D01*
X212616350Y-139712629D01*
X212616346Y-139712627D01*
X212616319Y-139712600D01*
X212614481Y-139711294D01*
X212612748Y-139710355D01*
X212386930Y-139567882D01*
X212385532Y-139566858D01*
X212383212Y-139565529D01*
X212377699Y-139563470D01*
X212374450Y-139562662D01*
X212124904Y-139480751D01*
X212123152Y-139480051D01*
X212121092Y-139479493D01*
X212119078Y-139479258D01*
X212117173Y-139479258D01*
X211850280Y-139462761D01*
X211848324Y-139462506D01*
X211847469Y-139462500D01*
X211845933Y-139462447D01*
X211844337Y-139462695D01*
X211844118Y-139462722D01*
X211842140Y-139463229D01*
X211578763Y-139513769D01*
X211576840Y-139514014D01*
X211576156Y-139514186D01*
X211575016Y-139514442D01*
X211574976Y-139514461D01*
X211572897Y-139515296D01*
X211571164Y-139516250D01*
X211329263Y-139629909D01*
X211327549Y-139630589D01*
X211325718Y-139631569D01*
X211323948Y-139632889D01*
X211322603Y-139634153D01*
X211115797Y-139805038D01*
X211114233Y-139806169D01*
X211112630Y-139807646D01*
X211111203Y-139809410D01*
X211110194Y-139811009D01*
X210952886Y-140027546D01*
X210951703Y-140028978D01*
X210950550Y-140030750D01*
X210949481Y-140033139D01*
X210948936Y-140034863D01*
X210851031Y-140283016D01*
X210850204Y-140284769D01*
X210849504Y-140286868D01*
X210849119Y-140288956D01*
X210848996Y-140290889D01*
X210815000Y-140557033D01*
X210814630Y-140558956D01*
X210814488Y-140561002D01*
X208915597Y-140561002D01*
X208915500Y-140558530D01*
X208915500Y-96903600D01*
X228648540Y-96903600D01*
X228668326Y-97091856D01*
X228668327Y-97091859D01*
X228726818Y-97271877D01*
X228726820Y-97271881D01*
X228726821Y-97271884D01*
X228821467Y-97435816D01*
X228948129Y-97576488D01*
X229101265Y-97687748D01*
X229101270Y-97687751D01*
X229274192Y-97764742D01*
X229274197Y-97764744D01*
X229459354Y-97804100D01*
X229518548Y-97804100D01*
X229585587Y-97823785D01*
X229606228Y-97840418D01*
X230627520Y-98861711D01*
X231619242Y-99853433D01*
X231646112Y-99897280D01*
X231646875Y-99896941D01*
X231649454Y-99902733D01*
X231649492Y-99902795D01*
X231649519Y-99902880D01*
X231649521Y-99902884D01*
X231744167Y-100066816D01*
X231753709Y-100077413D01*
X231870829Y-100207488D01*
X232023965Y-100318748D01*
X232023970Y-100318751D01*
X232196892Y-100395742D01*
X232196897Y-100395744D01*
X232382054Y-100435100D01*
X232382055Y-100435100D01*
X232571344Y-100435100D01*
X232571346Y-100435100D01*
X232756503Y-100395744D01*
X232929430Y-100318751D01*
X233082571Y-100207488D01*
X233209233Y-100066816D01*
X233303879Y-99902884D01*
X233362374Y-99722856D01*
X233382160Y-99534600D01*
X233362374Y-99346344D01*
X233303879Y-99166316D01*
X233209233Y-99002384D01*
X233082571Y-98861712D01*
X233082570Y-98861711D01*
X232929434Y-98750451D01*
X232929429Y-98750448D01*
X232756507Y-98673457D01*
X232756502Y-98673455D01*
X232591844Y-98638457D01*
X232571346Y-98634100D01*
X232382054Y-98634100D01*
X232272273Y-98657433D01*
X232202608Y-98652117D01*
X232158814Y-98623824D01*
X230492960Y-96957969D01*
X230459475Y-96896646D01*
X230457323Y-96883268D01*
X230439674Y-96715344D01*
X230381179Y-96535316D01*
X230286533Y-96371384D01*
X230159871Y-96230712D01*
X230159870Y-96230711D01*
X230006734Y-96119451D01*
X230006729Y-96119448D01*
X229833807Y-96042457D01*
X229833802Y-96042455D01*
X229688000Y-96011465D01*
X229648646Y-96003100D01*
X229459354Y-96003100D01*
X229426897Y-96009998D01*
X229274197Y-96042455D01*
X229274192Y-96042457D01*
X229101270Y-96119448D01*
X229101265Y-96119451D01*
X228948129Y-96230711D01*
X228821466Y-96371385D01*
X228726821Y-96535315D01*
X228726818Y-96535322D01*
X228668327Y-96715340D01*
X228668326Y-96715344D01*
X228648540Y-96903600D01*
X208915500Y-96903600D01*
X208915500Y-94563468D01*
X208915597Y-94561006D01*
X210814488Y-94561006D01*
X210814643Y-94563170D01*
X210815016Y-94565091D01*
X210848998Y-94831115D01*
X210849126Y-94833141D01*
X210849219Y-94833627D01*
X210849461Y-94835121D01*
X210849971Y-94836518D01*
X210850280Y-94837441D01*
X210851117Y-94839197D01*
X210947282Y-95082945D01*
X210948424Y-95086574D01*
X210950552Y-95091253D01*
X210951845Y-95093239D01*
X210953077Y-95094714D01*
X210969999Y-95118008D01*
X211110057Y-95310803D01*
X211111157Y-95312558D01*
X211111519Y-95313000D01*
X211112578Y-95314374D01*
X211113878Y-95315507D01*
X211116263Y-95317713D01*
X211119506Y-95320026D01*
X211322361Y-95487644D01*
X211323849Y-95489056D01*
X211324466Y-95489509D01*
X211325714Y-95490478D01*
X211327170Y-95491212D01*
X211327806Y-95491555D01*
X211329677Y-95492282D01*
X211570837Y-95605597D01*
X211572633Y-95606599D01*
X211573234Y-95606841D01*
X211574802Y-95607525D01*
X211576422Y-95607877D01*
X211579970Y-95608754D01*
X211583862Y-95609209D01*
X211841689Y-95658683D01*
X211844155Y-95659334D01*
X211845943Y-95659628D01*
X211848627Y-95659503D01*
X211851203Y-95659497D01*
X211855380Y-95658921D01*
X212116708Y-95642767D01*
X212118811Y-95642782D01*
X212119177Y-95642738D01*
X212121101Y-95642564D01*
X212122935Y-95642019D01*
X212123346Y-95641910D01*
X212125290Y-95641118D01*
X212373557Y-95559626D01*
X212377084Y-95558778D01*
X212381977Y-95556932D01*
X212383267Y-95556480D01*
X212384549Y-95555712D01*
X212388183Y-95553662D01*
X212391236Y-95551396D01*
X212608563Y-95414282D01*
X212612182Y-95412354D01*
X212614786Y-95410494D01*
X212616353Y-95409449D01*
X212617679Y-95408106D01*
X212620170Y-95405736D01*
X212622725Y-95402576D01*
X212798916Y-95215199D01*
X212802162Y-95212232D01*
X212803590Y-95210505D01*
X212805510Y-95208394D01*
X212806940Y-95205911D01*
X212808066Y-95204151D01*
X212809916Y-95200091D01*
X212847485Y-95131735D01*
X212847485Y-95131734D01*
X212934018Y-94974285D01*
X212936280Y-94970804D01*
X212937602Y-94968024D01*
X212938553Y-94966188D01*
X212939115Y-94964186D01*
X212939963Y-94961530D01*
X212940697Y-94957439D01*
X213004154Y-94708271D01*
X213005368Y-94704669D01*
X213006219Y-94700483D01*
X213006553Y-94699030D01*
X213006597Y-94697461D01*
X213006642Y-94696652D01*
X213006500Y-94694619D01*
X213006500Y-94561006D01*
X232314490Y-94561006D01*
X232314645Y-94563170D01*
X232315018Y-94565091D01*
X232349000Y-94831115D01*
X232349128Y-94833141D01*
X232349221Y-94833627D01*
X232349463Y-94835121D01*
X232349973Y-94836518D01*
X232350282Y-94837438D01*
X232351117Y-94839192D01*
X232447284Y-95082949D01*
X232448425Y-95086577D01*
X232450552Y-95091253D01*
X232451848Y-95093243D01*
X232453080Y-95094719D01*
X232610061Y-95310805D01*
X232611161Y-95312562D01*
X232611521Y-95313000D01*
X232612580Y-95314374D01*
X232613880Y-95315507D01*
X232616269Y-95317717D01*
X232619509Y-95320028D01*
X232822269Y-95487569D01*
X232823850Y-95489075D01*
X232824007Y-95489189D01*
X232825730Y-95490533D01*
X232827723Y-95491520D01*
X232827816Y-95491571D01*
X232829768Y-95492325D01*
X233070843Y-95605600D01*
X233072636Y-95606600D01*
X233073234Y-95606841D01*
X233074802Y-95607525D01*
X233076422Y-95607877D01*
X233079970Y-95608754D01*
X233083861Y-95609209D01*
X233327002Y-95655866D01*
X233327002Y-95655865D01*
X233341700Y-95658686D01*
X233344154Y-95659334D01*
X233345943Y-95659628D01*
X233348627Y-95659503D01*
X233351203Y-95659497D01*
X233355380Y-95658921D01*
X233616710Y-95642767D01*
X233618813Y-95642782D01*
X233619179Y-95642738D01*
X233621103Y-95642564D01*
X233622937Y-95642019D01*
X233623352Y-95641909D01*
X233625300Y-95641115D01*
X233873556Y-95559626D01*
X233877083Y-95558778D01*
X233881978Y-95556931D01*
X233883263Y-95556481D01*
X233884521Y-95555727D01*
X233888281Y-95553602D01*
X233891317Y-95551344D01*
X234108571Y-95414277D01*
X234112185Y-95412351D01*
X234114786Y-95410494D01*
X234116353Y-95409449D01*
X234117679Y-95408106D01*
X234120170Y-95405736D01*
X234122725Y-95402576D01*
X234298916Y-95215199D01*
X234302162Y-95212232D01*
X234303590Y-95210505D01*
X234305510Y-95208394D01*
X234306940Y-95205911D01*
X234308068Y-95204147D01*
X234309925Y-95200076D01*
X234347749Y-95131253D01*
X234434018Y-94974281D01*
X234436278Y-94970803D01*
X234437600Y-94968024D01*
X234438551Y-94966188D01*
X234439113Y-94964186D01*
X234439960Y-94961533D01*
X234440691Y-94957453D01*
X234504190Y-94708130D01*
X234505407Y-94704507D01*
X234506210Y-94700531D01*
X234506552Y-94699036D01*
X234506597Y-94697462D01*
X234506642Y-94696653D01*
X234506500Y-94694620D01*
X234506500Y-94431847D01*
X234506770Y-94428040D01*
X234506582Y-94424390D01*
X234506545Y-94422957D01*
X234506236Y-94421578D01*
X234505511Y-94417933D01*
X234504285Y-94414241D01*
X234472378Y-94288962D01*
X234440668Y-94164458D01*
X234439974Y-94160605D01*
X234438976Y-94157415D01*
X234438524Y-94155810D01*
X234437767Y-94154322D01*
X234437491Y-94153740D01*
X234436362Y-94151986D01*
X234309686Y-93921492D01*
X234308146Y-93918147D01*
X234305432Y-93913737D01*
X234305431Y-93913732D01*
X234305427Y-93913727D01*
X234305407Y-93913695D01*
X234305391Y-93913676D01*
X234305390Y-93913674D01*
X234305387Y-93913672D01*
X234303768Y-93911760D01*
X234302320Y-93910423D01*
X234280482Y-93887196D01*
X234119366Y-93715851D01*
X234118186Y-93714406D01*
X234116352Y-93712634D01*
X234116350Y-93712632D01*
X234116346Y-93712630D01*
X234116319Y-93712603D01*
X234114484Y-93711299D01*
X234112754Y-93710362D01*
X233886986Y-93567924D01*
X233885595Y-93566903D01*
X233883219Y-93565538D01*
X233877692Y-93563474D01*
X233874443Y-93562666D01*
X233716304Y-93510757D01*
X233624908Y-93480757D01*
X233623149Y-93480054D01*
X233621094Y-93479498D01*
X233619080Y-93479263D01*
X233617176Y-93479263D01*
X233350280Y-93462764D01*
X233348324Y-93462509D01*
X233347469Y-93462503D01*
X233345933Y-93462450D01*
X233344337Y-93462698D01*
X233344118Y-93462725D01*
X233342142Y-93463231D01*
X233078975Y-93513729D01*
X233077137Y-93513957D01*
X233074851Y-93514512D01*
X233072833Y-93515341D01*
X233071240Y-93516214D01*
X232966149Y-93565595D01*
X232829268Y-93629912D01*
X232827545Y-93630596D01*
X232825718Y-93631573D01*
X232823948Y-93632893D01*
X232822603Y-93634157D01*
X232615951Y-93804915D01*
X232614483Y-93805969D01*
X232612636Y-93807642D01*
X232611043Y-93809646D01*
X232610120Y-93811116D01*
X232556557Y-93884844D01*
X232556556Y-93884846D01*
X232452888Y-94027546D01*
X232451702Y-94028982D01*
X232450550Y-94030752D01*
X232449481Y-94033141D01*
X232448938Y-94034858D01*
X232351031Y-94283027D01*
X232350205Y-94284776D01*
X232349506Y-94286874D01*
X232349123Y-94288952D01*
X232349000Y-94290887D01*
X232315002Y-94557037D01*
X232314632Y-94558960D01*
X232314490Y-94561006D01*
X213006500Y-94561006D01*
X213006500Y-94431848D01*
X213006770Y-94428041D01*
X213006582Y-94424391D01*
X213006545Y-94422964D01*
X213006244Y-94421624D01*
X213005472Y-94417764D01*
X213004247Y-94414095D01*
X212940670Y-94164456D01*
X212939976Y-94160604D01*
X212938978Y-94157415D01*
X212938526Y-94155810D01*
X212937769Y-94154322D01*
X212937491Y-94153736D01*
X212936360Y-94151977D01*
X212847389Y-93990094D01*
X212809689Y-93921496D01*
X212808147Y-93918149D01*
X212805432Y-93913737D01*
X212805431Y-93913732D01*
X212805427Y-93913727D01*
X212805407Y-93913695D01*
X212805391Y-93913676D01*
X212805390Y-93913674D01*
X212805387Y-93913672D01*
X212803768Y-93911760D01*
X212802320Y-93910423D01*
X212780482Y-93887196D01*
X212619366Y-93715851D01*
X212618186Y-93714406D01*
X212616352Y-93712634D01*
X212616350Y-93712632D01*
X212616346Y-93712630D01*
X212616319Y-93712603D01*
X212614483Y-93711298D01*
X212612744Y-93710356D01*
X212386937Y-93567893D01*
X212385532Y-93566864D01*
X212383212Y-93565535D01*
X212377698Y-93563475D01*
X212374444Y-93562666D01*
X212215309Y-93510431D01*
X212124906Y-93480757D01*
X212123147Y-93480054D01*
X212121092Y-93479498D01*
X212119078Y-93479263D01*
X212117174Y-93479263D01*
X211850280Y-93462764D01*
X211848324Y-93462509D01*
X211847469Y-93462503D01*
X211845933Y-93462450D01*
X211844337Y-93462698D01*
X211844118Y-93462725D01*
X211842142Y-93463231D01*
X211578975Y-93513729D01*
X211577137Y-93513957D01*
X211574851Y-93514512D01*
X211572823Y-93515345D01*
X211571237Y-93516215D01*
X211329520Y-93629793D01*
X211327694Y-93630509D01*
X211325731Y-93631563D01*
X211323963Y-93632867D01*
X211322533Y-93634215D01*
X211311150Y-93643621D01*
X211115787Y-93805049D01*
X211114221Y-93806182D01*
X211112630Y-93807648D01*
X211111201Y-93809414D01*
X211110189Y-93811018D01*
X211063881Y-93874762D01*
X211053693Y-93888787D01*
X211053692Y-93888788D01*
X211035571Y-93913732D01*
X210952838Y-94027615D01*
X210951635Y-94029074D01*
X210950549Y-94030755D01*
X210949610Y-94032815D01*
X210949025Y-94034639D01*
X210851031Y-94283022D01*
X210850204Y-94284775D01*
X210849504Y-94286874D01*
X210849119Y-94288962D01*
X210848996Y-94290895D01*
X210815000Y-94557037D01*
X210814630Y-94558960D01*
X210814488Y-94561006D01*
X208915597Y-94561006D01*
X208915692Y-94558590D01*
X208926394Y-94422937D01*
X208951728Y-94101798D01*
X208954773Y-94082595D01*
X208966291Y-94034639D01*
X209060205Y-93643609D01*
X209066191Y-93625178D01*
X209238700Y-93208283D01*
X209247571Y-93190873D01*
X209483310Y-92806600D01*
X209494736Y-92790888D01*
X209788052Y-92447729D01*
X209801728Y-92434053D01*
X210144887Y-92140738D01*
X210160599Y-92129312D01*
X210544872Y-91893573D01*
X210562281Y-91884702D01*
X210791574Y-91789821D01*
X210791598Y-91789816D01*
X210791597Y-91789814D01*
X210979165Y-91712197D01*
X210979170Y-91712194D01*
X210997610Y-91706206D01*
X211436597Y-91600775D01*
X211455792Y-91597731D01*
X211912590Y-91561693D01*
X211917468Y-91561502D01*
X214894901Y-91561502D01*
X218990901Y-91561502D01*
X227182903Y-91561502D01*
X231278899Y-91561502D01*
X232092380Y-91561502D01*
X233412532Y-91561502D01*
X233417409Y-91561693D01*
G37*
%TD.AperFunction*%
%TA.AperFunction,Conductor*%
G36*
X222672260Y-135501391D02*
G01*
X222694422Y-135509000D01*
X222789568Y-135509000D01*
X222789569Y-135509000D01*
X222863590Y-135496648D01*
X222932956Y-135505030D01*
X222986778Y-135549583D01*
X223007968Y-135616162D01*
X223008000Y-135618957D01*
X223008000Y-135754000D01*
X222988315Y-135821039D01*
X222935511Y-135866794D01*
X222884000Y-135878000D01*
X222632000Y-135878000D01*
X222564961Y-135858315D01*
X222519206Y-135805511D01*
X222508000Y-135754000D01*
X222508000Y-135618674D01*
X222527685Y-135551635D01*
X222580489Y-135505880D01*
X222649647Y-135495936D01*
X222672260Y-135501391D01*
G37*
%TD.AperFunction*%
%TD*%
M02*
