M48
; DRILL file {KiCad 7.0.7} date Tue Oct 15 08:59:55 2024
; FORMAT={-:-/ absolute / inch / decimal}
; #@! TF.CreationDate,2024-10-15T08:59:55-05:00
; #@! TF.GenerationSoftware,Kicad,Pcbnew,7.0.7
; #@! TF.FileFunction,Plated,1,2,PTH
FMAT,2
INCH
; #@! TA.AperFunction,Plated,PTH,ViaDrill
T1C0.0157
; #@! TA.AperFunction,Plated,PTH,ComponentDrill
T2C0.0300
; #@! TA.AperFunction,Plated,PTH,ComponentDrill
T3C0.0394
%
G90
G05
T1
X8.3249Y-4.3636
X8.325Y-5.1
X8.3619Y-4.3026
X8.4818Y-4.0818
X8.5155Y-4.7204
X8.52Y-3.9163
X8.5781Y-4.0076
X8.7605Y-3.8148
X8.7616Y-5.4386
X8.9Y-4.075
X8.9162Y-3.7952
X8.9765Y-3.918
X8.9867Y-5.4488
X9.0302Y-3.9202
X9.0376Y-3.8151
X9.139Y-4.0975
X9.1526Y-3.9187
X9.1652Y-4.0083
X9.209Y-5.1075
X9.2418Y-5.1896
T2
X8.46Y-4.3294
X8.46Y-4.9306
X8.56Y-4.3294
X8.56Y-4.9306
X8.66Y-4.3294
X8.66Y-4.9306
X8.69Y-3.935
X8.69Y-5.32
X8.76Y-4.3294
X8.76Y-4.9306
X8.77Y-3.935
X8.77Y-5.32
X8.85Y-3.935
X8.85Y-5.32
X8.86Y-4.3294
X8.86Y-4.9306
X8.96Y-4.3294
X8.96Y-4.9306
X9.06Y-4.3294
X9.06Y-4.9306
X9.16Y-4.3294
X9.16Y-4.9306
T3
X8.3Y-5.3
X8.3Y-5.4
X8.32Y-3.9308
X8.32Y-4.0292
X8.46Y-5.14
X8.46Y-5.24
X8.46Y-5.34
X8.46Y-5.44
X8.61Y-5.57
X9.24Y-5.3
X9.24Y-5.4
T0
M30
